<svg width="400" height="122" viewBox="0 0 400 122" fill="none" xmlns="http://www.w3.org/2000/svg">
<path d="M30.6546 29.9841C32.7999 29.9841 34.8322 29.7593 36.7517 29.3098C38.7276 28.8602 40.4777 28.1578 42.0019 27.2025C43.5826 26.191 44.9093 24.9267 45.9819 23.4094C47.111 21.8922 47.9014 20.0659 48.353 17.9305C48.8611 15.6828 48.8611 13.8284 48.353 12.3673C47.8449 10.9063 46.9981 9.75434 45.8126 8.91143C44.627 8.06852 43.1592 7.47849 41.4091 7.14133C39.7155 6.80416 37.909 6.63558 35.9895 6.63558H17.6984L12.7022 29.9841H30.6546ZM11.686 34.873L5.75833 62.436H0L12.9562 1.74672H36.8364C43.5544 1.74672 48.4095 3.01108 51.4015 5.53981C54.4501 8.01233 55.3816 12.0583 54.196 17.6777C53.4057 21.4988 51.9661 24.5333 49.8773 26.7811C47.8449 29.0288 44.9093 30.9394 41.0704 32.5128C42.7641 33.131 43.9778 34.0301 44.7117 35.2101C45.5021 36.3902 45.9819 37.7388 46.1513 39.2561C46.3771 40.7733 46.3771 42.3748 46.1513 44.0606C45.9255 45.7465 45.6714 47.3761 45.3892 48.9495C44.9375 51.2534 44.5988 53.164 44.373 54.6813C44.2036 56.1985 44.119 57.4348 44.119 58.3901C44.119 59.3454 44.2036 60.104 44.373 60.6659C44.5424 61.1716 44.7964 61.565 45.1351 61.846L45.0505 62.436H38.6993C38.3042 61.3683 38.163 59.9635 38.2759 58.2215C38.3889 56.4233 38.5864 54.5408 38.8687 52.574C39.151 50.6072 39.4615 48.6966 39.8002 46.8422C40.1389 44.9316 40.3083 43.4144 40.3083 42.2905C40.3083 40.6609 40.026 39.3685 39.4615 38.4132C38.8969 37.4017 38.1348 36.6431 37.1751 36.1373C36.2718 35.6316 35.171 35.2944 33.8725 35.1258C32.5741 34.9572 31.2192 34.873 29.8078 34.873H11.686Z" fill="#F4F4F4"/>
<path d="M56.5664 62.436L69.5227 1.74672H110.085L109.069 6.63558H74.2648L69.5227 28.5512H100.939L99.9233 33.44H68.5065L63.3409 57.5471H98.9918L97.9756 62.436H56.5664Z" fill="#F4F4F4"/>
<path d="M140.209 53.6695C143.213 53.6695 145.653 53.3402 147.527 52.6817C151.083 51.4195 152.861 49.0735 152.861 45.6437C152.861 43.6407 151.979 42.0905 150.215 40.9929C148.451 39.9228 145.68 38.9762 141.904 38.1531L135.454 36.7125C129.114 35.2857 124.731 33.7355 122.305 32.0617C118.198 29.263 116.144 24.8866 116.144 18.9325C116.144 13.4997 118.129 8.98607 122.098 5.39164C126.068 1.79721 131.898 0 139.589 0C146.011 0 151.483 1.70118 156.004 5.10354C160.552 8.47846 162.936 13.3899 163.157 19.8379H150.918C150.697 16.1886 149.099 13.5957 146.122 12.0592C144.137 11.0439 141.67 10.5363 138.72 10.5363C135.44 10.5363 132.821 11.1949 130.864 12.5119C128.907 13.8289 127.928 15.6673 127.928 18.027C127.928 20.1946 128.893 21.8135 130.823 22.8836C132.063 23.597 134.709 24.4339 138.762 25.3942L149.264 27.9048C153.867 29.0024 157.341 30.4703 159.684 32.3087C163.322 35.1623 165.142 39.2917 165.142 44.6971C165.142 50.2397 163.005 54.8493 158.733 58.526C154.488 62.1753 148.478 64 140.705 64C132.766 64 126.522 62.2028 121.974 58.6084C117.426 54.9865 115.152 50.0201 115.152 43.7093H127.308C127.694 46.4806 128.452 48.5522 129.582 49.9241C131.65 52.421 135.192 53.6695 140.209 53.6695Z" fill="#F4F4F4"/>
<path d="M210.914 62.436V35.3543H187.098V62.436H174.486V1.76977H187.098V24.9003H210.914V1.76977H223.567V62.436H210.914Z" fill="#F4F4F4"/>
<path d="M271.448 49.9653H248.996L244.779 62.436H231.464L253.214 1.76977H267.603L289.187 62.436H275.376L271.448 49.9653ZM267.892 39.5113L260.284 15.6399L252.428 39.5113H267.892Z" fill="#F4F4F4"/>
<path d="M322.844 40.6225H309.902V62.436H297.25V1.76977H323.795C329.915 1.76977 334.794 3.33376 338.432 6.46174C342.071 9.58971 343.89 14.4326 343.89 20.9904C343.89 28.1518 342.071 33.2141 338.432 36.1775C334.794 39.1408 329.598 40.6225 322.844 40.6225ZM328.798 27.9871C330.452 26.5329 331.279 24.2281 331.279 21.0727C331.279 17.9173 330.438 15.6673 328.757 14.3228C327.103 12.9783 324.774 12.3061 321.769 12.3061H309.902V30.1685H321.769C324.774 30.1685 327.117 29.4414 328.798 27.9871Z" fill="#F4F4F4"/>
<path d="M395.865 35.9305H366.26V51.5293H400V62.436H353.814V1.76977H398.511V12.5119H366.26V25.3942H395.865V35.9305Z" fill="#F4F4F4"/>
<path d="M179.3 112.88H181.1V114.2H179.3V117H177.9V114.2H170.5V112.88L175.7 103H177.24L172.04 112.88H177.9V108.6H179.3V112.88ZM191.802 115.28C190.882 116.587 189.582 117.24 187.902 117.24C186.235 117.24 184.928 116.587 183.982 115.28C183.062 113.96 182.602 112.2 182.602 110C182.602 107.787 183.062 106.033 183.982 104.74C184.928 103.42 186.235 102.76 187.902 102.76C189.582 102.76 190.882 103.42 191.802 104.74C192.735 106.033 193.202 107.787 193.202 110C193.202 112.213 192.735 113.973 191.802 115.28ZM185.022 114.34C185.728 115.367 186.688 115.88 187.902 115.88C189.128 115.88 190.082 115.367 190.762 114.34C191.455 113.327 191.802 111.88 191.802 110C191.802 108.12 191.455 106.673 190.762 105.66C190.082 104.633 189.128 104.12 187.902 104.12C186.688 104.12 185.728 104.633 185.022 105.66C184.342 106.687 184.002 108.133 184.002 110C184.002 111.867 184.342 113.313 185.022 114.34ZM204.399 115.28C203.479 116.587 202.179 117.24 200.499 117.24C198.833 117.24 197.526 116.587 196.579 115.28C195.659 113.96 195.199 112.2 195.199 110C195.199 107.787 195.659 106.033 196.579 104.74C197.526 103.42 198.833 102.76 200.499 102.76C202.179 102.76 203.479 103.42 204.399 104.74C205.333 106.033 205.799 107.787 205.799 110C205.799 112.213 205.333 113.973 204.399 115.28ZM197.619 114.34C198.326 115.367 199.286 115.88 200.499 115.88C201.726 115.88 202.679 115.367 203.359 114.34C204.053 113.327 204.399 111.88 204.399 110C204.399 108.12 204.053 106.673 203.359 105.66C202.679 104.633 201.726 104.12 200.499 104.12C199.286 104.12 198.326 104.633 197.619 105.66C196.939 106.687 196.599 108.133 196.599 110C196.599 111.867 196.939 113.313 197.619 114.34ZM213.557 106.76C214.984 106.76 216.197 107.267 217.197 108.28C218.21 109.293 218.717 110.533 218.717 112C218.717 113.467 218.21 114.707 217.197 115.72C216.197 116.733 214.984 117.24 213.557 117.24C211.784 117.24 210.437 116.507 209.517 115.04V121H208.197V107H209.517V108.96C210.437 107.493 211.784 106.76 213.557 106.76ZM210.657 114.82C211.417 115.58 212.35 115.96 213.457 115.96C214.564 115.96 215.497 115.58 216.257 114.82C217.017 114.033 217.397 113.093 217.397 112C217.397 110.893 217.017 109.96 216.257 109.2C215.497 108.427 214.564 108.04 213.457 108.04C212.35 108.04 211.417 108.427 210.657 109.2C209.897 109.96 209.517 110.893 209.517 112C209.517 113.093 209.897 114.033 210.657 114.82ZM224.709 111.82L228.609 117H227.029L223.909 112.88L220.789 117H219.209L223.129 111.82L219.469 107H221.049L223.909 110.78L226.769 107H228.349L224.709 111.82Z" fill="#F4F4F4"/>
<path d="M0.646447 81.6464C0.451184 81.8417 0.451184 82.1583 0.646447 82.3536L3.82843 85.5355C4.02369 85.7308 4.34027 85.7308 4.53553 85.5355C4.7308 85.3403 4.7308 85.0237 4.53553 84.8284L1.70711 82L4.53553 79.1716C4.7308 78.9763 4.7308 78.6597 4.53553 78.4645C4.34027 78.2692 4.02369 78.2692 3.82843 78.4645L0.646447 81.6464ZM398.354 82.3536C398.549 82.1583 398.549 81.8417 398.354 81.6464L395.172 78.4645C394.976 78.2692 394.66 78.2692 394.464 78.4645C394.269 78.6597 394.269 78.9763 394.464 79.1716L397.293 82L394.464 84.8284C394.269 85.0237 394.269 85.3403 394.464 85.5355C394.66 85.7308 394.976 85.7308 395.172 85.5355L398.354 82.3536ZM1 82.5H398V81.5H1V82.5Z" fill="#9780C8"/>
</svg>
