<svg width="152" height="83" viewBox="0 0 152 83" fill="none" xmlns="http://www.w3.org/2000/svg">
<path d="M12.474 11.7125C13.2785 11.7125 14.0406 11.6247 14.7604 11.4491C15.5014 11.2735 16.1576 10.9991 16.7292 10.626C17.322 10.2309 17.8195 9.73698 18.2217 9.14431C18.6452 8.55164 18.9415 7.83824 19.1109 7.00412C19.3014 6.12609 19.3014 5.40171 19.1109 4.831C18.9204 4.26028 18.6028 3.81029 18.1582 3.48103C17.7137 3.15177 17.1632 2.92129 16.5069 2.78958C15.8718 2.65788 15.1944 2.59202 14.4746 2.59202H7.61541L5.74184 11.7125H12.474ZM5.36077 13.6222L3.13789 24.3891H0.978516L5.8371 0.682314H14.7922C17.3114 0.682314 19.1321 1.17621 20.2541 2.16399C21.3973 3.12982 21.7466 4.71027 21.302 6.90534C21.0056 8.39798 20.4658 9.58332 19.6825 10.4614C18.9204 11.3394 17.8195 12.0857 16.3799 12.7003C17.015 12.9418 17.4702 13.293 17.7454 13.754C18.0418 14.2149 18.2217 14.7417 18.2853 15.3344C18.3699 15.9271 18.3699 16.5527 18.2853 17.2112C18.2006 17.8697 18.1053 18.5063 17.9995 19.1209C17.8301 20.0209 17.7031 20.7672 17.6184 21.3599C17.5549 21.9525 17.5231 22.4355 17.5231 22.8086C17.5231 23.1818 17.5549 23.4781 17.6184 23.6976C17.6819 23.8952 17.7772 24.0488 17.9042 24.1586L17.8724 24.3891H15.4908C15.3426 23.972 15.2897 23.4232 15.332 22.7428C15.3743 22.0403 15.4484 21.305 15.5543 20.5367C15.6601 19.7684 15.7766 19.0221 15.9036 18.2977C16.0306 17.5514 16.0941 16.9588 16.0941 16.5197C16.0941 15.8832 15.9883 15.3783 15.7766 15.0051C15.5649 14.61 15.2791 14.3137 14.9192 14.1161C14.5804 13.9186 14.1676 13.7869 13.6807 13.721C13.1938 13.6552 12.6857 13.6222 12.1564 13.6222H5.36077Z" fill="#F4F4F4"/>
<path d="M22.1909 24.3891L27.0495 0.682314H42.2604L41.8793 2.59202H28.8278L27.0495 11.1528H38.8308L38.4497 13.0625H26.6685L24.7314 22.4794H38.1004L37.7194 24.3891H22.1909Z" fill="#F4F4F4"/>
<path d="M53.5568 20.9646C54.6835 20.9646 55.5984 20.836 56.3013 20.5788C57.6348 20.0857 58.3015 19.1693 58.3015 17.8296C58.3015 17.0472 57.9707 16.4416 57.3091 16.0129C56.6476 15.5949 55.6087 15.2251 54.1925 14.9035L51.7736 14.3408C49.3961 13.7835 47.7525 13.1779 46.8429 12.5241C45.3026 11.4309 44.5325 9.72133 44.5325 7.3955C44.5325 5.27331 45.2768 3.51018 46.7653 2.10611C48.2539 0.702036 50.4402 0 53.3242 0C55.7327 0 57.7846 0.664523 59.4799 1.99357C61.1855 3.3119 62.0797 5.23044 62.1624 7.7492H57.5727C57.49 6.32369 56.8905 5.31083 55.7741 4.71061C55.0298 4.31404 54.1047 4.11576 52.9986 4.11576C51.7685 4.11576 50.7865 4.37299 50.0525 4.88746C49.3186 5.40193 48.9516 6.12004 48.9516 7.0418C48.9516 7.88853 49.3134 8.5209 50.037 8.93891C50.5022 9.21758 51.4945 9.54448 53.0141 9.91961L56.9525 10.9003C58.6788 11.329 59.9813 11.9025 60.8599 12.6206C62.2244 13.7353 62.9067 15.3483 62.9067 17.4598C62.9067 19.6249 62.1055 21.4255 60.5033 22.8617C58.9114 24.2872 56.6579 25 53.7429 25C50.7658 25 48.4244 24.298 46.7188 22.8939C45.0132 21.4791 44.1604 19.5391 44.1604 17.074H48.719C48.8638 18.1565 49.148 18.9657 49.5718 19.5016C50.3471 20.477 51.6754 20.9646 53.5568 20.9646Z" fill="#F4F4F4"/>
<path d="M80.0714 24.3891V13.8103H71.1401V24.3891H66.4109V0.691318H71.1401V9.72669H80.0714V0.691318H84.8161V24.3891H80.0714Z" fill="#F4F4F4"/>
<path d="M102.772 19.5177H94.352L92.7705 24.3891H87.7777L95.9336 0.691318H101.33L109.423 24.3891H104.245L102.772 19.5177ZM101.438 15.4341L98.5851 6.10932L95.639 15.4341H101.438Z" fill="#F4F4F4"/>
<path d="M122.045 15.8682H117.192V24.3891H112.447V0.691318H122.402C124.697 0.691318 126.526 1.30225 127.891 2.52412C129.255 3.74598 129.937 5.63773 129.937 8.19936C129.937 10.9968 129.255 12.9743 127.891 14.1318C126.526 15.2894 124.578 15.8682 122.045 15.8682ZM124.278 10.9325C124.898 10.3644 125.208 9.46409 125.208 8.23151C125.208 6.99893 124.893 6.12004 124.262 5.59486C123.642 5.06967 122.769 4.80707 121.642 4.80707H117.192V11.7846H121.642C122.769 11.7846 123.647 11.5005 124.278 10.9325Z" fill="#F4F4F4"/>
<path d="M149.428 14.0354H138.326V20.1286H150.979V24.3891H133.659V0.691318H150.42V4.88746H138.326V9.91961H149.428V14.0354Z" fill="#F4F4F4"/>
<path d="M49.2785 65.28L52.9785 64H54.1785V78H52.7785V65.54L49.6385 66.48L49.2785 65.28ZM58.7154 69.64H61.0754C62.3954 69.64 63.5021 70.0267 64.3954 70.8C65.3154 71.56 65.7754 72.6067 65.7754 73.94C65.7754 75.26 65.3154 76.3133 64.3954 77.1C63.5021 77.86 62.3954 78.24 61.0754 78.24C59.9954 78.24 59.0421 77.98 58.2154 77.46C57.4021 76.9267 56.8554 76.1933 56.5754 75.26L57.7554 74.58C57.9554 75.3133 58.3487 75.88 58.9354 76.28C59.5221 76.68 60.2354 76.88 61.0754 76.88C62.0621 76.88 62.8554 76.62 63.4554 76.1C64.0687 75.5667 64.3754 74.8467 64.3754 73.94C64.3754 73.0333 64.0687 72.32 63.4554 71.8C62.8554 71.2667 62.0621 71 61.0754 71H57.2754L57.7754 64H65.2754V65.32H59.0154L58.7154 69.64ZM76.3855 76.28C75.4655 77.5867 74.1655 78.24 72.4855 78.24C70.8189 78.24 69.5122 77.5867 68.5655 76.28C67.6455 74.96 67.1855 73.2 67.1855 71C67.1855 68.7867 67.6455 67.0333 68.5655 65.74C69.5122 64.42 70.8189 63.76 72.4855 63.76C74.1655 63.76 75.4655 64.42 76.3855 65.74C77.3189 67.0333 77.7855 68.7867 77.7855 71C77.7855 73.2133 77.3189 74.9733 76.3855 76.28ZM69.6055 75.34C70.3122 76.3667 71.2722 76.88 72.4855 76.88C73.7122 76.88 74.6655 76.3667 75.3455 75.34C76.0389 74.3267 76.3855 72.88 76.3855 71C76.3855 69.12 76.0389 67.6733 75.3455 66.66C74.6655 65.6333 73.7122 65.12 72.4855 65.12C71.2722 65.12 70.3122 65.6333 69.6055 66.66C68.9255 67.6867 68.5855 69.1333 68.5855 71C68.5855 72.8667 68.9255 74.3133 69.6055 75.34ZM85.5432 67.76C86.9699 67.76 88.1832 68.2667 89.1832 69.28C90.1965 70.2933 90.7032 71.5333 90.7032 73C90.7032 74.4667 90.1965 75.7067 89.1832 76.72C88.1832 77.7333 86.9699 78.24 85.5432 78.24C83.7699 78.24 82.4232 77.5067 81.5032 76.04V82H80.1832V68H81.5032V69.96C82.4232 68.4933 83.7699 67.76 85.5432 67.76ZM82.6432 75.82C83.4032 76.58 84.3365 76.96 85.4432 76.96C86.5499 76.96 87.4832 76.58 88.2432 75.82C89.0032 75.0333 89.3832 74.0933 89.3832 73C89.3832 71.8933 89.0032 70.96 88.2432 70.2C87.4832 69.4267 86.5499 69.04 85.4432 69.04C84.3365 69.04 83.4032 69.4267 82.6432 70.2C81.8832 70.96 81.5032 71.8933 81.5032 73C81.5032 74.0933 81.8832 75.0333 82.6432 75.82ZM96.6949 72.82L100.595 78H99.0149L95.8949 73.88L92.7749 78H91.1949L95.1149 72.82L91.4549 68H93.0349L95.8949 71.78L98.7549 68H100.335L96.6949 72.82Z" fill="#F4F4F4"/>
<path d="M0.624962 42.6464C0.4297 42.8417 0.4297 43.1583 0.624962 43.3536L3.80694 46.5355C4.0022 46.7308 4.31879 46.7308 4.51405 46.5355C4.70931 46.3403 4.70931 46.0237 4.51405 45.8284L1.68562 43L4.51405 40.1716C4.70931 39.9763 4.70931 39.6597 4.51405 39.4645C4.31879 39.2692 4.0022 39.2692 3.80694 39.4645L0.624962 42.6464ZM151.332 43.3536C151.527 43.1583 151.527 42.8417 151.332 42.6464L148.15 39.4645C147.955 39.2692 147.638 39.2692 147.443 39.4645C147.248 39.6597 147.248 39.9763 147.443 40.1716L150.271 43L147.443 45.8284C147.248 46.0237 147.248 46.3403 147.443 46.5355C147.638 46.7308 147.955 46.7308 148.15 46.5355L151.332 43.3536ZM0.978516 43.5L150.979 43.5V42.5L0.978516 42.5L0.978516 43.5Z" fill="#9780C8"/>
</svg>
