<svg width="301" height="106" viewBox="0 0 301 106" fill="none" xmlns="http://www.w3.org/2000/svg">
<path d="M22.991 22.4881C24.5999 22.4881 26.1242 22.3195 27.5638 21.9823C29.0457 21.6452 30.3582 21.1184 31.5014 20.4019C32.687 19.6433 33.682 18.695 34.4865 17.5571C35.3333 16.4191 35.926 15.0494 36.2648 13.4479C36.6458 11.7621 36.6458 10.3713 36.2648 9.27551C35.8837 8.17973 35.2486 7.31575 34.3594 6.68357C33.4703 6.05139 32.3694 5.60887 31.0569 5.356C29.7866 5.10312 28.4317 4.97669 26.9922 4.97669H13.2738L9.52665 22.4881H22.991ZM8.76451 26.1547L4.31875 46.827H0L9.71718 1.31004H27.6273C32.6658 1.31004 36.3071 2.25831 38.5512 4.15485C40.8376 6.00925 41.5362 9.04371 40.647 13.2582C40.0543 16.1241 38.9746 18.4 37.408 20.0858C35.8837 21.7716 33.682 23.2045 30.8028 24.3846C32.073 24.8482 32.9834 25.5225 33.5338 26.4076C34.1266 27.2926 34.4865 28.3041 34.6135 29.4421C34.7828 30.58 34.7828 31.7811 34.6135 33.0455C34.4441 34.3098 34.2536 35.5321 34.0419 36.7121C33.7032 38.4401 33.4491 39.873 33.2798 41.011C33.1527 42.1489 33.0892 43.0761 33.0892 43.7925C33.0892 44.509 33.1527 45.078 33.2798 45.4994C33.4068 45.8787 33.5973 46.1738 33.8513 46.3845L33.7878 46.827H29.0245C28.7281 46.0262 28.6223 44.9726 28.707 43.6661C28.7916 42.3175 28.9398 40.9056 29.1515 39.4305C29.3632 37.9554 29.5961 36.5225 29.8502 35.1317C30.1042 33.6987 30.2312 32.5608 30.2312 31.7179C30.2312 30.4957 30.0195 29.5263 29.5961 28.8099C29.1727 28.0513 28.6011 27.4823 27.8813 27.103C27.2039 26.7237 26.3782 26.4708 25.4044 26.3444C24.4306 26.2179 23.4144 26.1547 22.3559 26.1547H8.76451Z" fill="#F4F4F4"/>
<path d="M42.4248 46.827L52.142 1.31004H82.5638L81.8016 4.97669H55.6986L52.142 21.4134H75.7046L74.9424 25.08H51.3799L47.5057 43.1604H74.2438L73.4817 46.827H42.4248Z" fill="#F4F4F4"/>
<path d="M105.157 40.2521C107.41 40.2521 109.24 40.0051 110.646 39.5113C113.312 38.5646 114.646 36.8051 114.646 34.2328C114.646 32.7305 113.984 31.5678 112.661 30.7447C111.338 29.9421 109.26 29.2322 106.428 28.6148L101.59 27.5344C96.8352 26.4643 93.548 25.3016 91.7287 24.0463C88.6482 21.9473 87.108 18.665 87.108 14.1994C87.108 10.1248 88.5966 6.73955 91.5736 4.04373C94.5507 1.34791 98.9233 0 104.691 0C109.508 0 113.612 1.27588 117.003 3.82765C120.414 6.35884 122.202 10.0424 122.368 14.8785H113.188C113.023 12.1415 111.824 10.1968 109.591 9.04437C108.103 8.28296 106.252 7.90225 104.04 7.90225C101.58 7.90225 99.6159 8.39614 98.148 9.38392C96.6801 10.3717 95.9462 11.7505 95.9462 13.5203C95.9462 15.146 96.6698 16.3601 98.117 17.1627C99.0473 17.6977 101.032 18.3254 104.071 19.0457L111.948 20.9286C115.401 21.7518 118.006 22.8527 119.763 24.2315C122.492 26.3717 123.856 29.4688 123.856 33.5228C123.856 37.6797 122.254 41.137 119.05 43.8945C115.866 46.6315 111.359 48 105.529 48C99.5745 48 94.8918 46.6521 91.4806 43.9563C88.0694 41.2399 86.3637 37.5151 86.3637 32.782H95.481C95.7705 34.8605 96.339 36.4141 97.1867 37.4431C98.7372 39.3158 101.394 40.2521 105.157 40.2521Z" fill="#F4F4F4"/>
<path d="M158.186 46.827V26.5158H140.323V46.827H130.865V1.32733H140.323V18.6752H158.186V1.32733H167.675V46.827H158.186Z" fill="#F4F4F4"/>
<path d="M203.586 37.474H186.747L183.584 46.827H173.598L189.91 1.32733H200.702L216.89 46.827H206.532L203.586 37.474ZM200.919 29.6334L195.213 11.7299L189.321 29.6334H200.919Z" fill="#F4F4F4"/>
<path d="M242.133 30.4669H232.427V46.827H222.937V1.32733H242.846C247.436 1.32733 251.095 2.50032 253.824 4.8463C256.553 7.19228 257.918 10.8244 257.918 15.7428C257.918 21.1138 256.553 24.9106 253.824 27.1331C251.095 29.3556 247.198 30.4669 242.133 30.4669ZM246.599 20.9904C247.839 19.8997 248.459 18.1711 248.459 15.8045C248.459 13.4379 247.829 11.7505 246.568 10.7421C245.327 9.73376 243.58 9.22958 241.327 9.22958H232.427V22.6264H241.327C243.58 22.6264 245.338 22.081 246.599 20.9904Z" fill="#F4F4F4"/>
<path d="M296.899 26.9479H274.695V38.6469H300V46.827H265.36V1.32733H298.884V9.38392H274.695V19.0457H296.899V26.9479Z" fill="#F4F4F4"/>
<path d="M129.2 88.32L125.94 92.82C127.047 92.9533 127.967 93.3867 128.7 94.12C129.433 94.8133 129.8 95.7533 129.8 96.94C129.8 98.26 129.34 99.3133 128.42 100.1C127.527 100.86 126.42 101.24 125.1 101.24C124.047 101.24 123.113 101 122.3 100.52C121.487 100.027 120.92 99.34 120.6 98.46L121.76 97.78C121.987 98.46 122.387 98.98 122.96 99.34C123.547 99.7 124.26 99.88 125.1 99.88C126.087 99.88 126.88 99.62 127.48 99.1C128.093 98.5667 128.4 97.8467 128.4 96.94C128.4 96.0333 128.093 95.32 127.48 94.8C126.88 94.2667 126.087 94 125.1 94V93.98L125.08 94H124.7L124.1 93.08L127.58 88.32H121V87H129.2V88.32ZM140.805 99.28C139.885 100.587 138.585 101.24 136.905 101.24C135.239 101.24 133.932 100.587 132.985 99.28C132.065 97.96 131.605 96.2 131.605 94C131.605 91.7867 132.065 90.0333 132.985 88.74C133.932 87.42 135.239 86.76 136.905 86.76C138.585 86.76 139.885 87.42 140.805 88.74C141.739 90.0333 142.205 91.7867 142.205 94C142.205 96.2133 141.739 97.9733 140.805 99.28ZM134.025 98.34C134.732 99.3667 135.692 99.88 136.905 99.88C138.132 99.88 139.085 99.3667 139.765 98.34C140.459 97.3267 140.805 95.88 140.805 94C140.805 92.12 140.459 90.6733 139.765 89.66C139.085 88.6333 138.132 88.12 136.905 88.12C135.692 88.12 134.732 88.6333 134.025 89.66C133.345 90.6867 133.005 92.1333 133.005 94C133.005 95.8667 133.345 97.3133 134.025 98.34ZM153.403 99.28C152.483 100.587 151.183 101.24 149.503 101.24C147.836 101.24 146.53 100.587 145.583 99.28C144.663 97.96 144.203 96.2 144.203 94C144.203 91.7867 144.663 90.0333 145.583 88.74C146.53 87.42 147.836 86.76 149.503 86.76C151.183 86.76 152.483 87.42 153.403 88.74C154.336 90.0333 154.803 91.7867 154.803 94C154.803 96.2133 154.336 97.9733 153.403 99.28ZM146.623 98.34C147.33 99.3667 148.29 99.88 149.503 99.88C150.73 99.88 151.683 99.3667 152.363 98.34C153.056 97.3267 153.403 95.88 153.403 94C153.403 92.12 153.056 90.6733 152.363 89.66C151.683 88.6333 150.73 88.12 149.503 88.12C148.29 88.12 147.33 88.6333 146.623 89.66C145.943 90.6867 145.603 92.1333 145.603 94C145.603 95.8667 145.943 97.3133 146.623 98.34ZM162.561 90.76C163.987 90.76 165.201 91.2667 166.201 92.28C167.214 93.2933 167.721 94.5333 167.721 96C167.721 97.4667 167.214 98.7067 166.201 99.72C165.201 100.733 163.987 101.24 162.561 101.24C160.787 101.24 159.441 100.507 158.521 99.04V105H157.201V91H158.521V92.96C159.441 91.4933 160.787 90.76 162.561 90.76ZM159.661 98.82C160.421 99.58 161.354 99.96 162.461 99.96C163.567 99.96 164.501 99.58 165.261 98.82C166.021 98.0333 166.401 97.0933 166.401 96C166.401 94.8933 166.021 93.96 165.261 93.2C164.501 92.4267 163.567 92.04 162.461 92.04C161.354 92.04 160.421 92.4267 159.661 93.2C158.901 93.96 158.521 94.8933 158.521 96C158.521 97.0933 158.901 98.0333 159.661 98.82ZM173.713 95.82L177.613 101H176.033L172.913 96.88L169.793 101H168.213L172.133 95.82L168.472 91H170.053L172.913 94.78L175.773 91H177.353L173.713 95.82Z" fill="#F4F4F4"/>
<path d="M0.646447 65.6464C0.451184 65.8417 0.451184 66.1583 0.646447 66.3536L3.82843 69.5355C4.02369 69.7308 4.34027 69.7308 4.53553 69.5355C4.7308 69.3403 4.7308 69.0237 4.53553 68.8284L1.70711 66L4.53553 63.1716C4.7308 62.9763 4.7308 62.6597 4.53553 62.4645C4.34027 62.2692 4.02369 62.2692 3.82843 62.4645L0.646447 65.6464ZM300.354 66.3536C300.549 66.1583 300.549 65.8417 300.354 65.6464L297.172 62.4645C296.976 62.2692 296.66 62.2692 296.464 62.4645C296.269 62.6597 296.269 62.9763 296.464 63.1716L299.293 66L296.464 68.8284C296.269 69.0237 296.269 69.3403 296.464 69.5355C296.66 69.7308 296.976 69.7308 297.172 69.5355L300.354 66.3536ZM1 66.5H300V65.5H1V66.5Z" fill="#9780C8"/>
</svg>
