<svg width="246" height="155" viewBox="0 0 246 155" fill="none" xmlns="http://www.w3.org/2000/svg">
<rect y="0.733398" width="246" height="154" fill="#9780C8"/>
<path d="M17.24 17.7334H30.68V33.7334H28.568V19.7814H19.352V33.7334H17.24V17.7334ZM48.5543 31.7174C46.9116 33.3174 44.9276 34.1174 42.6023 34.1174C40.2343 34.1174 38.2396 33.3174 36.6183 31.7174C34.9969 30.0961 34.1863 28.1014 34.1863 25.7334C34.1863 23.3654 34.9969 21.3814 36.6183 19.7814C38.2396 18.1601 40.2343 17.3494 42.6023 17.3494C44.9489 17.3494 46.9329 18.1601 48.5543 19.7814C50.1969 21.3814 51.0183 23.3654 51.0183 25.7334C51.0183 28.0801 50.1969 30.0747 48.5543 31.7174ZM38.1223 30.2454C39.3383 31.4614 40.8316 32.0694 42.6023 32.0694C44.3729 32.0694 45.8663 31.4614 47.0823 30.2454C48.2983 28.9867 48.9062 27.4827 48.9062 25.7334C48.9062 23.9627 48.2983 22.4694 47.0823 21.2534C45.8663 20.0161 44.3729 19.3974 42.6023 19.3974C40.8316 19.3974 39.3383 20.0161 38.1223 21.2534C36.9063 22.4694 36.2983 23.9627 36.2983 25.7334C36.2983 27.4827 36.9063 28.9867 38.1223 30.2454ZM67.3675 17.7334V31.6854H69.6075V38.0214H67.4955V33.7334H54.4395V38.0214H52.3275V31.6854H54.2795C55.3675 30.2347 55.9115 28.2187 55.9115 25.6374V17.7334H67.3675ZM56.8395 31.6854H65.2555V19.7814H58.0235V25.6374C58.0235 28.1121 57.6288 30.1281 56.8395 31.6854ZM77.1545 25.4134L85.7305 33.7334H82.9145L74.9145 26.0214V33.7334H72.8025V17.7334H74.9145V24.8054L82.5305 17.7334H85.4105L77.1545 25.4134ZM90.279 17.7334H101.735V33.7334H99.623V19.7814H92.391V26.9174C92.391 29.5841 91.879 31.4187 90.855 32.4214C89.8523 33.4241 88.4657 33.8614 86.695 33.7334V31.7494C87.9323 31.8774 88.839 31.5787 89.415 30.8534C89.991 30.1281 90.279 28.8161 90.279 26.9174V17.7334ZM119.873 17.3494C122.219 17.3494 124.203 18.1601 125.825 19.7814C127.467 21.3814 128.289 23.3654 128.289 25.7334C128.289 28.0801 127.467 30.0747 125.825 31.7174C124.182 33.3174 122.198 34.1174 119.873 34.1174C117.739 34.1174 115.883 33.4241 114.305 32.0374C112.747 30.6081 111.862 28.8481 111.649 26.7574H108.321V33.7334H106.209V17.7334H108.321V24.7094H111.649C111.883 22.5974 112.769 20.8481 114.305 19.4614C115.862 18.0534 117.718 17.3494 119.873 17.3494ZM115.393 30.2454C116.609 31.4614 118.102 32.0694 119.873 32.0694C121.643 32.0694 123.137 31.4614 124.353 30.2454C125.569 28.9867 126.177 27.4827 126.177 25.7334C126.177 23.9627 125.569 22.4694 124.353 21.2534C123.137 20.0161 121.643 19.3974 119.873 19.3974C118.102 19.3974 116.609 20.0161 115.393 21.2534C114.177 22.4694 113.569 23.9627 113.569 25.7334C113.569 27.4827 114.177 28.9867 115.393 30.2454ZM141.858 25.7014V17.7334H143.97V33.7334H141.858V27.6534C140.621 28.2934 139.095 28.6134 137.282 28.6134C135.17 28.6134 133.57 28.1334 132.482 27.1734C131.394 26.1921 130.85 24.7521 130.85 22.8534V17.7334H132.962V22.8534C132.962 24.1761 133.303 25.1361 133.986 25.7334C134.69 26.3307 135.767 26.6294 137.218 26.6294C138.839 26.6294 140.386 26.3201 141.858 25.7014ZM150.571 30.0534L160.107 17.7334H161.899V33.7334H159.787V21.4134L150.251 33.7334H148.459V17.7334H150.571V30.0534ZM164.445 17.7334H177.885V19.7814H172.221V33.7334H170.109V19.7814H164.445V17.7334ZM182.571 23.8134H186.955C188.427 23.8134 189.685 24.2827 190.731 25.2214C191.776 26.1387 192.299 27.3227 192.299 28.7734C192.299 30.2454 191.776 31.4401 190.731 32.3574C189.728 33.2747 188.469 33.7334 186.955 33.7334H180.459V17.7334H182.571V23.8134ZM182.571 31.6854H186.955C187.872 31.6854 188.64 31.4187 189.259 30.8854C189.877 30.3307 190.187 29.6267 190.187 28.7734C190.187 27.9201 189.877 27.2267 189.259 26.6934C188.64 26.1387 187.872 25.8614 186.955 25.8614H182.571V31.6854ZM28.568 56.7094V49.7334H30.68V65.7334H28.568V58.7574H19.352V65.7334H17.24V49.7334H19.352V56.7094H28.568ZM48.5543 63.7174C46.9116 65.3174 44.9276 66.1174 42.6023 66.1174C40.2343 66.1174 38.2396 65.3174 36.6183 63.7174C34.9969 62.0961 34.1863 60.1014 34.1863 57.7334C34.1863 55.3654 34.9969 53.3814 36.6183 51.7814C38.2396 50.1601 40.2343 49.3494 42.6023 49.3494C44.9489 49.3494 46.9329 50.1601 48.5543 51.7814C50.1969 53.3814 51.0183 55.3654 51.0183 57.7334C51.0183 60.0801 50.1969 62.0747 48.5543 63.7174ZM38.1223 62.2454C39.3383 63.4614 40.8316 64.0694 42.6023 64.0694C44.3729 64.0694 45.8663 63.4614 47.0823 62.2454C48.2983 60.9867 48.9062 59.4827 48.9062 57.7334C48.9062 55.9627 48.2983 54.4694 47.0823 53.2534C45.8663 52.0161 44.3729 51.3974 42.6023 51.3974C40.8316 51.3974 39.3383 52.0161 38.1223 53.2534C36.9063 54.4694 36.2983 55.9627 36.2983 57.7334C36.2983 59.4827 36.9063 60.9867 38.1223 62.2454ZM67.3675 49.7334V63.6854H69.6075V70.0214H67.4955V65.7334H54.4395V70.0214H52.3275V63.6854H54.2795C55.3675 62.2347 55.9115 60.2187 55.9115 57.6374V49.7334H67.3675ZM56.8395 63.6854H65.2555V51.7814H58.0235V57.6374C58.0235 60.1121 57.6288 62.1281 56.8395 63.6854ZM74.9145 55.8134H79.2985C80.7705 55.8134 82.0292 56.2827 83.0745 57.2214C84.1198 58.1387 84.6425 59.3227 84.6425 60.7734C84.6425 62.2454 84.1198 63.4401 83.0745 64.3574C82.0718 65.2747 80.8132 65.7334 79.2985 65.7334H72.8025V49.7334H74.9145V55.8134ZM86.8825 65.7334V49.7334H88.9945V65.7334H86.8825ZM74.9145 63.6854H79.2985C80.2158 63.6854 80.9838 63.4187 81.6025 62.8854C82.2212 62.3307 82.5305 61.6267 82.5305 60.7734C82.5305 59.9201 82.2212 59.2267 81.6025 58.6934C80.9838 58.1387 80.2158 57.8614 79.2985 57.8614H74.9145V63.6854Z" fill="#F4F4F4"/>
<path d="M229.709 131.876C230.099 131.486 230.099 130.852 229.709 130.462L223.345 124.098C222.954 123.707 222.321 123.707 221.931 124.098C221.54 124.488 221.54 125.122 221.931 125.512L227.588 131.169L221.931 136.826C221.54 137.216 221.54 137.849 221.931 138.24C222.321 138.631 222.954 138.631 223.345 138.24L229.709 131.876ZM179.223 132.169L229.002 132.169L229.002 130.169L179.223 130.169L179.223 132.169Z" fill="#F4F4F4"/>
</svg>
