<svg width="227" height="37" viewBox="0 0 227 37" fill="none" xmlns="http://www.w3.org/2000/svg">
<path d="M17.4454 17.52C18.6614 17.52 19.8134 17.392 20.9014 17.136C22.0214 16.88 23.0134 16.48 23.8774 15.936C24.7734 15.36 25.5254 14.64 26.1334 13.776C26.7734 12.912 27.2214 11.872 27.4774 10.656C27.7654 9.376 27.7654 8.32 27.4774 7.488C27.1894 6.656 26.7094 6 26.0374 5.52C25.3654 5.04 24.5334 4.704 23.5414 4.512C22.5814 4.32 21.5574 4.224 20.4694 4.224H10.1014L7.26938 17.52H17.4454ZM6.69338 20.304L3.33338 36H0.069378L7.41338 1.44H20.9494C24.7574 1.44 27.5094 2.16 29.2054 3.6C30.9334 5.008 31.4614 7.312 30.7894 10.512C30.3414 12.688 29.5254 14.416 28.3414 15.696C27.1894 16.976 25.5254 18.064 23.3494 18.96C24.3094 19.312 24.9974 19.824 25.4134 20.496C25.8614 21.168 26.1334 21.936 26.2294 22.8C26.3574 23.664 26.3574 24.576 26.2294 25.536C26.1014 26.496 25.9574 27.424 25.7974 28.32C25.5414 29.632 25.3494 30.72 25.2214 31.584C25.1254 32.448 25.0774 33.152 25.0774 33.696C25.0774 34.24 25.1254 34.672 25.2214 34.992C25.3174 35.28 25.4614 35.504 25.6534 35.664L25.6054 36H22.0054C21.7814 35.392 21.7014 34.592 21.7654 33.6C21.8294 32.576 21.9414 31.504 22.1014 30.384C22.2614 29.264 22.4374 28.176 22.6294 27.12C22.8214 26.032 22.9174 25.168 22.9174 24.528C22.9174 23.6 22.7574 22.864 22.4374 22.32C22.1174 21.744 21.6854 21.312 21.1414 21.024C20.6294 20.736 20.0054 20.544 19.2694 20.448C18.5334 20.352 17.7654 20.304 16.9654 20.304H6.69338ZM32.133 36L39.477 1.44H62.469L61.893 4.224H42.165L39.477 16.704H57.285L56.709 19.488H38.901L35.973 33.216H56.181L55.605 36H32.133ZM79.5441 31.0078C81.2472 31.0078 82.63 30.8203 83.6925 30.4453C85.7081 29.7266 86.7159 28.3906 86.7159 26.4375C86.7159 25.2969 86.2159 24.4141 85.2159 23.7891C84.2159 23.1797 82.6456 22.6406 80.505 22.1719L76.8488 21.3516C73.255 20.5391 70.7706 19.6562 69.3956 18.7031C67.0675 17.1094 65.9034 14.6172 65.9034 11.2266C65.9034 8.13281 67.0284 5.5625 69.2784 3.51562C71.5284 1.46875 74.8331 0.445312 79.1925 0.445312C82.8331 0.445312 85.9347 1.41406 88.4972 3.35156C91.0753 5.27344 92.4269 8.07031 92.5519 11.7422H85.6144C85.4894 9.66406 84.5831 8.1875 82.8956 7.3125C81.7706 6.73437 80.3722 6.44531 78.7003 6.44531C76.8409 6.44531 75.3566 6.82031 74.2472 7.57031C73.1378 8.32031 72.5831 9.36719 72.5831 10.7109C72.5831 11.9453 73.13 12.8672 74.2238 13.4766C74.9269 13.8828 76.4269 14.3594 78.7238 14.9062L84.6769 16.3359C87.2863 16.9609 89.255 17.7969 90.5831 18.8438C92.6456 20.4688 93.6769 22.8203 93.6769 25.8984C93.6769 29.0547 92.4659 31.6797 90.0441 33.7734C87.6378 35.8516 84.2316 36.8906 79.8253 36.8906C75.3253 36.8906 71.7863 35.8672 69.2081 33.8203C66.63 31.7578 65.3409 28.9297 65.3409 25.3359H72.2316C72.4503 26.9141 72.88 28.0938 73.5206 28.875C74.6925 30.2969 76.7003 31.0078 79.5441 31.0078ZM119.622 36V20.5781H106.122V36H98.9738V1.45312H106.122V14.625H119.622V1.45312H126.794V36H119.622ZM153.935 28.8984H141.208L138.818 36H131.271L143.599 1.45312H151.755L163.989 36H156.161L153.935 28.8984ZM151.919 22.9453L147.607 9.35156L143.153 22.9453H151.919ZM183.068 23.5781H175.732V36H168.56V1.45312H183.607C187.075 1.45312 189.841 2.34375 191.903 4.125C193.966 5.90625 194.997 8.66406 194.997 12.3984C194.997 16.4766 193.966 19.3594 191.903 21.0469C189.841 22.7344 186.896 23.5781 183.068 23.5781ZM186.443 16.3828C187.38 15.5547 187.849 14.2422 187.849 12.4453C187.849 10.6484 187.372 9.36719 186.419 8.60156C185.482 7.83594 184.161 7.45312 182.458 7.45312H175.732V17.625H182.458C184.161 17.625 185.489 17.2109 186.443 16.3828ZM224.458 20.9062H207.677V29.7891H226.802V36H200.622V1.45312H225.958V7.57031H207.677V14.9062H224.458V20.9062Z" fill="#F4F4F4"/>
</svg>
