<svg width="1388" height="260" viewBox="0 0 1388 260" fill="none" xmlns="http://www.w3.org/2000/svg">
<mask id="path-1-outside-1_225_517" maskUnits="userSpaceOnUse" x="0" y="0" width="1388" height="260" fill="black">
<rect fill="white" width="1388" height="260"/>
<path d="M60.3771 63.8216H124.876C145.202 63.8216 158.806 65.7398 165.527 69.5762C172.249 73.4126 175.61 80.1264 175.61 89.7175C175.61 99.6283 172.089 106.662 164.887 110.978C157.685 115.294 145.202 117.532 127.436 117.532H60.3771V63.8216ZM60.3771 253.085V165.967H128.877C145.202 165.967 156.245 169.323 161.846 176.037C167.448 182.751 170.169 196.978 170.169 218.717V234.703C170.169 241.736 171.769 247.97 174.97 253.085H241.549C234.507 244.933 230.346 226.23 229.066 196.978C228.906 194.26 228.906 192.022 228.746 190.424C227.945 174.119 225.545 162.77 221.384 156.216C217.062 149.822 209.7 144.387 199.297 140.071C211.621 135.435 221.224 127.762 228.266 117.052C235.148 106.342 238.669 94.1933 238.669 80.2862C238.669 36.8067 209.7 16.6654 146.482 16.6654H1V253.085H60.3771Z"/>
<path d="M491.862 253.085V203.372H341.098V152.539H475.377V104.424H341.098V64.461H491.862V16.6654H281.721V253.085H491.862Z"/>
<path d="M520.19 167.565C519.71 173.959 519.55 178.595 519.55 181.312C519.55 233.743 543.557 259 593.011 259C640.545 259 667.112 233.743 667.112 188.985C667.112 172.52 663.911 159.093 657.509 148.383C651.108 137.833 638.944 126.643 620.859 114.654L595.572 97.5502L595.091 97.2305C576.206 84.6022 566.763 73.2528 566.763 62.8625C566.763 47.5167 575.726 38.4052 590.45 38.4052C610.456 38.4052 618.618 48.9554 618.618 75.6506V82.2045H662.151C662.311 80.2862 662.471 78.0483 662.471 73.4126C662.471 26.7361 637.344 1 591.73 1C570.124 1 553.319 6.9145 540.996 18.5836C528.672 30.2528 522.591 46.5576 522.591 67.1784C522.591 81.0855 525.311 92.5948 530.913 101.706C536.354 110.818 549.158 122.487 569.484 136.554L593.011 153.178C604.694 161.491 612.376 168.204 615.897 173.48C619.418 178.755 621.179 185.149 621.179 192.502C621.179 211.684 610.776 221.595 591.41 221.595C582.128 221.595 575.566 218.877 571.885 213.283C568.044 207.848 566.123 197.617 566.123 182.431V166.606H520.19V167.565Z"/>
<path d="M750.016 253.085V141.509H812.914V253.085H858.527V6.9145H812.914V103.465H750.016V6.9145H704.403V253.085H750.016Z"/>
<path d="M967.839 51.0335L987.525 154.297H948.473L967.839 51.0335ZM929.428 253.085L941.271 191.223H994.087L1006.25 253.085H1055.7L999.688 6.9145H938.07L882.534 253.085H929.428Z"/>
<path d="M1124.2 41.2825H1144.05C1158.93 41.2825 1169.02 43.8401 1174.3 49.1152C1179.58 54.3903 1182.14 63.9814 1182.14 77.5688C1182.14 91.1561 1179.26 100.587 1173.5 106.182C1167.74 111.777 1157.65 114.654 1143.41 114.654H1124.2V41.2825ZM1125.48 253.085V148.703H1158.93C1205.67 148.703 1228.07 125.204 1228.07 76.6097C1228.07 51.8327 1222.79 34.0892 1212.07 23.2193C1201.35 12.3494 1183.9 6.9145 1159.57 6.9145H1079.87V253.085H1125.48Z"/>
<path d="M1387 253.085V211.524H1304.1V143.747H1379.48V104.743H1304.1V47.8364H1385.08V6.9145H1258.48V253.085H1387Z"/>
</mask>
<path d="M60.3771 63.8216H124.876C145.202 63.8216 158.806 65.7398 165.527 69.5762C172.249 73.4126 175.61 80.1264 175.61 89.7175C175.61 99.6283 172.089 106.662 164.887 110.978C157.685 115.294 145.202 117.532 127.436 117.532H60.3771V63.8216ZM60.3771 253.085V165.967H128.877C145.202 165.967 156.245 169.323 161.846 176.037C167.448 182.751 170.169 196.978 170.169 218.717V234.703C170.169 241.736 171.769 247.97 174.97 253.085H241.549C234.507 244.933 230.346 226.23 229.066 196.978C228.906 194.26 228.906 192.022 228.746 190.424C227.945 174.119 225.545 162.77 221.384 156.216C217.062 149.822 209.7 144.387 199.297 140.071C211.621 135.435 221.224 127.762 228.266 117.052C235.148 106.342 238.669 94.1933 238.669 80.2862C238.669 36.8067 209.7 16.6654 146.482 16.6654H1V253.085H60.3771Z" fill="#F4F4F4"/>
<path d="M491.862 253.085V203.372H341.098V152.539H475.377V104.424H341.098V64.461H491.862V16.6654H281.721V253.085H491.862Z" fill="#F4F4F4"/>
<path d="M520.19 167.565C519.71 173.959 519.55 178.595 519.55 181.312C519.55 233.743 543.557 259 593.011 259C640.545 259 667.112 233.743 667.112 188.985C667.112 172.52 663.911 159.093 657.509 148.383C651.108 137.833 638.944 126.643 620.859 114.654L595.572 97.5502L595.091 97.2305C576.206 84.6022 566.763 73.2528 566.763 62.8625C566.763 47.5167 575.726 38.4052 590.45 38.4052C610.456 38.4052 618.618 48.9554 618.618 75.6506V82.2045H662.151C662.311 80.2862 662.471 78.0483 662.471 73.4126C662.471 26.7361 637.344 1 591.73 1C570.124 1 553.319 6.9145 540.996 18.5836C528.672 30.2528 522.591 46.5576 522.591 67.1784C522.591 81.0855 525.311 92.5948 530.913 101.706C536.354 110.818 549.158 122.487 569.484 136.554L593.011 153.178C604.694 161.491 612.376 168.204 615.897 173.48C619.418 178.755 621.179 185.149 621.179 192.502C621.179 211.684 610.776 221.595 591.41 221.595C582.128 221.595 575.566 218.877 571.885 213.283C568.044 207.848 566.123 197.617 566.123 182.431V166.606H520.19V167.565Z" fill="#F4F4F4"/>
<path d="M750.016 253.085V141.509H812.914V253.085H858.527V6.9145H812.914V103.465H750.016V6.9145H704.403V253.085H750.016Z" fill="#F4F4F4"/>
<path d="M967.839 51.0335L987.525 154.297H948.473L967.839 51.0335ZM929.428 253.085L941.271 191.223H994.087L1006.25 253.085H1055.7L999.688 6.9145H938.07L882.534 253.085H929.428Z" fill="#F4F4F4"/>
<path d="M1124.2 41.2825H1144.05C1158.93 41.2825 1169.02 43.8401 1174.3 49.1152C1179.58 54.3903 1182.14 63.9814 1182.14 77.5688C1182.14 91.1561 1179.26 100.587 1173.5 106.182C1167.74 111.777 1157.65 114.654 1143.41 114.654H1124.2V41.2825ZM1125.48 253.085V148.703H1158.93C1205.67 148.703 1228.07 125.204 1228.07 76.6097C1228.07 51.8327 1222.79 34.0892 1212.07 23.2193C1201.35 12.3494 1183.9 6.9145 1159.57 6.9145H1079.87V253.085H1125.48Z" fill="#F4F4F4"/>
<path d="M1387 253.085V211.524H1304.1V143.747H1379.48V104.743H1304.1V47.8364H1385.08V6.9145H1258.48V253.085H1387Z" fill="#F4F4F4"/>
<path d="M60.3771 63.8216H124.876C145.202 63.8216 158.806 65.7398 165.527 69.5762C172.249 73.4126 175.61 80.1264 175.61 89.7175C175.61 99.6283 172.089 106.662 164.887 110.978C157.685 115.294 145.202 117.532 127.436 117.532H60.3771V63.8216ZM60.3771 253.085V165.967H128.877C145.202 165.967 156.245 169.323 161.846 176.037C167.448 182.751 170.169 196.978 170.169 218.717V234.703C170.169 241.736 171.769 247.97 174.97 253.085H241.549C234.507 244.933 230.346 226.23 229.066 196.978C228.906 194.26 228.906 192.022 228.746 190.424C227.945 174.119 225.545 162.77 221.384 156.216C217.062 149.822 209.7 144.387 199.297 140.071C211.621 135.435 221.224 127.762 228.266 117.052C235.148 106.342 238.669 94.1933 238.669 80.2862C238.669 36.8067 209.7 16.6654 146.482 16.6654H1V253.085H60.3771Z" stroke="#3C87B1" stroke-width="2" mask="url(#path-1-outside-1_225_517)"/>
<path d="M491.862 253.085V203.372H341.098V152.539H475.377V104.424H341.098V64.461H491.862V16.6654H281.721V253.085H491.862Z" stroke="#3C87B1" stroke-width="2" mask="url(#path-1-outside-1_225_517)"/>
<path d="M520.19 167.565C519.71 173.959 519.55 178.595 519.55 181.312C519.55 233.743 543.557 259 593.011 259C640.545 259 667.112 233.743 667.112 188.985C667.112 172.52 663.911 159.093 657.509 148.383C651.108 137.833 638.944 126.643 620.859 114.654L595.572 97.5502L595.091 97.2305C576.206 84.6022 566.763 73.2528 566.763 62.8625C566.763 47.5167 575.726 38.4052 590.45 38.4052C610.456 38.4052 618.618 48.9554 618.618 75.6506V82.2045H662.151C662.311 80.2862 662.471 78.0483 662.471 73.4126C662.471 26.7361 637.344 1 591.73 1C570.124 1 553.319 6.9145 540.996 18.5836C528.672 30.2528 522.591 46.5576 522.591 67.1784C522.591 81.0855 525.311 92.5948 530.913 101.706C536.354 110.818 549.158 122.487 569.484 136.554L593.011 153.178C604.694 161.491 612.376 168.204 615.897 173.48C619.418 178.755 621.179 185.149 621.179 192.502C621.179 211.684 610.776 221.595 591.41 221.595C582.128 221.595 575.566 218.877 571.885 213.283C568.044 207.848 566.123 197.617 566.123 182.431V166.606H520.19V167.565Z" stroke="#3C87B1" stroke-width="2" mask="url(#path-1-outside-1_225_517)"/>
<path d="M750.016 253.085V141.509H812.914V253.085H858.527V6.9145H812.914V103.465H750.016V6.9145H704.403V253.085H750.016Z" stroke="#3C87B1" stroke-width="2" mask="url(#path-1-outside-1_225_517)"/>
<path d="M967.839 51.0335L987.525 154.297H948.473L967.839 51.0335ZM929.428 253.085L941.271 191.223H994.087L1006.25 253.085H1055.7L999.688 6.9145H938.07L882.534 253.085H929.428Z" stroke="#3C87B1" stroke-width="2" mask="url(#path-1-outside-1_225_517)"/>
<path d="M1124.2 41.2825H1144.05C1158.93 41.2825 1169.02 43.8401 1174.3 49.1152C1179.58 54.3903 1182.14 63.9814 1182.14 77.5688C1182.14 91.1561 1179.26 100.587 1173.5 106.182C1167.74 111.777 1157.65 114.654 1143.41 114.654H1124.2V41.2825ZM1125.48 253.085V148.703H1158.93C1205.67 148.703 1228.07 125.204 1228.07 76.6097C1228.07 51.8327 1222.79 34.0892 1212.07 23.2193C1201.35 12.3494 1183.9 6.9145 1159.57 6.9145H1079.87V253.085H1125.48Z" stroke="#3C87B1" stroke-width="2" mask="url(#path-1-outside-1_225_517)"/>
<path d="M1387 253.085V211.524H1304.1V143.747H1379.48V104.743H1304.1V47.8364H1385.08V6.9145H1258.48V253.085H1387Z" stroke="#3C87B1" stroke-width="2" mask="url(#path-1-outside-1_225_517)"/>
</svg>
