<svg width="246" height="155" viewBox="0 0 246 155" fill="none" xmlns="http://www.w3.org/2000/svg">
<rect y="0.733398" width="246" height="154" fill="#9780C8"/>
<path d="M25.816 14.3494C28.0987 14.3494 30.04 15.1601 31.64 16.7814C33.2613 18.4027 34.072 20.3867 34.072 22.7334C34.072 25.0801 33.2613 27.0641 31.64 28.6854C30.04 30.3067 28.0987 31.1174 25.816 31.1174C22.9787 31.1174 20.824 29.9441 19.352 27.5974V37.1334H17.24V14.7334H19.352V17.8694C20.824 15.5227 22.9787 14.3494 25.816 14.3494ZM21.176 27.2454C22.392 28.4614 23.8853 29.0694 25.656 29.0694C27.4267 29.0694 28.92 28.4614 30.136 27.2454C31.352 25.9867 31.96 24.4827 31.96 22.7334C31.96 20.9627 31.352 19.4694 30.136 18.2534C28.92 17.0161 27.4267 16.3974 25.656 16.3974C23.8853 16.3974 22.392 17.0161 21.176 18.2534C19.96 19.4694 19.352 20.9627 19.352 22.7334C19.352 24.4827 19.96 25.9867 21.176 27.2454ZM39.6958 27.0534L49.2318 14.7334H51.0238V30.7334H48.9118V18.4134L39.3758 30.7334H37.5838V14.7334H39.6958V27.0534ZM55.49 14.7334H65.73V16.7814H57.602V30.7334H55.49V14.7334ZM68.3025 14.7334H78.5425V16.7814H70.4145V30.7334H68.3025V14.7334ZM83.227 27.0534L92.763 14.7334H94.555V30.7334H92.443V18.4134L82.907 30.7334H81.115V14.7334H83.227V27.0534ZM110.349 21.7094V14.7334H112.461V30.7334H110.349V23.7574H101.133V30.7334H99.0213V14.7334H101.133V21.7094H110.349ZM116.928 14.7334H127.168V16.7814H119.04V30.7334H116.928V14.7334ZM146.316 14.3494C148.599 14.3494 150.54 15.1601 152.14 16.7814C153.761 18.4027 154.572 20.3867 154.572 22.7334C154.572 25.0801 153.761 27.0641 152.14 28.6854C150.54 30.3067 148.599 31.1174 146.316 31.1174C143.479 31.1174 141.324 29.9441 139.852 27.5974V37.1334H137.74V14.7334H139.852V17.8694C141.324 15.5227 143.479 14.3494 146.316 14.3494ZM141.676 27.2454C142.892 28.4614 144.385 29.0694 146.156 29.0694C147.927 29.0694 149.42 28.4614 150.636 27.2454C151.852 25.9867 152.46 24.4827 152.46 22.7334C152.46 20.9627 151.852 19.4694 150.636 18.2534C149.42 17.0161 147.927 16.3974 146.156 16.3974C144.385 16.3974 142.892 17.0161 141.676 18.2534C140.46 19.4694 139.852 20.9627 139.852 22.7334C139.852 24.4827 140.46 25.9867 141.676 27.2454ZM163.795 28.1414L168.979 14.7334H171.219L164.371 32.2054C163.731 33.8267 162.835 35.0747 161.683 35.9494C160.552 36.8454 159.293 37.2401 157.907 37.1334V35.1494C159.827 35.3841 161.288 34.2747 162.291 31.8214L162.707 30.8294L155.539 14.7334H157.779L163.795 28.1414ZM178.123 22.4134L186.699 30.7334H183.883L175.883 23.0214V30.7334H173.771V14.7334H175.883V21.8054L183.499 14.7334H186.379L178.123 22.4134ZM191.696 27.0534L201.232 14.7334H203.024V30.7334H200.912V18.4134L191.376 30.7334H189.584V14.7334H191.696V27.0534Z" fill="#F4F4F4"/>
<path d="M229.709 131.876C230.099 131.486 230.099 130.852 229.709 130.462L223.345 124.098C222.954 123.707 222.321 123.707 221.931 124.098C221.54 124.488 221.54 125.122 221.931 125.512L227.588 131.169L221.931 136.826C221.54 137.216 221.54 137.849 221.931 138.24C222.321 138.631 222.954 138.631 223.345 138.24L229.709 131.876ZM179.223 132.169L229.002 132.169L229.002 130.169L179.223 130.169L179.223 132.169Z" fill="#F4F4F4"/>
</svg>
