<svg width="152" height="26" viewBox="0 0 152 26" fill="none" xmlns="http://www.w3.org/2000/svg">
<path d="M12.144 12.1321C12.9547 12.1321 13.7227 12.0468 14.448 11.8761C15.1947 11.7055 15.856 11.4388 16.432 11.0761C17.0293 10.6921 17.5307 10.2121 17.936 9.63615C18.3627 9.06015 18.6613 8.36681 18.832 7.55615C19.024 6.70281 19.024 5.99881 18.832 5.44415C18.64 4.88948 18.32 4.45215 17.872 4.13215C17.424 3.81215 16.8693 3.58815 16.208 3.46015C15.568 3.33215 14.8853 3.26815 14.16 3.26815H7.248L5.36 12.1321H12.144ZM4.976 13.9881L2.736 24.4521H0.56L5.456 1.41215H14.48C17.0187 1.41215 18.8533 1.89215 19.984 2.85215C21.136 3.79081 21.488 5.32681 21.04 7.46015C20.7413 8.91081 20.1973 10.0628 19.408 10.9161C18.64 11.7695 17.5307 12.4948 16.08 13.0921C16.72 13.3268 17.1787 13.6681 17.456 14.1161C17.7547 14.5641 17.936 15.0761 18 15.6521C18.0853 16.2281 18.0853 16.8361 18 17.4761C17.9147 18.1161 17.8187 18.7348 17.712 19.3321C17.5413 20.2068 17.4133 20.9321 17.328 21.5081C17.264 22.0841 17.232 22.5535 17.232 22.9161C17.232 23.2788 17.264 23.5668 17.328 23.7801C17.392 23.9721 17.488 24.1215 17.616 24.2281L17.584 24.4521H15.184C15.0347 24.0468 14.9813 23.5135 15.024 22.8521C15.0667 22.1695 15.1413 21.4548 15.248 20.7081C15.3547 19.9615 15.472 19.2361 15.6 18.5321C15.728 17.8068 15.792 17.2308 15.792 16.8041C15.792 16.1855 15.6853 15.6948 15.472 15.3321C15.2587 14.9481 14.9707 14.6601 14.608 14.4681C14.2667 14.2761 13.8507 14.1481 13.36 14.0841C12.8693 14.0201 12.3573 13.9881 11.824 13.9881H4.976ZM21.9358 24.4521L26.8318 1.41215H42.1598L41.7758 3.26815H28.6238L26.8318 11.5881H38.7038L38.3198 13.4441H26.4478L24.4958 22.5961H37.9678L37.5838 24.4521H21.9358ZM53.5431 21.124C54.6785 21.124 55.6004 20.999 56.3088 20.749C57.6525 20.2699 58.3244 19.3792 58.3244 18.0771C58.3244 17.3167 57.991 16.7282 57.3244 16.3115C56.6577 15.9053 55.6108 15.5459 54.1838 15.2334L51.7463 14.6865C49.3504 14.1449 47.6942 13.5563 46.7775 12.9209C45.2254 11.8584 44.4494 10.1969 44.4494 7.93652C44.4494 5.87402 45.1994 4.16048 46.6994 2.7959C48.1994 1.43132 50.4025 0.749023 53.3088 0.749023C55.7358 0.749023 57.8035 1.39486 59.5119 2.68652C61.2306 3.96777 62.1317 5.83236 62.215 8.28027H57.59C57.5067 6.89486 56.9025 5.91048 55.7775 5.32715C55.0275 4.94173 54.0952 4.74902 52.9806 4.74902C51.741 4.74902 50.7515 4.99902 50.0119 5.49902C49.2723 5.99902 48.9025 6.69694 48.9025 7.59277C48.9025 8.41569 49.2671 9.03027 49.9963 9.43652C50.465 9.70736 51.465 10.0251 52.9963 10.3896L56.965 11.3428C58.7046 11.7594 60.0171 12.3167 60.9025 13.0146C62.2775 14.098 62.965 15.6657 62.965 17.7178C62.965 19.8219 62.1577 21.5719 60.5431 22.9678C58.939 24.3532 56.6681 25.0459 53.7306 25.0459C50.7306 25.0459 48.3713 24.3636 46.6525 22.999C44.9338 21.624 44.0744 19.7386 44.0744 17.3428H48.6681C48.814 18.3949 49.1004 19.1813 49.5275 19.7021C50.3088 20.6501 51.6473 21.124 53.5431 21.124ZM80.2619 24.4521V14.1709H71.2619V24.4521H66.4962V1.4209H71.2619V10.2021H80.2619V1.4209H85.0431V24.4521H80.2619ZM103.137 19.7178H94.6525L93.0587 24.4521H88.0275L96.2462 1.4209H101.684L109.84 24.4521H104.621L103.137 19.7178ZM101.793 15.749L98.9181 6.68652L95.9494 15.749H101.793ZM122.559 16.1709H117.668V24.4521H112.887V1.4209H122.918C125.231 1.4209 127.074 2.01465 128.449 3.20215C129.824 4.38965 130.512 6.22819 130.512 8.71777C130.512 11.4365 129.824 13.3584 128.449 14.4834C127.074 15.6084 125.111 16.1709 122.559 16.1709ZM124.809 11.374C125.434 10.8219 125.746 9.94694 125.746 8.74902C125.746 7.55111 125.429 6.69694 124.793 6.18652C124.168 5.67611 123.288 5.4209 122.152 5.4209H117.668V12.2021H122.152C123.288 12.2021 124.173 11.9261 124.809 11.374ZM150.152 14.3896H138.965V20.3115H151.715V24.4521H134.262V1.4209H151.152V5.49902H138.965V10.3896H150.152V14.3896Z" fill="#F4F4F4"/>
</svg>
