<svg width="41" height="35" viewBox="0 0 41 35" fill="none" xmlns="http://www.w3.org/2000/svg">
<path d="M29.1298 8.19841L9.3744 19.4901C8.96663 19.7232 8.46261 19.708 8.06961 19.4508L1.8589 15.3862C0.985642 14.8147 1.15585 13.488 2.14509 13.1555L37.6321 1.22587C38.5817 0.906631 39.5023 1.77839 39.2351 2.744L30.7645 33.3631C30.6757 33.6842 30.4928 33.871 30.3269 33.9489C30.1768 34.0193 29.9819 34.0313 29.7481 33.8843C26.7703 32.0124 20.9277 27.3002 17.4232 23.8633C16.974 23.4228 16.9723 22.6973 17.4436 22.2331C19.6774 20.0326 22.799 17.0739 25.4874 14.5357C25.9575 14.0919 26.4152 13.6601 26.853 13.2471C28.9043 11.3121 30.5194 9.78852 30.93 9.36218C31.0731 9.21359 31.1915 9.08067 31.2825 8.96328C31.3565 8.86776 31.4726 8.70838 31.5281 8.51835C31.5562 8.42211 31.6024 8.20628 31.5006 7.96489C31.3811 7.68158 31.1422 7.55125 30.9655 7.50552C30.8123 7.46586 30.6794 7.47879 30.6116 7.48837C30.5333 7.49943 30.4627 7.51832 30.4073 7.53559C30.2015 7.59964 29.9595 7.72069 29.7559 7.83106C29.5433 7.94635 29.3209 8.07872 29.1298 8.19841ZM30.1266 8.00353C30.1281 8.00088 30.129 7.99951 30.1291 7.99948C30.1291 7.99946 30.1284 8.00078 30.1266 8.00353Z" stroke="black" stroke-width="1.5"/>
</svg>
