<svg width="246" height="155" viewBox="0 0 246 155" fill="none" xmlns="http://www.w3.org/2000/svg">
<rect y="0.733398" width="246" height="154" fill="#9780C8"/>
<path d="M24.09 32.0934C21.83 32.0934 19.95 31.3434 18.45 29.8434C16.95 28.3034 16.2 26.4334 16.2 24.2334C16.2 22.0134 16.95 20.1534 18.45 18.6534C19.95 17.1334 21.83 16.3734 24.09 16.3734C25.57 16.3734 26.9 16.7334 28.08 17.4534C29.26 18.1534 30.12 19.1034 30.66 20.3034L29.04 21.2334C28.64 20.3334 27.99 19.6234 27.09 19.1034C26.21 18.5634 25.21 18.2934 24.09 18.2934C22.43 18.2934 21.03 18.8734 19.89 20.0334C18.75 21.1734 18.18 22.5734 18.18 24.2334C18.18 25.8734 18.75 27.2834 19.89 28.4634C21.03 29.6034 22.43 30.1734 24.09 30.1734C25.19 30.1734 26.18 29.9134 27.06 29.3934C27.96 28.8734 28.66 28.1534 29.16 27.2334L30.81 28.1934C30.19 29.3934 29.28 30.3434 28.08 31.0434C26.88 31.7434 25.55 32.0934 24.09 32.0934ZM43.1927 24.0234C44.8327 24.6234 45.6527 25.7934 45.6527 27.5334C45.6527 28.7734 45.2327 29.7834 44.3927 30.5634C43.5727 31.3434 42.4227 31.7334 40.9427 31.7334H33.6527V16.7334H40.3427C41.7827 16.7334 42.9027 17.1034 43.7027 17.8434C44.5227 18.5834 44.9327 19.5534 44.9327 20.7534C44.9327 22.2534 44.3527 23.3434 43.1927 24.0234ZM40.3427 18.6534H35.6327V23.2134H40.3427C42.0827 23.2134 42.9527 22.4334 42.9527 20.8734C42.9527 20.1734 42.7227 19.6334 42.2627 19.2534C41.8227 18.8534 41.1827 18.6534 40.3427 18.6534ZM35.6327 29.8134H40.9427C41.8227 29.8134 42.4927 29.6034 42.9527 29.1834C43.4327 28.7634 43.6727 28.1734 43.6727 27.4134C43.6727 26.6934 43.4327 26.1334 42.9527 25.7334C42.4927 25.3334 41.8227 25.1334 40.9427 25.1334H35.6327V29.8134ZM55.5827 16.3734C57.8227 16.3734 59.6127 17.1634 60.9527 18.7434C62.3327 20.3034 63.0227 22.1534 63.0227 24.2934C63.0227 24.3934 63.0027 24.7034 62.9627 25.2234H49.7927C49.9927 26.7234 50.6327 27.9234 51.7127 28.8234C52.7927 29.7234 54.1427 30.1734 55.7627 30.1734C58.0427 30.1734 59.6527 29.3234 60.5927 27.6234L62.3327 28.6434C61.6727 29.7234 60.7627 30.5734 59.6027 31.1934C58.4627 31.7934 57.1727 32.0934 55.7327 32.0934C53.3727 32.0934 51.4527 31.3534 49.9727 29.8734C48.4927 28.3934 47.7527 26.5134 47.7527 24.2334C47.7527 21.9734 48.4827 20.1034 49.9427 18.6234C51.4027 17.1234 53.2827 16.3734 55.5827 16.3734ZM55.5827 18.2934C54.0227 18.2934 52.7127 18.7534 51.6527 19.6734C50.6127 20.5934 49.9927 21.8034 49.7927 23.3034H60.9827C60.7627 21.7034 60.1527 20.4734 59.1527 19.6134C58.1127 18.7334 56.9227 18.2934 55.5827 18.2934ZM63.7863 16.7334H76.3863V18.6534H71.0763V31.7334H69.0963V18.6534H63.7863V16.7334ZM82.601 16.7334H88.691V31.7334H86.711V25.9734H84.131L79.511 31.7334H76.991L81.731 25.9134C80.511 25.7334 79.511 25.2334 78.731 24.4134C77.971 23.5734 77.591 22.5634 77.591 21.3834C77.591 20.0434 78.071 18.9334 79.031 18.0534C80.031 17.1734 81.221 16.7334 82.601 16.7334ZM82.601 24.1134H86.711V18.6534H82.601C81.741 18.6534 81.021 18.9134 80.441 19.4334C79.861 19.9334 79.571 20.5834 79.571 21.3834C79.571 22.1834 79.861 22.8434 80.441 23.3634C81.021 23.8634 81.741 24.1134 82.601 24.1134ZM112.991 16.7334V29.8134H115.091V35.7534H113.111V31.7334H92.891V16.7334H94.871V29.8134H101.951V16.7334H103.931V29.8134H111.011V16.7334H112.991ZM120.066 28.2834L129.006 16.7334H130.686V31.7334H128.706V20.1834L119.766 31.7334H118.086V16.7334H120.066V28.2834ZM141.803 16.3734C144.043 16.3734 145.833 17.1634 147.173 18.7434C148.553 20.3034 149.243 22.1534 149.243 24.2934C149.243 24.3934 149.223 24.7034 149.183 25.2234H136.013C136.213 26.7234 136.853 27.9234 137.933 28.8234C139.013 29.7234 140.363 30.1734 141.983 30.1734C144.263 30.1734 145.873 29.3234 146.813 27.6234L148.553 28.6434C147.893 29.7234 146.983 30.5734 145.823 31.1934C144.683 31.7934 143.393 32.0934 141.953 32.0934C139.593 32.0934 137.673 31.3534 136.193 29.8734C134.713 28.3934 133.973 26.5134 133.973 24.2334C133.973 21.9734 134.703 20.1034 136.163 18.6234C137.623 17.1234 139.503 16.3734 141.803 16.3734ZM141.803 18.2934C140.243 18.2934 138.933 18.7534 137.873 19.6734C136.833 20.5934 136.213 21.8034 136.013 23.3034H147.203C146.983 21.7034 146.373 20.4734 145.373 19.6134C144.333 18.7334 143.143 18.2934 141.803 18.2934ZM159.383 32.0934C157.123 32.0934 155.243 31.3434 153.743 29.8434C152.243 28.3034 151.493 26.4334 151.493 24.2334C151.493 22.0134 152.243 20.1534 153.743 18.6534C155.243 17.1334 157.123 16.3734 159.383 16.3734C160.863 16.3734 162.193 16.7334 163.373 17.4534C164.553 18.1534 165.413 19.1034 165.953 20.3034L164.333 21.2334C163.933 20.3334 163.283 19.6234 162.383 19.1034C161.503 18.5634 160.503 18.2934 159.383 18.2934C157.723 18.2934 156.323 18.8734 155.183 20.0334C154.043 21.1734 153.473 22.5734 153.473 24.2334C153.473 25.8734 154.043 27.2834 155.183 28.4634C156.323 29.6034 157.723 30.1734 159.383 30.1734C160.483 30.1734 161.473 29.9134 162.353 29.3934C163.253 28.8734 163.953 28.1534 164.453 27.2334L166.103 28.1934C165.483 29.3934 164.573 30.3434 163.373 31.0434C162.173 31.7434 160.843 32.0934 159.383 32.0934ZM173.363 16.7334H179.453V31.7334H177.473V25.9734H174.893L170.273 31.7334H167.753L172.493 25.9134C171.273 25.7334 170.273 25.2334 169.493 24.4134C168.733 23.5734 168.353 22.5634 168.353 21.3834C168.353 20.0434 168.833 18.9334 169.793 18.0534C170.793 17.1734 171.983 16.7334 173.363 16.7334ZM173.363 24.1134H177.473V18.6534H173.363C172.503 18.6534 171.783 18.9134 171.203 19.4334C170.623 19.9334 170.333 20.5834 170.333 21.3834C170.333 22.1834 170.623 22.8434 171.203 23.3634C171.783 23.8634 172.503 24.1134 173.363 24.1134ZM29.52 46.7334H31.8V61.7334H29.82V49.7634L24.57 58.2834H24.33L19.08 49.7634V61.7334H17.1V46.7334H19.38L24.45 54.9534L29.52 46.7334ZM48.5665 59.8434C47.0265 61.3434 45.1665 62.0934 42.9865 62.0934C40.7665 62.0934 38.8965 61.3434 37.3765 59.8434C35.8565 58.3234 35.0965 56.4534 35.0965 54.2334C35.0965 52.0134 35.8565 50.1534 37.3765 48.6534C38.8965 47.1334 40.7665 46.3734 42.9865 46.3734C45.1865 46.3734 47.0465 47.1334 48.5665 48.6534C50.1065 50.1534 50.8765 52.0134 50.8765 54.2334C50.8765 56.4334 50.1065 58.3034 48.5665 59.8434ZM38.7865 58.4634C39.9265 59.6034 41.3265 60.1734 42.9865 60.1734C44.6465 60.1734 46.0465 59.6034 47.1865 58.4634C48.3265 57.2834 48.8965 55.8734 48.8965 54.2334C48.8965 52.5734 48.3265 51.1734 47.1865 50.0334C46.0465 48.8734 44.6465 48.2934 42.9865 48.2934C41.3265 48.2934 39.9265 48.8734 38.7865 50.0334C37.6465 51.1734 37.0765 52.5734 37.0765 54.2334C37.0765 55.8734 37.6465 57.2834 38.7865 58.4634ZM64.8098 53.2734V46.7334H66.7898V61.7334H64.8098V55.1934H56.1698V61.7334H54.1898V46.7334H56.1698V53.2734H64.8098ZM77.967 62.0934C75.707 62.0934 73.827 61.3434 72.327 59.8434C70.827 58.3034 70.077 56.4334 70.077 54.2334C70.077 52.0134 70.827 50.1534 72.327 48.6534C73.827 47.1334 75.707 46.3734 77.967 46.3734C79.447 46.3734 80.777 46.7334 81.957 47.4534C83.137 48.1534 83.997 49.1034 84.537 50.3034L82.917 51.2334C82.517 50.3334 81.867 49.6234 80.967 49.1034C80.087 48.5634 79.087 48.2934 77.967 48.2934C76.307 48.2934 74.907 48.8734 73.767 50.0334C72.627 51.1734 72.057 52.5734 72.057 54.2334C72.057 55.8734 72.627 57.2834 73.767 58.4634C74.907 59.6034 76.307 60.1734 77.967 60.1734C79.067 60.1734 80.057 59.9134 80.937 59.3934C81.837 58.8734 82.537 58.1534 83.037 57.2334L84.687 58.1934C84.067 59.3934 83.157 60.3434 81.957 61.0434C80.757 61.7434 79.427 62.0934 77.967 62.0934ZM85.4367 46.7334H98.0367V48.6534H92.7267V61.7334H90.7467V48.6534H85.4367V46.7334ZM108.49 46.3734C110.63 46.3734 112.45 47.1334 113.95 48.6534C115.47 50.1734 116.23 52.0334 116.23 54.2334C116.23 56.4334 115.47 58.2934 113.95 59.8134C112.45 61.3334 110.63 62.0934 108.49 62.0934C105.83 62.0934 103.81 60.9934 102.43 58.7934V67.7334H100.45V46.7334H102.43V49.6734C103.81 47.4734 105.83 46.3734 108.49 46.3734ZM104.14 58.4634C105.28 59.6034 106.68 60.1734 108.34 60.1734C110 60.1734 111.4 59.6034 112.54 58.4634C113.68 57.2834 114.25 55.8734 114.25 54.2334C114.25 52.5734 113.68 51.1734 112.54 50.0334C111.4 48.8734 110 48.2934 108.34 48.2934C106.68 48.2934 105.28 48.8734 104.14 50.0334C103 51.1734 102.43 52.5734 102.43 54.2334C102.43 55.8734 103 57.2834 104.14 58.4634ZM121.502 52.4334H125.612C126.992 52.4334 128.172 52.8734 129.152 53.7534C130.132 54.6134 130.622 55.7234 130.622 57.0834C130.622 58.4634 130.132 59.5834 129.152 60.4434C128.212 61.3034 127.032 61.7334 125.612 61.7334H119.522V46.7334H121.502V52.4334ZM132.722 61.7334V46.7334H134.702V61.7334H132.722ZM121.502 59.8134H125.612C126.472 59.8134 127.192 59.5634 127.772 59.0634C128.352 58.5434 128.642 57.8834 128.642 57.0834C128.642 56.2834 128.352 55.6334 127.772 55.1334C127.192 54.6134 126.472 54.3534 125.612 54.3534H121.502V59.8134ZM19.08 88.2834L28.02 76.7334H29.7V91.7334H27.72V80.1834L18.78 91.7334H17.1V76.7334H19.08V88.2834ZM41.6271 84.0234C43.3671 84.6834 44.2371 85.8834 44.2371 87.6234C44.2371 88.8834 43.7471 89.9434 42.7671 90.8034C41.8271 91.6634 40.4471 92.0934 38.6271 92.0934C35.5871 92.0934 33.6071 90.8934 32.6871 88.4934L34.3671 87.5034C35.0071 89.2834 36.4271 90.1734 38.6271 90.1734C39.7671 90.1734 40.6571 89.9334 41.2971 89.4534C41.9371 88.9534 42.2571 88.3034 42.2571 87.5034C42.2571 86.7834 41.9971 86.2134 41.4771 85.7934C40.9571 85.3534 40.2571 85.1334 39.3771 85.1334H37.1871V83.2134H38.7771C39.6371 83.2134 40.3071 83.0034 40.7871 82.5834C41.2871 82.1434 41.5371 81.5434 41.5371 80.7834C41.5371 80.0634 41.2371 79.4734 40.6371 79.0134C40.0571 78.5334 39.2871 78.2934 38.3271 78.2934C36.4671 78.2934 35.2171 79.0434 34.5771 80.5434L32.9271 79.5834C33.9271 77.4434 35.7271 76.3734 38.3271 76.3734C39.9271 76.3734 41.1871 76.7934 42.1071 77.6334C43.0471 78.4534 43.5171 79.4634 43.5171 80.6634C43.5171 82.2034 42.8871 83.3234 41.6271 84.0234ZM67.1665 76.7334H69.4465V91.7334H67.4665V79.7634L62.2165 88.2834H61.9765L56.7265 79.7634V91.7334H54.7465V76.7334H57.0265L62.0965 84.9534L67.1665 76.7334ZM80.573 76.3734C82.813 76.3734 84.603 77.1634 85.943 78.7434C87.323 80.3034 88.013 82.1534 88.013 84.2934C88.013 84.3934 87.993 84.7034 87.953 85.2234H74.783C74.983 86.7234 75.623 87.9234 76.703 88.8234C77.783 89.7234 79.133 90.1734 80.753 90.1734C83.033 90.1734 84.643 89.3234 85.583 87.6234L87.323 88.6434C86.663 89.7234 85.753 90.5734 84.593 91.1934C83.453 91.7934 82.163 92.0934 80.723 92.0934C78.363 92.0934 76.443 91.3534 74.963 89.8734C73.483 88.3934 72.743 86.5134 72.743 84.2334C72.743 81.9734 73.473 80.1034 74.933 78.6234C76.393 77.1234 78.273 76.3734 80.573 76.3734ZM80.573 78.2934C79.013 78.2934 77.703 78.7534 76.643 79.6734C75.603 80.5934 74.983 81.8034 74.783 83.3034H85.973C85.753 81.7034 85.143 80.4734 84.143 79.6134C83.103 78.7334 81.913 78.2934 80.573 78.2934ZM88.7766 76.7334H101.377V78.6534H96.0666V91.7334H94.0866V78.6534H88.7766V76.7334ZM116.104 79.6734V76.7334H118.084V91.7334H116.104V88.7934C114.724 90.9934 112.704 92.0934 110.044 92.0934C107.904 92.0934 106.074 91.3334 104.554 89.8134C103.054 88.2934 102.304 86.4334 102.304 84.2334C102.304 82.0334 103.054 80.1734 104.554 78.6534C106.074 77.1334 107.904 76.3734 110.044 76.3734C112.704 76.3734 114.724 77.4734 116.104 79.6734ZM105.994 88.4634C107.134 89.6034 108.534 90.1734 110.194 90.1734C111.854 90.1734 113.254 89.6034 114.394 88.4634C115.534 87.2834 116.104 85.8734 116.104 84.2334C116.104 82.5734 115.534 81.1734 114.394 80.0334C113.254 78.8734 111.854 78.2934 110.194 78.2934C108.534 78.2934 107.134 78.8734 105.994 80.0334C104.854 81.1734 104.284 82.5734 104.284 84.2334C104.284 85.8734 104.854 87.2834 105.994 88.4634ZM128.936 92.0934C126.796 92.0934 124.996 91.3834 123.536 89.9634C122.096 88.5234 121.376 86.6634 121.376 84.3834C121.376 81.8234 121.756 79.8634 122.516 78.5034C123.276 77.1234 124.816 75.8734 127.136 74.7534C127.876 74.4134 128.456 74.1534 128.876 73.9734C129.576 73.6934 130.126 73.4534 130.526 73.2534C132.266 72.4534 133.146 71.4634 133.166 70.2834L134.726 71.1834C134.626 71.6834 134.466 72.1334 134.246 72.5334C133.986 72.9734 133.726 73.3234 133.466 73.5834C133.226 73.8434 132.846 74.1234 132.326 74.4234C131.986 74.6234 131.576 74.8434 131.096 75.0834L129.596 75.7134L128.186 76.3134C126.806 76.9134 125.776 77.5434 125.096 78.2034C124.436 78.8434 123.966 79.6834 123.686 80.7234C124.326 79.8634 125.166 79.2134 126.206 78.7734C127.246 78.3134 128.296 78.0834 129.356 78.0834C131.356 78.0834 133.006 78.7434 134.306 80.0634C135.626 81.3634 136.286 83.0334 136.286 85.0734C136.286 87.0934 135.586 88.7734 134.186 90.1134C132.806 91.4334 131.056 92.0934 128.936 92.0934ZM125.036 88.6434C126.076 89.6234 127.376 90.1134 128.936 90.1134C130.496 90.1134 131.776 89.6434 132.776 88.7034C133.796 87.7434 134.306 86.5334 134.306 85.0734C134.306 83.5934 133.826 82.3834 132.866 81.4434C131.926 80.4834 130.666 80.0034 129.086 80.0034C127.666 80.0034 126.376 80.4534 125.216 81.3534C124.056 82.2134 123.476 83.3934 123.476 84.8934C123.476 86.4134 123.996 87.6634 125.036 88.6434ZM151.867 89.8434C150.327 91.3434 148.467 92.0934 146.287 92.0934C144.067 92.0934 142.197 91.3434 140.677 89.8434C139.157 88.3234 138.397 86.4534 138.397 84.2334C138.397 82.0134 139.157 80.1534 140.677 78.6534C142.197 77.1334 144.067 76.3734 146.287 76.3734C148.487 76.3734 150.347 77.1334 151.867 78.6534C153.407 80.1534 154.177 82.0134 154.177 84.2334C154.177 86.4334 153.407 88.3034 151.867 89.8434ZM142.087 88.4634C143.227 89.6034 144.627 90.1734 146.287 90.1734C147.947 90.1734 149.347 89.6034 150.487 88.4634C151.627 87.2834 152.197 85.8734 152.197 84.2334C152.197 82.5734 151.627 81.1734 150.487 80.0334C149.347 78.8734 147.947 78.2934 146.287 78.2934C144.627 78.2934 143.227 78.8734 142.087 80.0334C140.947 81.1734 140.377 82.5734 140.377 84.2334C140.377 85.8734 140.947 87.2834 142.087 88.4634ZM158.465 76.7334H169.205V91.7334H167.225V78.6534H160.445V85.3434C160.445 87.8434 159.965 89.5634 159.005 90.5034C158.065 91.4434 156.765 91.8534 155.105 91.7334V89.8734C156.265 89.9934 157.115 89.7134 157.655 89.0334C158.195 88.3534 158.465 87.1234 158.465 85.3434V76.7334ZM185.969 89.8434C184.429 91.3434 182.569 92.0934 180.389 92.0934C178.169 92.0934 176.299 91.3434 174.779 89.8434C173.259 88.3234 172.499 86.4534 172.499 84.2334C172.499 82.0134 173.259 80.1534 174.779 78.6534C176.299 77.1334 178.169 76.3734 180.389 76.3734C182.589 76.3734 184.449 77.1334 185.969 78.6534C187.509 80.1534 188.279 82.0134 188.279 84.2334C188.279 86.4334 187.509 88.3034 185.969 89.8434ZM176.189 88.4634C177.329 89.6034 178.729 90.1734 180.389 90.1734C182.049 90.1734 183.449 89.6034 184.589 88.4634C185.729 87.2834 186.299 85.8734 186.299 84.2334C186.299 82.5734 185.729 81.1734 184.589 80.0334C183.449 78.8734 182.049 78.2934 180.389 78.2934C178.729 78.2934 177.329 78.8734 176.189 80.0334C175.049 81.1734 174.479 82.5734 174.479 84.2334C174.479 85.8734 175.049 87.2834 176.189 88.4634ZM201.132 84.0234C202.772 84.6234 203.592 85.7934 203.592 87.5334C203.592 88.7734 203.172 89.7834 202.332 90.5634C201.512 91.3434 200.362 91.7334 198.882 91.7334H191.592V76.7334H198.282C199.722 76.7334 200.842 77.1034 201.642 77.8434C202.462 78.5834 202.872 79.5534 202.872 80.7534C202.872 82.2534 202.292 83.3434 201.132 84.0234ZM198.282 78.6534H193.572V83.2134H198.282C200.022 83.2134 200.892 82.4334 200.892 80.8734C200.892 80.1734 200.662 79.6334 200.202 79.2534C199.762 78.8534 199.122 78.6534 198.282 78.6534ZM193.572 89.8134H198.882C199.762 89.8134 200.432 89.6034 200.892 89.1834C201.372 88.7634 201.612 88.1734 201.612 87.4134C201.612 86.6934 201.372 86.1334 200.892 85.7334C200.432 85.3334 199.762 85.1334 198.882 85.1334H193.572V89.8134Z" fill="#F4F4F4"/>
<path d="M229.709 131.876C230.099 131.486 230.099 130.852 229.709 130.462L223.345 124.098C222.954 123.707 222.321 123.707 221.931 124.098C221.54 124.488 221.54 125.122 221.931 125.512L227.588 131.169L221.931 136.826C221.54 137.216 221.54 137.849 221.931 138.24C222.321 138.631 222.954 138.631 223.345 138.24L229.709 131.876ZM179.223 132.169L229.002 132.169L229.002 130.169L179.223 130.169L179.223 132.169Z" fill="#F4F4F4"/>
</svg>
