<svg width="1283" height="206" viewBox="0 0 1283 206" fill="none" xmlns="http://www.w3.org/2000/svg">
<path d="M98.3247 96.5113C105.206 96.5113 111.724 95.7878 117.881 94.3408C124.219 92.8939 129.832 90.6329 134.721 87.5581C139.791 84.3024 144.047 80.2327 147.487 75.3491C151.109 70.4655 153.644 64.5871 155.092 57.7139C156.722 50.479 156.722 44.5101 155.092 39.8074C153.463 35.1047 150.746 31.3968 146.944 28.6837C143.141 25.9706 138.433 24.0714 132.82 22.9862C127.388 21.9009 121.593 21.3583 115.436 21.3583H56.7676L40.7423 96.5113H98.3247ZM37.4829 112.247L18.4698 200.966H0L41.5571 5.62227H118.153C139.701 5.62227 155.273 9.69193 164.87 17.8313C174.649 25.7897 177.636 38.8126 173.834 56.9C171.299 69.1994 166.681 78.9666 159.981 86.2015C153.463 93.4365 144.047 99.5862 131.733 104.651C137.166 106.64 141.059 109.534 143.413 113.333C145.948 117.131 147.487 121.472 148.03 126.355C148.755 131.239 148.755 136.394 148.03 141.82C147.306 147.246 146.491 152.492 145.586 157.556C144.137 164.972 143.051 171.122 142.326 176.005C141.783 180.889 141.512 184.868 141.512 187.943C141.512 191.018 141.783 193.46 142.326 195.268C142.87 196.896 143.684 198.162 144.771 199.067L144.499 200.966H124.128C122.861 197.529 122.408 193.007 122.77 187.4C123.132 181.612 123.766 175.553 124.671 169.223C125.577 162.892 126.573 156.742 127.659 150.773C128.746 144.624 129.289 139.74 129.289 136.123C129.289 130.877 128.383 126.717 126.573 123.642C124.762 120.387 122.317 117.945 119.239 116.317C116.342 114.689 112.811 113.604 108.646 113.061C104.481 112.519 100.135 112.247 95.6086 112.247H37.4829Z" fill="#F4F4F4"/>
<path d="M181.437 200.966L222.994 5.62227H353.098L349.838 21.3583H238.204L222.994 91.8991H323.763L320.504 107.635H219.735L203.166 185.23H317.516L314.257 200.966H181.437Z" fill="#F4F4F4"/>
<path d="M449.72 172.749C459.357 172.749 467.182 171.689 473.194 169.569C484.6 165.507 490.303 157.955 490.303 146.916C490.303 140.469 487.473 135.479 481.815 131.946C476.156 128.502 467.27 125.455 455.157 122.805L434.468 118.168C414.132 113.576 400.074 108.586 392.293 103.199C379.119 94.1904 372.532 80.1038 372.532 60.9389C372.532 43.4521 378.898 28.9239 391.63 17.3543C404.362 5.78478 423.062 0 447.73 0C468.331 0 485.882 5.47567 500.382 16.427C514.971 27.29 522.619 43.0988 523.326 63.8534H484.069C483.362 52.1072 478.234 43.7612 468.685 38.8154C462.319 35.5477 454.406 33.9138 444.945 33.9138C434.423 33.9138 426.024 36.0334 419.746 40.2727C413.469 44.5119 410.33 50.4292 410.33 58.0244C410.33 65.0015 413.425 70.2122 419.614 73.6566C423.592 75.9528 432.08 78.6465 445.078 81.7376L478.764 89.8187C493.53 93.3513 504.67 98.0763 512.186 103.994C523.857 113.179 529.692 126.47 529.692 143.869C529.692 161.709 522.84 176.546 509.135 188.381C495.519 200.127 476.244 206 451.311 206C425.847 206 405.821 200.215 391.232 188.646C376.643 176.988 369.349 161.002 369.349 140.689H408.341C409.578 149.609 412.01 156.277 415.635 160.693C422.266 168.73 433.628 172.749 449.72 172.749Z" fill="#F4F4F4"/>
<path d="M676.508 200.966V113.797H600.116V200.966H559.665V5.69646H600.116V80.1479H676.508V5.69646H717.091V200.966H676.508Z" fill="#F4F4F4"/>
<path d="M870.67 160.826H798.655L785.127 200.966H742.422L812.183 5.69646H858.336L927.566 200.966H883.269L870.67 160.826ZM859.264 127.177L834.861 50.3408L809.663 127.177H859.264Z" fill="#F4F4F4"/>
<path d="M1035.52 130.754H994.011V200.966H953.428V5.69646H1038.57C1058.2 5.69646 1073.85 10.7305 1085.52 20.7987C1097.19 30.8669 1103.03 46.4549 1103.03 67.5627C1103.03 90.6135 1097.19 106.908 1085.52 116.446C1073.85 125.985 1057.18 130.754 1035.52 130.754ZM1054.62 90.0836C1059.93 85.4028 1062.58 77.9841 1062.58 67.8277C1062.58 57.6712 1059.88 50.4292 1054.49 46.1016C1049.18 41.7741 1041.71 39.6103 1032.07 39.6103H994.011V97.1048H1032.07C1041.71 97.1048 1049.23 94.7644 1054.62 90.0836Z" fill="#F4F4F4"/>
<path d="M1269.74 115.651H1174.78V165.86H1283V200.966H1134.86V5.69646H1278.23V40.2727H1174.78V81.7376H1269.74V115.651Z" fill="#F4F4F4"/>
</svg>
