<svg width="228" height="37" viewBox="0 0 228 37" fill="none" xmlns="http://www.w3.org/2000/svg">
<path d="M18.216 17.52C19.432 17.52 20.584 17.392 21.672 17.136C22.792 16.88 23.784 16.48 24.648 15.936C25.544 15.36 26.296 14.64 26.904 13.776C27.544 12.912 27.992 11.872 28.248 10.656C28.536 9.376 28.536 8.32 28.248 7.488C27.96 6.656 27.48 6 26.808 5.52C26.136 5.04 25.304 4.704 24.312 4.512C23.352 4.32 22.328 4.224 21.24 4.224H10.872L8.04 17.52H18.216ZM7.464 20.304L4.104 36H0.84L8.184 1.44H21.72C25.528 1.44 28.28 2.16 29.976 3.6C31.704 5.008 32.232 7.312 31.56 10.512C31.112 12.688 30.296 14.416 29.112 15.696C27.96 16.976 26.296 18.064 24.12 18.96C25.08 19.312 25.768 19.824 26.184 20.496C26.632 21.168 26.904 21.936 27 22.8C27.128 23.664 27.128 24.576 27 25.536C26.872 26.496 26.728 27.424 26.568 28.32C26.312 29.632 26.12 30.72 25.992 31.584C25.896 32.448 25.848 33.152 25.848 33.696C25.848 34.24 25.896 34.672 25.992 34.992C26.088 35.28 26.232 35.504 26.424 35.664L26.376 36H22.776C22.552 35.392 22.472 34.592 22.536 33.6C22.6 32.576 22.712 31.504 22.872 30.384C23.032 29.264 23.208 28.176 23.4 27.12C23.592 26.032 23.688 25.168 23.688 24.528C23.688 23.6 23.528 22.864 23.208 22.32C22.888 21.744 22.456 21.312 21.912 21.024C21.4 20.736 20.776 20.544 20.04 20.448C19.304 20.352 18.536 20.304 17.736 20.304H7.464ZM32.9036 36L40.2476 1.44H63.2396L62.6636 4.224H42.9356L40.2476 16.704H58.0556L57.4796 19.488H39.6716L36.7436 33.216H56.9516L56.3756 36H32.9036ZM80.3147 31.0078C82.0178 31.0078 83.4006 30.8203 84.4631 30.4453C86.4788 29.7266 87.4866 28.3906 87.4866 26.4375C87.4866 25.2969 86.9866 24.4141 85.9866 23.7891C84.9866 23.1797 83.4163 22.6406 81.2756 22.1719L77.6194 21.3516C74.0256 20.5391 71.5413 19.6562 70.1663 18.7031C67.8381 17.1094 66.6741 14.6172 66.6741 11.2266C66.6741 8.13281 67.7991 5.5625 70.0491 3.51562C72.2991 1.46875 75.6038 0.445312 79.9631 0.445312C83.6038 0.445312 86.7053 1.41406 89.2678 3.35156C91.8459 5.27344 93.1975 8.07031 93.3225 11.7422H86.385C86.26 9.66406 85.3538 8.1875 83.6663 7.3125C82.5413 6.73437 81.1428 6.44531 79.4709 6.44531C77.6116 6.44531 76.1272 6.82031 75.0178 7.57031C73.9084 8.32031 73.3538 9.36719 73.3538 10.7109C73.3538 11.9453 73.9006 12.8672 74.9944 13.4766C75.6975 13.8828 77.1975 14.3594 79.4944 14.9062L85.4475 16.3359C88.0569 16.9609 90.0256 17.7969 91.3538 18.8438C93.4163 20.4688 94.4475 22.8203 94.4475 25.8984C94.4475 29.0547 93.2366 31.6797 90.8147 33.7734C88.4084 35.8516 85.0022 36.8906 80.5959 36.8906C76.0959 36.8906 72.5569 35.8672 69.9788 33.8203C67.4006 31.7578 66.1116 28.9297 66.1116 25.3359H73.0022C73.2209 26.9141 73.6506 28.0938 74.2913 28.875C75.4631 30.2969 77.4709 31.0078 80.3147 31.0078ZM120.393 36V20.5781H106.893V36H99.7444V1.45312H106.893V14.625H120.393V1.45312H127.565V36H120.393ZM154.705 28.8984H141.979L139.588 36H132.041L144.369 1.45312H152.526L164.76 36H156.932L154.705 28.8984ZM152.69 22.9453L148.377 9.35156L143.924 22.9453H152.69ZM183.838 23.5781H176.502V36H169.33V1.45312H184.377C187.846 1.45312 190.612 2.34375 192.674 4.125C194.737 5.90625 195.768 8.66406 195.768 12.3984C195.768 16.4766 194.737 19.3594 192.674 21.0469C190.612 22.7344 187.666 23.5781 183.838 23.5781ZM187.213 16.3828C188.151 15.5547 188.619 14.2422 188.619 12.4453C188.619 10.6484 188.143 9.36719 187.19 8.60156C186.252 7.83594 184.932 7.45312 183.229 7.45312H176.502V17.625H183.229C184.932 17.625 186.26 17.2109 187.213 16.3828ZM225.229 20.9062H208.447V29.7891H227.572V36H201.393V1.45312H226.729V7.57031H208.447V14.9062H225.229V20.9062Z" fill="#F4F4F4"/>
</svg>
