<svg width="1374" height="802" viewBox="0 0 1374 802" fill="none" xmlns="http://www.w3.org/2000/svg">
<path d="M1196.33 1L1174.48 1" stroke="#9780C8"/>
<path d="M1196.33 172.368L1174.49 172.368" stroke="#9780C8"/>
<path d="M1185.71 1L1185.71 172.368" stroke="#9780C8"/>
<path d="M856.949 567.187L835.108 567.187" stroke="#9780C8"/>
<path d="M856.951 800.717L835.11 800.717" stroke="#9780C8"/>
<path d="M846.329 567.187L846.329 800.717" stroke="#9780C8"/>
<path d="M668.78 321.895L646.939 321.895" stroke="#9780C8"/>
<path d="M668.782 399.179L646.941 399.179" stroke="#9780C8"/>
<path d="M658.16 321.895L658.16 399.179" stroke="#9780C8"/>
<path d="M1243.37 69.4416H1255.13V71.0644C1255.13 74.3101 1254.07 76.9697 1251.94 79.0433C1249.83 81.0944 1247.05 82.1199 1243.6 82.1199C1239.97 82.1199 1236.97 80.9366 1234.6 78.57C1232.24 76.2034 1231.07 73.2958 1231.07 69.8473C1231.07 66.4214 1232.24 63.5251 1234.6 61.1585C1236.97 58.7693 1239.91 57.5747 1243.4 57.5747C1245.58 57.5747 1247.57 58.0819 1249.38 59.0961C1251.22 60.0879 1252.64 61.4515 1253.65 63.187L1250.33 65.1141C1249.7 63.9646 1248.77 63.0518 1247.54 62.3756C1246.3 61.6994 1244.93 61.3613 1243.4 61.3613C1240.94 61.3613 1238.91 62.1727 1237.32 63.7956C1235.73 65.4409 1234.93 67.4694 1234.93 69.8811C1234.93 72.3154 1235.73 74.3326 1237.32 75.9329C1238.95 77.5332 1241.06 78.3333 1243.64 78.3333C1245.7 78.3333 1247.39 77.8487 1248.71 76.8796C1250.03 75.9104 1250.87 74.5918 1251.23 72.9239H1243.37V69.4416Z" fill="#9780C8"/>
<path d="M1261.86 61.5642C1261.41 62.015 1260.87 62.2404 1260.25 62.2404C1259.62 62.2404 1259.07 62.015 1258.6 61.5642C1258.15 61.0909 1257.93 60.5386 1257.93 59.9076C1257.93 59.2765 1258.15 58.7355 1258.6 58.2847C1259.05 57.8114 1259.6 57.5747 1260.25 57.5747C1260.89 57.5747 1261.44 57.8114 1261.89 58.2847C1262.34 58.7355 1262.56 59.2765 1262.56 59.9076C1262.56 60.5386 1262.33 61.0909 1261.86 61.5642ZM1262.06 81.6804H1258.43V64.776H1262.06V81.6804Z" fill="#9780C8"/>
<path d="M1269.9 81.6804H1266.27V57H1269.9V81.6804Z" fill="#9780C8"/>
<path d="M1277.75 64.776V67.616C1278.67 65.5198 1280.39 64.4717 1282.92 64.4717V68.4274C1281.56 68.3372 1280.35 68.6753 1279.3 69.4416C1278.26 70.1854 1277.75 71.4251 1277.75 73.1606V81.6804H1274.12V64.776H1277.75Z" fill="#9780C8"/>
<path d="M1299.04 79.5504C1297.33 81.2634 1295.24 82.1199 1292.75 82.1199C1290.26 82.1199 1288.17 81.2634 1286.47 79.5504C1284.74 77.8149 1283.88 75.7075 1283.88 73.2282C1283.88 70.7489 1284.74 68.6415 1286.47 66.906C1288.17 65.193 1290.26 64.3365 1292.75 64.3365C1295.24 64.3365 1297.33 65.193 1299.04 66.906C1300.76 68.6415 1301.62 70.7489 1301.62 73.2282C1301.62 75.7075 1300.76 77.8149 1299.04 79.5504ZM1287.51 73.2282C1287.51 74.7609 1288.01 76.0343 1289.02 77.0486C1290.03 78.0629 1291.27 78.57 1292.75 78.57C1294.23 78.57 1295.47 78.0629 1296.48 77.0486C1297.49 76.0343 1297.99 74.7609 1297.99 73.2282C1297.99 71.6955 1297.49 70.4221 1296.48 69.4078C1295.47 68.3936 1294.23 67.8864 1292.75 67.8864C1291.27 67.8864 1290.03 68.3936 1289.02 69.4078C1288.01 70.4221 1287.51 71.6955 1287.51 73.2282Z" fill="#9780C8"/>
<path d="M1311.27 77.0486L1315.58 64.776H1319.44L1312.99 82.2213C1311.38 86.5939 1308.64 88.6675 1304.79 88.4422V85.0275C1305.91 85.0951 1306.82 84.8584 1307.51 84.3175C1308.2 83.7765 1308.79 82.9088 1309.26 81.7142L1309.43 81.3761L1302.3 64.776H1306.27L1311.27 77.0486Z" fill="#9780C8"/>
<path d="M1240.07 121C1237.81 121 1235.88 120.493 1234.29 119.479C1232.73 118.442 1231.63 117.011 1231 115.185L1234.33 113.224C1235.27 115.884 1237.22 117.213 1240.18 117.213C1241.61 117.213 1242.7 116.932 1243.44 116.368C1244.18 115.805 1244.54 115.05 1244.54 114.103C1244.54 113.156 1244.15 112.424 1243.37 111.905C1242.58 111.387 1241.19 110.824 1239.2 110.215C1237.16 109.606 1235.51 108.885 1234.26 108.051C1232.74 106.969 1231.97 105.38 1231.97 103.284C1231.97 101.188 1232.71 99.5314 1234.19 98.3143C1235.65 97.0747 1237.43 96.4548 1239.54 96.4548C1241.4 96.4548 1243.03 96.9169 1244.44 97.841C1245.88 98.7426 1246.98 100.016 1247.74 101.661L1244.48 103.555C1243.49 101.346 1241.84 100.241 1239.54 100.241C1238.42 100.241 1237.52 100.512 1236.85 101.053C1236.18 101.571 1235.84 102.281 1235.84 103.183C1235.84 104.062 1236.18 104.761 1236.85 105.279C1237.52 105.775 1238.76 106.304 1240.58 106.868C1241.7 107.251 1242.35 107.476 1242.53 107.544C1242.82 107.634 1243.4 107.86 1244.28 108.22C1244.99 108.513 1245.56 108.829 1245.99 109.167C1247.74 110.542 1248.54 112.165 1248.41 114.035C1248.41 116.177 1247.64 117.878 1246.09 119.141C1244.59 120.38 1242.58 121 1240.07 121Z" fill="#9780C8"/>
<path d="M1268.2 113.663H1254.82C1255.09 114.926 1255.69 115.906 1256.64 116.605C1257.6 117.304 1258.79 117.653 1260.2 117.653C1262.1 117.653 1263.55 116.954 1264.53 115.557L1267.53 117.315C1265.89 119.772 1263.44 121 1260.16 121C1257.45 121 1255.25 120.166 1253.54 118.498C1251.86 116.808 1251.02 114.678 1251.02 112.108C1251.02 109.606 1251.85 107.499 1253.51 105.786C1255.15 104.073 1257.27 103.217 1259.9 103.217C1262.34 103.217 1264.35 104.084 1265.95 105.82C1267.54 107.555 1268.33 109.663 1268.33 112.142C1268.33 112.593 1268.29 113.1 1268.2 113.663ZM1254.79 110.688H1264.67C1264.42 109.359 1263.86 108.333 1262.99 107.612C1262.14 106.89 1261.09 106.53 1259.86 106.53C1258.52 106.53 1257.4 106.902 1256.5 107.646C1255.61 108.389 1255.03 109.404 1254.79 110.688Z" fill="#9780C8"/>
<path d="M1289.88 103.217C1291.78 103.217 1293.32 103.836 1294.48 105.076C1295.65 106.316 1296.23 107.984 1296.23 110.08V120.56H1292.6V110.316C1292.6 109.167 1292.31 108.265 1291.73 107.612C1291.14 106.958 1290.35 106.631 1289.34 106.631C1288.2 106.631 1287.3 107.014 1286.65 107.781C1286 108.525 1285.68 109.629 1285.68 111.094V120.56H1282.05V110.316C1282.05 109.144 1281.77 108.243 1281.21 107.612C1280.67 106.958 1279.9 106.631 1278.89 106.631C1277.77 106.631 1276.86 107.014 1276.16 107.781C1275.49 108.547 1275.16 109.652 1275.16 111.094V120.56H1271.53V103.656H1275.16V105.685C1276.23 104.039 1277.83 103.217 1279.96 103.217C1282.11 103.217 1283.7 104.107 1284.73 105.887C1285.83 104.107 1287.55 103.217 1289.88 103.217Z" fill="#9780C8"/>
<path d="M1303.54 100.444C1303.09 100.895 1302.56 101.12 1301.93 101.12C1301.3 101.12 1300.75 100.895 1300.28 100.444C1299.83 99.9709 1299.61 99.4187 1299.61 98.7876C1299.61 98.1565 1299.83 97.6156 1300.28 97.1648C1300.73 96.6915 1301.28 96.4548 1301.93 96.4548C1302.58 96.4548 1303.13 96.6915 1303.58 97.1648C1304.02 97.6156 1304.25 98.1565 1304.25 98.7876C1304.25 99.4187 1304.01 99.9709 1303.54 100.444ZM1303.74 120.56H1300.11V103.656H1303.74V120.56Z" fill="#9780C8"/>
<path d="M1317.47 103.217C1319.78 103.217 1321.75 104.073 1323.39 105.786C1325.02 107.499 1325.84 109.606 1325.84 112.108C1325.84 114.61 1325.02 116.718 1323.39 118.431C1321.75 120.144 1319.78 121 1317.47 121C1314.92 121 1312.96 120.042 1311.59 118.126V120.56H1307.96V96.8943H1311.59V106.057C1312.98 104.163 1314.94 103.217 1317.47 103.217ZM1313.1 115.996C1314.11 117.011 1315.38 117.518 1316.9 117.518C1318.42 117.518 1319.69 117.011 1320.7 115.996C1321.71 114.96 1322.21 113.663 1322.21 112.108C1322.21 110.553 1321.71 109.268 1320.7 108.254C1319.69 107.217 1318.42 106.699 1316.9 106.699C1315.38 106.699 1314.11 107.217 1313.1 108.254C1312.09 109.268 1311.59 110.553 1311.59 112.108C1311.59 113.641 1312.09 114.937 1313.1 115.996Z" fill="#9780C8"/>
<path d="M1343.35 118.431C1341.64 120.144 1339.55 121 1337.06 121C1334.57 121 1332.48 120.144 1330.78 118.431C1329.05 116.695 1328.19 114.588 1328.19 112.108C1328.19 109.629 1329.05 107.522 1330.78 105.786C1332.48 104.073 1334.57 103.217 1337.06 103.217C1339.55 103.217 1341.64 104.073 1343.35 105.786C1345.07 107.522 1345.93 109.629 1345.93 112.108C1345.93 114.588 1345.07 116.695 1343.35 118.431ZM1331.82 112.108C1331.82 113.641 1332.32 114.914 1333.33 115.929C1334.34 116.943 1335.58 117.45 1337.06 117.45C1338.54 117.45 1339.78 116.943 1340.79 115.929C1341.8 114.914 1342.3 113.641 1342.3 112.108C1342.3 110.576 1341.8 109.302 1340.79 108.288C1339.78 107.274 1338.54 106.767 1337.06 106.767C1335.58 106.767 1334.34 107.274 1333.33 108.288C1332.32 109.302 1331.82 110.576 1331.82 112.108Z" fill="#9780C8"/>
<path d="M1352.85 120.56H1349.22V95.8801H1352.85V120.56Z" fill="#9780C8"/>
<path d="M1370.37 106.057V96.8943H1374V120.56H1370.37V118.126C1369 120.042 1367.04 121 1364.49 121C1362.18 121 1360.21 120.144 1358.57 118.431C1356.94 116.718 1356.12 114.61 1356.12 112.108C1356.12 109.606 1356.94 107.499 1358.57 105.786C1360.21 104.073 1362.18 103.217 1364.49 103.217C1367.04 103.217 1369 104.163 1370.37 106.057ZM1361.26 115.996C1362.27 117.011 1363.54 117.518 1365.06 117.518C1366.58 117.518 1367.85 117.011 1368.86 115.996C1369.87 114.96 1370.37 113.663 1370.37 112.108C1370.37 110.553 1369.87 109.268 1368.86 108.254C1367.85 107.217 1366.58 106.699 1365.06 106.699C1363.54 106.699 1362.27 107.217 1361.26 108.254C1360.25 109.268 1359.75 110.553 1359.75 112.108C1359.75 113.641 1360.25 114.937 1361.26 115.996Z" fill="#9780C8"/>
<path d="M892 651H895.275V660.934H907.723V651H910.999V675.041H907.723V663.798H895.275V675.041H892V651Z" fill="#9780C8"/>
<path d="M922.909 657.121C924.148 657.121 925.348 657.415 926.51 658.005C927.673 658.583 928.558 659.336 929.166 660.263C929.753 661.147 930.144 662.178 930.339 663.356C930.513 664.164 930.6 665.451 930.6 667.219H917.809C917.864 668.997 918.282 670.426 919.064 671.506C919.846 672.576 921.057 673.11 922.697 673.11C924.229 673.11 925.451 672.603 926.364 671.588C926.885 670.999 927.254 670.317 927.472 669.543H930.356C930.28 670.186 930.024 670.906 929.59 671.703C929.166 672.488 928.688 673.132 928.156 673.634C927.265 674.507 926.163 675.096 924.848 675.401C924.142 675.576 923.344 675.663 922.453 675.663C920.281 675.663 918.439 674.872 916.929 673.29C915.42 671.697 914.665 669.472 914.665 666.613C914.665 663.798 915.425 661.512 916.946 659.756C918.467 657.999 920.454 657.121 922.909 657.121ZM927.586 664.878C927.466 663.602 927.189 662.582 926.755 661.818C925.951 660.399 924.609 659.69 922.73 659.69C921.383 659.69 920.253 660.181 919.341 661.163C918.429 662.134 917.945 663.373 917.891 664.878H927.586Z" fill="#9780C8"/>
<path d="M934.299 651H937.232V675.041H934.299V651Z" fill="#9780C8"/>
<path d="M943.081 657.514L947.741 671.785L952.613 657.514H955.823L949.24 675.041H946.112L939.676 657.514H943.081Z" fill="#9780C8"/>
<path d="M965.599 657.121C966.837 657.121 968.038 657.415 969.2 658.005C970.362 658.583 971.247 659.336 971.856 660.263C972.442 661.147 972.833 662.178 973.029 663.356C973.203 664.164 973.29 665.451 973.29 667.219H960.499C960.553 668.997 960.972 670.426 961.754 671.506C962.536 672.576 963.747 673.11 965.387 673.11C966.919 673.11 968.141 672.603 969.053 671.588C969.575 670.999 969.944 670.317 970.161 669.543H973.045C972.969 670.186 972.714 670.906 972.279 671.703C971.856 672.488 971.378 673.132 970.846 673.634C969.955 674.507 968.852 675.096 967.538 675.401C966.832 675.576 966.033 675.663 965.143 675.663C962.97 675.663 961.129 674.872 959.619 673.29C958.109 671.697 957.354 669.472 957.354 666.613C957.354 663.798 958.115 661.512 959.635 659.756C961.156 657.999 963.144 657.121 965.599 657.121ZM970.275 664.878C970.156 663.602 969.879 662.582 969.444 661.818C968.64 660.399 967.299 659.69 965.42 659.69C964.073 659.69 962.943 660.181 962.031 661.163C961.118 662.134 960.635 663.373 960.58 664.878H970.275Z" fill="#9780C8"/>
<path d="M977.493 652.62H980.459V657.514H983.245V659.919H980.459V671.359C980.459 671.97 980.665 672.379 981.078 672.587C981.306 672.707 981.686 672.767 982.219 672.767C982.36 672.767 982.512 672.767 982.675 672.767C982.838 672.756 983.028 672.739 983.245 672.717V675.041C982.908 675.14 982.555 675.211 982.186 675.254C981.828 675.298 981.437 675.32 981.013 675.32C979.644 675.32 978.715 674.971 978.227 674.272C977.738 673.563 977.493 672.647 977.493 671.523V659.919H975.131V657.514H977.493V652.62Z" fill="#9780C8"/>
<path d="M986.194 657.595H989.176V675.041H986.194V657.595ZM986.194 651H989.176V654.339H986.194V651Z" fill="#9780C8"/>
<path d="M1000.35 657.006C1002.32 657.006 1003.92 657.486 1005.14 658.446C1006.38 659.407 1007.13 661.06 1007.38 663.405H1004.52C1004.35 662.325 1003.95 661.43 1003.34 660.721C1002.72 660.001 1001.72 659.641 1000.35 659.641C998.485 659.641 997.149 660.558 996.345 662.391C995.824 663.58 995.563 665.047 995.563 666.793C995.563 668.55 995.933 670.028 996.671 671.228C997.41 672.428 998.572 673.028 1000.16 673.028C1001.37 673.028 1002.34 672.657 1003.04 671.916C1003.76 671.163 1004.25 670.137 1004.52 668.839H1007.38C1007.05 671.163 1006.24 672.865 1004.93 673.945C1003.63 675.014 1001.96 675.549 999.93 675.549C997.649 675.549 995.829 674.714 994.472 673.045C993.114 671.365 992.435 669.27 992.435 666.76C992.435 663.684 993.179 661.289 994.667 659.576C996.155 657.863 998.051 657.006 1000.35 657.006Z" fill="#9780C8"/>
<path d="M1012.56 670.377C1012.56 671.228 1012.87 671.899 1013.49 672.39C1014.11 672.881 1014.84 673.127 1015.69 673.127C1016.72 673.127 1017.72 672.887 1018.68 672.407C1020.31 671.61 1021.13 670.306 1021.13 668.495V666.122C1020.77 666.351 1020.31 666.542 1019.74 666.695C1019.18 666.848 1018.62 666.957 1018.08 667.022L1016.31 667.251C1015.24 667.393 1014.44 667.617 1013.91 667.922C1013.01 668.435 1012.56 669.253 1012.56 670.377ZM1019.66 664.42C1020.34 664.333 1020.79 664.049 1021.01 663.569C1021.14 663.307 1021.21 662.931 1021.21 662.44C1021.21 661.436 1020.85 660.71 1020.13 660.263C1019.43 659.805 1018.41 659.576 1017.09 659.576C1015.56 659.576 1014.47 659.99 1013.83 660.82C1013.47 661.278 1013.24 661.96 1013.13 662.865H1010.39C1010.44 660.705 1011.14 659.205 1012.48 658.365C1013.82 657.514 1015.38 657.088 1017.15 657.088C1019.21 657.088 1020.87 657.481 1022.15 658.266C1023.43 659.052 1024.06 660.274 1024.06 661.932V672.03C1024.06 672.336 1024.12 672.581 1024.24 672.767C1024.37 672.952 1024.64 673.045 1025.04 673.045C1025.17 673.045 1025.32 673.039 1025.48 673.028C1025.64 673.007 1025.82 672.979 1026 672.947V675.123C1025.54 675.254 1025.2 675.336 1024.96 675.369C1024.72 675.401 1024.39 675.418 1023.98 675.418C1022.97 675.418 1022.24 675.058 1021.78 674.338C1021.54 673.956 1021.37 673.416 1021.27 672.717C1020.68 673.503 1019.82 674.185 1018.7 674.763C1017.58 675.341 1016.35 675.631 1015 675.631C1013.38 675.631 1012.06 675.14 1011.03 674.158C1010 673.165 1009.49 671.926 1009.49 670.443C1009.49 668.817 1010 667.557 1011.01 666.662C1012.02 665.767 1013.35 665.216 1014.99 665.009L1019.66 664.42Z" fill="#9780C8"/>
<path d="M903.047 700.559C904.568 700.559 905.768 700.254 906.648 699.643C907.539 699.032 907.984 697.93 907.984 696.337C907.984 694.624 907.365 693.456 906.127 692.834C905.464 692.507 904.579 692.343 903.471 692.343H895.552V700.559H903.047ZM892.31 689.545H903.389C905.214 689.545 906.719 689.812 907.903 690.347C910.151 691.372 911.276 693.265 911.276 696.026C911.276 697.466 910.977 698.644 910.379 699.561C909.793 700.477 908.967 701.214 907.903 701.77C908.837 702.152 909.538 702.654 910.005 703.276C910.483 703.898 910.749 704.907 910.803 706.303L910.917 709.528C910.95 710.444 911.026 711.126 911.145 711.573C911.341 712.337 911.688 712.828 912.188 713.046V713.586H908.212C908.104 713.379 908.017 713.112 907.952 712.784C907.886 712.457 907.832 711.824 907.789 710.886L907.593 706.876C907.517 705.305 906.936 704.252 905.85 703.718C905.231 703.423 904.258 703.276 902.933 703.276H895.552V713.586H892.31V689.545Z" fill="#9780C8"/>
<path d="M922.909 695.666C924.148 695.666 925.348 695.96 926.51 696.549C927.673 697.128 928.558 697.881 929.166 698.808C929.753 699.692 930.144 700.723 930.339 701.901C930.513 702.708 930.6 703.996 930.6 705.763H917.809C917.864 707.542 918.282 708.971 919.064 710.051C919.846 711.12 921.057 711.655 922.697 711.655C924.229 711.655 925.451 711.148 926.364 710.133C926.885 709.544 927.254 708.862 927.472 708.087H930.356C930.28 708.731 930.024 709.451 929.59 710.248C929.166 711.033 928.688 711.677 928.156 712.179C927.265 713.052 926.163 713.641 924.848 713.946C924.142 714.121 923.344 714.208 922.453 714.208C920.281 714.208 918.439 713.417 916.929 711.835C915.42 710.242 914.665 708.016 914.665 705.158C914.665 702.343 915.425 700.057 916.946 698.301C918.467 696.544 920.454 695.666 922.909 695.666ZM927.586 703.423C927.466 702.147 927.189 701.126 926.755 700.363C925.951 698.944 924.609 698.235 922.73 698.235C921.383 698.235 920.253 698.726 919.341 699.708C918.429 700.679 917.945 701.917 917.891 703.423H927.586Z" fill="#9780C8"/>
<path d="M940.376 695.747C941.745 695.747 942.94 696.086 943.961 696.762C944.515 697.144 945.08 697.7 945.655 698.431V696.222H948.36V712.162C948.36 714.388 948.034 716.145 947.383 717.432C946.166 719.811 943.869 721 940.49 721C938.611 721 937.031 720.574 935.749 719.723C934.467 718.883 933.75 717.563 933.598 715.763H936.58C936.721 716.548 937.003 717.154 937.427 717.58C938.09 718.234 939.132 718.561 940.555 718.561C942.804 718.561 944.276 717.765 944.971 716.172C945.384 715.234 945.574 713.559 945.541 711.148C944.955 712.042 944.249 712.708 943.423 713.144C942.598 713.581 941.506 713.799 940.148 713.799C938.258 713.799 936.601 713.128 935.179 711.786C933.766 710.433 933.06 708.202 933.06 705.092C933.06 702.157 933.772 699.866 935.195 698.219C936.629 696.571 938.356 695.747 940.376 695.747ZM945.655 704.749C945.655 702.578 945.21 700.968 944.319 699.921C943.429 698.873 942.293 698.35 940.914 698.35C938.85 698.35 937.438 699.321 936.678 701.263C936.276 702.299 936.075 703.658 936.075 705.338C936.075 707.313 936.471 708.818 937.264 709.855C938.068 710.88 939.143 711.393 940.49 711.393C942.598 711.393 944.08 710.439 944.938 708.529C945.416 707.449 945.655 706.189 945.655 704.749Z" fill="#9780C8"/>
<path d="M955.725 696.058V707.695C955.725 708.589 955.866 709.32 956.149 709.888C956.67 710.935 957.642 711.459 959.065 711.459C961.107 711.459 962.498 710.542 963.236 708.709C963.638 707.727 963.839 706.38 963.839 704.667V696.058H966.772V713.586H964.002L964.035 711C963.655 711.666 963.182 712.228 962.617 712.686C961.498 713.603 960.141 714.061 958.544 714.061C956.056 714.061 954.362 713.226 953.46 711.557C952.971 710.662 952.727 709.468 952.727 707.973V696.058H955.725Z" fill="#9780C8"/>
<path d="M971.448 689.545H974.381V713.586H971.448V689.545Z" fill="#9780C8"/>
<path d="M981.045 708.922C981.045 709.773 981.355 710.444 981.974 710.935C982.593 711.426 983.327 711.671 984.174 711.671C985.206 711.671 986.205 711.431 987.172 710.951C988.801 710.155 989.616 708.851 989.616 707.04V704.667C989.258 704.896 988.796 705.087 988.231 705.24C987.666 705.392 987.112 705.502 986.569 705.567L984.793 705.796C983.729 705.938 982.93 706.162 982.398 706.467C981.496 706.98 981.045 707.798 981.045 708.922ZM988.15 702.965C988.823 702.878 989.274 702.594 989.502 702.114C989.632 701.852 989.697 701.476 989.697 700.985C989.697 699.981 989.339 699.255 988.622 698.808C987.916 698.35 986.9 698.121 985.575 698.121C984.044 698.121 982.957 698.535 982.316 699.364C981.958 699.823 981.724 700.505 981.616 701.41H978.878C978.933 699.25 979.628 697.75 980.964 696.909C982.311 696.058 983.87 695.633 985.64 695.633C987.693 695.633 989.361 696.026 990.643 696.811C991.913 697.597 992.549 698.819 992.549 700.477V710.575C992.549 710.88 992.609 711.126 992.728 711.311C992.858 711.497 993.125 711.59 993.527 711.59C993.657 711.59 993.804 711.584 993.966 711.573C994.129 711.551 994.303 711.524 994.488 711.491V713.668C994.032 713.799 993.684 713.881 993.445 713.914C993.206 713.946 992.88 713.963 992.467 713.963C991.457 713.963 990.724 713.603 990.268 712.883C990.029 712.501 989.86 711.961 989.763 711.262C989.165 712.048 988.307 712.73 987.188 713.308C986.069 713.886 984.836 714.175 983.49 714.175C981.871 714.175 980.546 713.684 979.514 712.703C978.493 711.71 977.982 710.471 977.982 708.987C977.982 707.362 978.487 706.102 979.498 705.207C980.508 704.312 981.833 703.761 983.473 703.554L988.15 702.965Z" fill="#9780C8"/>
<path d="M997.453 696.058H1000.24V699.086C1000.47 698.497 1001.03 697.782 1001.92 696.942C1002.81 696.091 1003.84 695.666 1005 695.666C1005.05 695.666 1005.14 695.671 1005.27 695.682C1005.4 695.693 1005.63 695.715 1005.94 695.747V698.857C1005.77 698.824 1005.61 698.802 1005.45 698.792C1005.31 698.781 1005.15 698.775 1004.98 698.775C1003.5 698.775 1002.37 699.255 1001.58 700.215C1000.78 701.165 1000.39 702.261 1000.39 703.505V713.586H997.453V696.058Z" fill="#9780C8"/>
<path d="M717.146 339.284H728.988V340.489C728.988 343.388 727.939 345.842 725.841 347.85C723.721 349.835 720.913 350.828 717.417 350.828C713.808 350.828 710.842 349.657 708.519 347.315C706.173 344.95 705 342.083 705 338.715C705 335.347 706.173 332.48 708.519 330.116C710.842 327.773 713.808 326.602 717.417 326.602C719.582 326.602 721.59 327.127 723.439 328.175C725.266 329.223 726.676 330.618 727.669 332.358L725.571 333.562C724.826 332.134 723.721 330.997 722.255 330.149C720.789 329.301 719.176 328.878 717.417 328.878C714.44 328.878 712.026 329.826 710.177 331.722C708.304 333.64 707.368 335.971 707.368 338.715C707.368 341.459 708.304 343.79 710.177 345.708C712.026 347.605 714.44 348.553 717.417 348.553C720.079 348.553 722.21 347.895 723.811 346.578C725.39 345.24 726.304 343.545 726.552 341.492H717.146V339.284Z" fill="#9780C8"/>
<path d="M735.452 328.543C735.452 328.989 735.294 329.368 734.979 329.681C734.663 329.993 734.279 330.149 733.828 330.149C733.377 330.149 732.994 329.993 732.678 329.681C732.362 329.368 732.204 328.989 732.204 328.543C732.204 328.097 732.362 327.718 732.678 327.405C732.994 327.093 733.377 326.937 733.828 326.937C734.279 326.937 734.663 327.093 734.979 327.405C735.294 327.718 735.452 328.097 735.452 328.543ZM734.945 350.426H732.712V333.696H734.945V350.426Z" fill="#9780C8"/>
<path d="M741.916 350.426H739.683V326H741.916V350.426Z" fill="#9780C8"/>
<path d="M748.888 333.696V336.473C749.926 334.443 751.707 333.428 754.234 333.428V335.57C752.61 335.57 751.313 336.038 750.343 336.975C749.373 337.89 748.888 339.273 748.888 341.124V350.426H746.655V333.696H748.888Z" fill="#9780C8"/>
<path d="M770.446 348.318C768.709 349.991 766.612 350.828 764.153 350.828C761.649 350.828 759.54 349.991 757.826 348.318C756.112 346.623 755.255 344.537 755.255 342.061C755.255 339.585 756.112 337.511 757.826 335.837C759.54 334.142 761.649 333.294 764.153 333.294C766.634 333.294 768.732 334.142 770.446 335.837C772.183 337.511 773.051 339.585 773.051 342.061C773.051 344.515 772.183 346.601 770.446 348.318ZM759.416 346.779C760.702 348.051 762.281 348.686 764.153 348.686C766.025 348.686 767.604 348.051 768.89 346.779C770.175 345.463 770.818 343.89 770.818 342.061C770.818 340.21 770.175 338.648 768.89 337.377C767.604 336.083 766.025 335.436 764.153 335.436C762.281 335.436 760.702 336.083 759.416 337.377C758.131 338.648 757.488 340.21 757.488 342.061C757.488 343.89 758.131 345.463 759.416 346.779Z" fill="#9780C8"/>
<path d="M782.826 347.716L788.307 333.696H790.676L783.435 351.966C782.759 353.661 781.811 354.966 780.593 355.88C779.398 356.817 778.067 357.23 776.601 357.119V355.044C778.631 355.289 780.176 354.129 781.236 351.564L781.676 350.527L774.097 333.696H776.466L782.826 347.716Z" fill="#9780C8"/>
<path d="M723.608 388.906H720.902L715.353 379.537H708.722V388.906H706.353V365.484H715.827C717.767 365.484 719.436 366.175 720.834 367.558C722.233 368.941 722.932 370.592 722.932 372.511C722.932 374.117 722.447 375.533 721.477 376.76C720.552 377.965 719.334 378.79 717.823 379.236L723.608 388.906ZM715.827 367.692H708.722V377.329H715.827C717.135 377.329 718.251 376.86 719.176 375.924C720.101 374.942 720.563 373.804 720.563 372.511C720.563 371.194 720.101 370.057 719.176 369.098C718.251 368.161 717.135 367.692 715.827 367.692Z" fill="#9780C8"/>
<path d="M733.622 371.774C736.148 371.774 738.167 372.656 739.678 374.418C741.234 376.158 742.013 378.221 742.013 380.608C742.013 380.72 741.99 381.065 741.945 381.645H727.092C727.318 383.318 728.039 384.657 729.257 385.661C730.475 386.664 731.998 387.166 733.825 387.166C736.396 387.166 738.212 386.218 739.272 384.322L741.234 385.46C740.49 386.664 739.464 387.612 738.156 388.304C736.87 388.973 735.415 389.308 733.791 389.308C731.129 389.308 728.964 388.482 727.295 386.832C725.626 385.181 724.791 383.084 724.791 380.541C724.791 378.02 725.615 375.935 727.261 374.284C728.908 372.611 731.028 371.774 733.622 371.774ZM733.622 373.916C731.863 373.916 730.385 374.429 729.19 375.455C728.017 376.481 727.318 377.831 727.092 379.504H739.712C739.464 377.719 738.776 376.347 737.648 375.388C736.475 374.407 735.133 373.916 733.622 373.916Z" fill="#9780C8"/>
<path d="M760.113 375.455V372.176H762.346V388.237C762.346 390.646 761.512 392.542 759.842 393.925C758.173 395.308 756.177 396 753.854 396C749.907 396 747.234 394.639 745.835 391.918L747.798 390.814C748.813 392.844 750.831 393.859 753.854 393.859C755.794 393.859 757.316 393.357 758.421 392.353C759.549 391.349 760.113 389.977 760.113 388.237V385.627C758.557 388.081 756.279 389.308 753.279 389.308C750.865 389.308 748.801 388.46 747.087 386.765C745.395 385.069 744.55 382.995 744.55 380.541C744.55 378.087 745.395 376.013 747.087 374.317C748.801 372.622 750.865 371.774 753.279 371.774C756.279 371.774 758.557 373.001 760.113 375.455ZM748.711 385.259C749.997 386.531 751.576 387.166 753.448 387.166C755.32 387.166 756.899 386.531 758.185 385.259C759.47 383.943 760.113 382.37 760.113 380.541C760.113 378.69 759.47 377.128 758.185 375.857C756.899 374.563 755.32 373.916 753.448 373.916C751.576 373.916 749.997 374.563 748.711 375.857C747.425 377.128 746.783 378.69 746.783 380.541C746.783 382.37 747.425 383.943 748.711 385.259Z" fill="#9780C8"/>
<path d="M778.983 380.943V372.176H781.217V388.906H778.983V386.296C777.72 388.304 775.826 389.308 773.299 389.308C771.269 389.308 769.657 388.694 768.461 387.467C767.266 386.218 766.668 384.545 766.668 382.448V372.176H768.901V382.448C768.901 383.943 769.296 385.103 770.085 385.928C770.897 386.754 772.036 387.166 773.502 387.166C775.194 387.166 776.525 386.642 777.495 385.594C778.487 384.545 778.983 382.995 778.983 380.943Z" fill="#9780C8"/>
<path d="M788.173 388.906H785.94V364.48H788.173V388.906Z" fill="#9780C8"/>
<path d="M807.46 375.455V372.176H809.693V388.906H807.46V385.627C805.904 388.081 803.626 389.308 800.626 389.308C798.212 389.308 796.149 388.46 794.434 386.765C792.743 385.069 791.897 382.995 791.897 380.541C791.897 378.087 792.743 376.013 794.434 374.317C796.149 372.622 798.212 371.774 800.626 371.774C803.626 371.774 805.904 373.001 807.46 375.455ZM796.058 385.259C797.344 386.531 798.923 387.166 800.795 387.166C802.667 387.166 804.246 386.531 805.532 385.259C806.817 383.943 807.46 382.37 807.46 380.541C807.46 378.69 806.817 377.128 805.532 375.857C804.246 374.563 802.667 373.916 800.795 373.916C798.923 373.916 797.344 374.563 796.058 375.857C794.773 377.128 794.13 378.69 794.13 380.541C794.13 382.37 794.773 383.943 796.058 385.259Z" fill="#9780C8"/>
<path d="M816.654 372.176V374.953C817.692 372.923 819.474 371.908 822 371.908V374.05C820.376 374.05 819.079 374.518 818.109 375.455C817.139 376.37 816.654 377.753 816.654 379.604V388.906H814.421V372.176H816.654Z" fill="#9780C8"/>
<path d="M14.7542 172.466C10.508 172.466 6.98743 171.069 4.19246 168.276C1.39749 165.428 0 161.95 0 157.841C0 153.704 1.39749 150.239 4.19246 147.446C6.96056 144.625 10.4811 143.215 14.7542 143.215C17.3073 143.215 19.6589 143.82 21.8088 145.028C23.9857 146.237 25.6788 147.875 26.8882 149.944L22.857 152.281C22.1045 150.884 21.0026 149.783 19.5514 148.977C18.127 148.144 16.528 147.728 14.7542 147.728C11.7711 147.728 9.32553 148.681 7.41743 150.588C5.56307 152.469 4.63589 154.886 4.63589 157.841C4.63589 160.795 5.56307 163.213 7.41743 165.093C9.32553 167 11.7711 167.953 14.7542 167.953C16.528 167.953 18.1404 167.55 19.5917 166.745C21.0429 165.912 22.1313 164.797 22.857 163.401L26.8882 165.697C25.7326 167.738 24.0529 169.39 21.8492 170.653C19.7261 171.861 17.3611 172.466 14.7542 172.466Z" fill="white"/>
<path d="M44.2394 159.815V151.797H48.5931V171.942H44.2394V163.924H35.0079V171.942H30.6542V151.797H35.0079V159.815H44.2394Z" fill="white"/>
<path d="M70.6967 169.404C68.6542 171.445 66.1414 172.466 63.1584 172.466C60.1753 172.466 57.6625 171.445 55.62 169.404C53.5506 167.336 52.516 164.824 52.516 161.87C52.516 158.915 53.5506 156.404 55.62 154.335C57.6625 152.294 60.1753 151.273 63.1584 151.273C66.1414 151.273 68.6542 152.294 70.6967 154.335C72.7661 156.404 73.8007 158.915 73.8007 161.87C73.8007 164.824 72.7661 167.336 70.6967 169.404ZM56.8697 161.87C56.8697 163.696 57.4743 165.214 58.6837 166.422C59.8931 167.631 61.3846 168.235 63.1584 168.235C64.9321 168.235 66.4236 167.631 67.633 166.422C68.8424 165.214 69.447 163.696 69.447 161.87C69.447 160.043 68.8424 158.525 67.633 157.317C66.4236 156.108 64.9321 155.504 63.1584 155.504C61.3846 155.504 59.8931 156.108 58.6837 157.317C57.4743 158.525 56.8697 160.043 56.8697 161.87Z" fill="white"/>
<path d="M87.2511 172.466C84.2143 172.466 81.6746 171.445 79.6321 169.404C77.6165 167.336 76.6087 164.824 76.6087 161.87C76.6087 158.861 77.6165 156.35 79.6321 154.335C81.6746 152.294 84.2143 151.273 87.2511 151.273C89.213 151.273 91.0001 151.743 92.6126 152.683C94.2251 153.623 95.4345 154.886 96.2407 156.471L92.4917 158.646C92.0348 157.679 91.3361 156.927 90.3955 156.39C89.4817 155.826 88.4202 155.544 87.2108 155.544C85.4371 155.544 83.9455 156.148 82.7362 157.357C81.5537 158.593 80.9624 160.097 80.9624 161.87C80.9624 163.642 81.5537 165.146 82.7362 166.382C83.9455 167.591 85.4371 168.195 87.2108 168.195C88.3933 168.195 89.4549 167.926 90.3955 167.389C91.363 166.825 92.0886 166.06 92.5723 165.093L96.3213 167.228C95.4614 168.84 94.2117 170.116 92.5723 171.056C90.9598 171.996 89.1861 172.466 87.2511 172.466Z" fill="white"/>
<path d="M108.213 161.668L117.404 171.942H112.204L103.94 162.635V171.942H99.5863V151.797H103.94V160.701L111.761 151.797H117.082L108.213 161.668Z" fill="white"/>
<path d="M134.682 154.658V151.797H139.036V171.942H134.682V169.041C133.043 171.324 130.691 172.466 127.628 172.466C124.86 172.466 122.495 171.445 120.533 169.404C118.571 167.362 117.59 164.851 117.59 161.87C117.59 158.888 118.571 156.377 120.533 154.335C122.495 152.294 124.86 151.273 127.628 151.273C130.691 151.273 133.043 152.401 134.682 154.658ZM123.758 166.503C124.967 167.712 126.486 168.316 128.313 168.316C130.141 168.316 131.659 167.712 132.868 166.503C134.078 165.267 134.682 163.723 134.682 161.87C134.682 160.016 134.078 158.485 132.868 157.276C131.659 156.041 130.141 155.423 128.313 155.423C126.486 155.423 124.967 156.041 123.758 157.276C122.548 158.485 121.944 160.016 121.944 161.87C121.944 163.696 122.548 165.24 123.758 166.503Z" fill="white"/>
<path d="M175.03 161.789H154.471V157.599H175.03V161.789Z" fill="white"/>
<path d="M207.779 171.942H189.195V168.316L199.032 158.284C201.423 155.893 202.619 153.825 202.619 152.079C202.619 150.736 202.216 149.675 201.41 148.896C200.604 148.117 199.556 147.728 198.266 147.728C195.901 147.728 194.154 148.896 193.025 151.233L189.115 148.936C189.975 147.083 191.211 145.673 192.823 144.706C194.436 143.712 196.237 143.215 198.225 143.215C200.725 143.215 202.848 143.994 204.595 145.552C206.368 147.137 207.255 149.259 207.255 151.918C207.255 154.765 205.656 157.827 202.458 161.104L196.089 167.47H207.779V171.942Z" fill="white"/>
<path d="M228.163 162.554H231.388V166.865H228.163V171.942H223.487V166.865H209.619V162.554L219.335 143.739H224.374L214.658 162.554H223.487V155.222H228.163V162.554Z" fill="white"/>
<path d="M246.024 151.273C248.766 151.273 251.131 152.307 253.119 154.376C255.081 156.417 256.062 158.915 256.062 161.87C256.062 164.851 255.081 167.362 253.119 169.404C251.157 171.445 248.793 172.466 246.024 172.466C242.988 172.466 240.636 171.338 238.97 169.081V180H234.616V151.797H238.97V154.698C240.609 152.415 242.961 151.273 246.024 151.273ZM240.784 166.503C241.993 167.712 243.512 168.316 245.339 168.316C247.167 168.316 248.685 167.712 249.894 166.503C251.104 165.267 251.708 163.723 251.708 161.87C251.708 160.016 251.104 158.485 249.894 157.276C248.685 156.041 247.167 155.423 245.339 155.423C243.512 155.423 241.993 156.041 240.784 157.276C239.574 158.485 238.97 160.016 238.97 161.87C238.97 163.696 239.574 165.24 240.784 166.503Z" fill="white"/>
<path d="M269.033 161.628L276.571 171.942H271.532L266.533 165.052L261.494 171.942H256.415L263.994 161.587L256.818 151.797H261.857L266.493 158.163L271.129 151.797H276.208L269.033 161.628Z" fill="white"/>
<path d="M55.8323 51.005C65.4176 55.5712 70.2102 63.1367 70.2102 73.7016C70.2102 81.9387 67.0749 88.6537 60.8041 93.8466C54.6229 98.95 46.5157 101.502 36.4824 101.502C19.2826 101.502 7.90565 94.2495 2.35154 79.7451L15.6545 72.09C18.4316 82.0282 25.3742 86.9973 36.4824 86.9973C42.3053 86.9973 46.7844 85.7439 49.9198 83.2369C53.1448 80.73 54.7573 77.283 54.7573 72.8958C54.7573 68.5982 53.2344 65.196 50.1886 62.6891C47.1428 60.1821 42.9324 58.9287 37.5574 58.9287H26.1357V44.9615H34.4668C39.7522 44.9615 43.873 43.7528 46.8292 41.3354C49.7854 38.918 51.2636 35.6948 51.2636 31.6658C51.2636 27.5473 49.9198 24.3241 47.2323 21.9962C44.5449 19.6683 40.6928 18.5044 35.6762 18.5044C26.3596 18.5044 20.0889 22.7572 16.8639 31.2629L3.69528 23.6078C9.78688 10.5359 20.4472 4 35.6762 4C44.8136 4 52.2938 6.50693 58.1166 11.5208C63.8499 16.4451 66.7165 22.8915 66.7165 30.86C66.7165 39.7238 63.0884 46.4388 55.8323 51.005Z" fill="#F4F4F4"/>
<path d="M135.983 42.1412V32.6059H150.495V99.7558H135.983V90.0862C130.518 97.6966 122.68 101.502 112.468 101.502C103.241 101.502 95.3574 98.0995 88.8178 91.2949C82.2783 84.4904 79.0086 76.119 79.0086 66.1809C79.0086 56.2427 82.2783 47.8713 88.8178 41.0668C95.3574 34.2622 103.241 30.86 112.468 30.86C122.68 30.86 130.518 34.6204 135.983 42.1412ZM99.5677 81.6253C103.599 85.6543 108.66 87.6688 114.752 87.6688C120.844 87.6688 125.905 85.6543 129.936 81.6253C133.967 77.5068 135.983 72.3586 135.983 66.1809C135.983 60.0031 133.967 54.8997 129.936 50.8707C125.905 46.7521 120.844 44.6929 114.752 44.6929C108.66 44.6929 103.599 46.7521 99.5677 50.8707C95.5365 54.8997 93.5209 60.0031 93.5209 66.1809C93.5209 72.2691 95.5365 77.4173 99.5677 81.6253Z" fill="#F4F4F4"/>
<path d="M167.411 32.6059H212.426V46.5731H181.923V99.7558H167.411V32.6059Z" fill="#F4F4F4"/>
<path d="M276.478 91.2949C269.67 98.0995 261.294 101.502 251.35 101.502C241.406 101.502 233.031 98.0995 226.222 91.2949C219.324 84.4009 215.875 76.0295 215.875 66.1809C215.875 56.3322 219.324 47.9608 226.222 41.0668C233.031 34.2622 241.406 30.86 251.35 30.86C261.294 30.86 269.67 34.2622 276.478 41.0668C283.376 47.9608 286.825 56.3322 286.825 66.1809C286.825 76.0295 283.376 84.4009 276.478 91.2949ZM230.388 66.1809C230.388 72.2691 232.403 77.3277 236.435 81.3567C240.466 85.3857 245.438 87.4002 251.35 87.4002C257.263 87.4002 262.234 85.3857 266.266 81.3567C270.297 77.3277 272.312 72.2691 272.312 66.1809C272.312 60.0926 270.297 55.034 266.266 51.005C262.234 46.976 257.263 44.9615 251.35 44.9615C245.438 44.9615 240.466 46.976 236.435 51.005C232.403 55.034 230.388 60.0926 230.388 66.1809Z" fill="#F4F4F4"/>
<path d="M303.219 32.6059H354.685V99.7558H340.172V46.5731H317.732V71.5528C317.732 82.0282 315.447 89.549 310.879 94.1152C306.31 98.6814 299.636 100.562 290.857 99.7558V86.1915C294.978 86.9078 298.068 86.0572 300.129 83.6398C302.189 81.1329 303.219 76.8801 303.219 70.8813V32.6059Z" fill="#F4F4F4"/>
<path d="M428.436 91.2949C421.627 98.0995 413.251 101.502 403.308 101.502C393.364 101.502 384.988 98.0995 378.18 91.2949C371.282 84.4009 367.833 76.0295 367.833 66.1809C367.833 56.3322 371.282 47.9608 378.18 41.0668C384.988 34.2622 393.364 30.86 403.308 30.86C413.251 30.86 421.627 34.2622 428.436 41.0668C435.334 47.9608 438.782 56.3322 438.782 66.1809C438.782 76.0295 435.334 84.4009 428.436 91.2949ZM382.346 66.1809C382.346 72.2691 384.361 77.3277 388.392 81.3567C392.424 85.3857 397.395 87.4002 403.308 87.4002C409.22 87.4002 414.192 85.3857 418.223 81.3567C422.255 77.3277 424.27 72.2691 424.27 66.1809C424.27 60.0926 422.255 55.034 418.223 51.005C414.192 46.976 409.22 44.9615 403.308 44.9615C397.395 44.9615 392.424 46.976 388.392 51.005C384.361 55.034 382.346 60.0926 382.346 66.1809Z" fill="#F4F4F4"/>
<path d="M498.398 65.2408C505.027 68.3744 508.342 73.5226 508.342 80.6852C508.342 86.4154 506.371 91.0263 502.429 94.5181C498.577 98.0099 493.202 99.7558 486.305 99.7558H451.905V32.6059H483.617C490.425 32.6059 495.756 34.307 499.608 37.7093C503.46 41.1115 505.386 45.5882 505.386 51.1393C505.386 57.4961 503.056 62.1966 498.398 65.2408ZM482.542 44.9615H465.745V59.8688H482.542C488.455 59.8688 491.411 57.3618 491.411 52.348C491.411 47.4236 488.455 44.9615 482.542 44.9615ZM465.745 87.1316H484.961C491.052 87.1316 494.098 84.4904 494.098 79.2079C494.098 76.8801 493.292 75.0894 491.68 73.8359C490.067 72.4929 487.827 71.8214 484.961 71.8214H465.745V87.1316Z" fill="#F4F4F4"/>
<path d="M576.982 91.2949C570.173 98.0995 561.797 101.502 551.854 101.502C541.91 101.502 533.534 98.0995 526.726 91.2949C519.828 84.4009 516.379 76.0295 516.379 66.1809C516.379 56.3322 519.828 47.9608 526.726 41.0668C533.534 34.2622 541.91 30.86 551.854 30.86C561.797 30.86 570.173 34.2622 576.982 41.0668C583.879 47.9608 587.328 56.3322 587.328 66.1809C587.328 76.0295 583.879 84.4009 576.982 91.2949ZM530.891 66.1809C530.891 72.2691 532.907 77.3277 536.938 81.3567C540.969 85.3857 545.941 87.4002 551.854 87.4002C557.766 87.4002 562.738 85.3857 566.769 81.3567C570.8 77.3277 572.816 72.2691 572.816 66.1809C572.816 60.0926 570.8 55.034 566.769 51.005C562.738 46.976 557.766 44.9615 551.854 44.9615C545.941 44.9615 540.969 46.976 536.938 51.005C532.907 55.034 530.891 60.0926 530.891 66.1809Z" fill="#F4F4F4"/>
<path d="M629.207 65.5093L659.844 99.7558H642.51L614.963 68.7326V99.7558H600.451V32.6059H614.963V62.2862L641.032 32.6059H658.769L629.207 65.5093Z" fill="#F4F4F4"/>
<path d="M772.671 65.9123H704.14V51.9451H772.671V65.9123Z" fill="#F4F4F4"/>
<path d="M872.563 50.8707C881.79 55.9741 886.403 63.5844 886.403 73.7016C886.403 82.2073 883.402 88.9671 877.4 93.9809C871.488 98.9948 863.515 101.502 853.482 101.502C843.448 101.502 835.431 99.0396 829.429 94.1152C823.427 89.1909 820.426 82.3864 820.426 73.7016C820.426 68.8668 821.635 64.4797 824.054 60.5403C826.473 56.5113 829.877 53.2881 834.266 50.8707C827.189 46.2149 823.651 39.5895 823.651 30.9943C823.651 22.3991 826.517 15.7736 832.251 11.1179C838.073 6.37263 845.15 4 853.482 4C861.723 4 868.755 6.37263 874.578 11.1179C880.401 15.8632 883.313 22.4886 883.313 30.9943C883.313 39.4999 879.729 46.1254 872.563 50.8707ZM853.482 18.6387C849.182 18.6387 845.688 19.8026 843 22.1305C840.403 24.3688 839.104 27.5473 839.104 31.6658C839.104 35.6052 840.447 38.7837 843.135 41.2011C845.822 43.5289 849.271 44.6929 853.482 44.6929C857.602 44.6929 861.007 43.5289 863.694 41.2011C866.471 38.7837 867.86 35.6052 867.86 31.6658C867.86 27.5473 866.516 24.3688 863.828 22.1305C861.141 19.8026 857.692 18.6387 853.482 18.6387ZM853.482 86.863C858.767 86.863 862.977 85.5648 866.113 82.9683C869.338 80.3719 870.95 76.7905 870.95 72.2243C870.95 67.6581 869.338 64.0768 866.113 61.4804C862.977 58.8839 858.767 57.5857 853.482 57.5857C848.107 57.5857 843.807 58.8839 840.582 61.4804C837.446 64.0768 835.879 67.6581 835.879 72.2243C835.879 76.7905 837.446 80.3719 840.582 82.9683C843.807 85.5648 848.107 86.863 853.482 86.863Z" fill="#F4F4F4"/>
<path d="M960.517 88.206C954.067 97.0698 945.019 101.502 933.373 101.502C921.817 101.502 912.724 97.0698 906.095 88.206C899.645 79.3422 896.42 67.5238 896.42 52.7509C896.42 37.9779 899.645 26.1595 906.095 17.2957C912.724 8.4319 921.817 4 933.373 4C945.019 4 954.067 8.4319 960.517 17.2957C967.056 26.07 970.326 37.8883 970.326 52.7509C970.326 67.6134 967.056 79.4318 960.517 88.206ZM933.373 86.4601C940.36 86.4601 945.691 83.5503 949.364 77.7306C953.036 71.911 954.873 63.5844 954.873 52.7509C954.873 41.9173 953.036 33.5907 949.364 27.7711C945.691 21.9514 940.36 19.0416 933.373 19.0416C926.475 19.0416 921.145 21.9514 917.383 27.7711C913.71 33.5907 911.873 41.9173 911.873 52.7509C911.873 63.5844 913.71 71.911 917.383 77.7306C921.145 83.5503 926.475 86.4601 933.373 86.4601Z" fill="#F4F4F4"/>
<path d="M1022.18 30.86C1031.32 30.86 1039.2 34.307 1045.83 41.2011C1052.37 48.0056 1055.64 56.3322 1055.64 66.1809C1055.64 76.119 1052.37 84.4904 1045.83 91.2949C1039.29 98.0995 1031.41 101.502 1022.18 101.502C1012.06 101.502 1004.22 97.7413 998.663 90.2205V126.616H984.151V32.6059H998.663V42.2755C1004.13 34.6651 1011.97 30.86 1022.18 30.86ZM1004.71 81.6253C1008.74 85.6543 1013.8 87.6688 1019.89 87.6688C1025.99 87.6688 1031.05 85.6543 1035.08 81.6253C1039.11 77.5068 1041.12 72.3586 1041.12 66.1809C1041.12 60.0031 1039.11 54.8997 1035.08 50.8707C1031.05 46.7521 1025.99 44.6929 1019.89 44.6929C1013.8 44.6929 1008.74 46.7521 1004.71 50.8707C1000.68 54.8997 998.663 60.0031 998.663 66.1809C998.663 72.2691 1000.68 77.4173 1004.71 81.6253Z" fill="#F4F4F4"/>
<path d="M1098.87 65.3751L1124 99.7558H1107.2L1090.54 76.7905L1073.74 99.7558H1056.81L1082.08 65.2408L1058.16 32.6059H1074.95L1090.41 53.8253L1105.86 32.6059H1122.79L1098.87 65.3751Z" fill="#F4F4F4"/>
<path d="M38.4424 370.068C34.2082 374.352 29.0264 376.494 22.8969 376.494C16.7673 376.494 11.5855 374.352 7.3513 370.068C3.1171 365.702 1 360.459 1 354.339C1 348.178 3.1171 342.955 7.3513 338.671C11.5855 334.346 16.7673 332.184 22.8969 332.184C29.0264 332.184 34.2082 334.346 38.4424 338.671C42.6766 342.955 44.7937 348.178 44.7937 354.339C44.7937 360.459 42.6766 365.702 38.4424 370.068ZM5.2342 354.339C5.2342 359.398 6.92788 363.662 10.3152 367.13C13.7026 370.598 17.8965 372.332 22.8969 372.332C27.8972 372.332 32.0911 370.598 35.4785 367.13C38.8658 363.662 40.5595 359.398 40.5595 354.339C40.5595 349.32 38.8658 345.077 35.4785 341.609C32.0911 338.1 27.8972 336.345 22.8969 336.345C17.8965 336.345 13.7026 338.1 10.3152 341.609C6.92788 345.077 5.2342 349.32 5.2342 354.339Z" fill="white"/>
<path d="M64.8584 376.494C60.5436 376.494 56.9143 375.046 53.9705 372.149C51.067 369.211 49.6153 365.416 49.6153 360.765C49.6153 355.542 50.3815 351.544 51.9139 348.769C53.4462 345.954 56.5513 343.404 61.2291 341.119C62.7212 340.426 63.8906 339.895 64.7374 339.528C66.1488 338.957 67.2578 338.467 68.0643 338.059C71.5726 336.427 73.347 334.407 73.3873 332L76.5327 333.836C76.3311 334.856 76.0085 335.774 75.5649 336.59C75.0407 337.488 74.5164 338.202 73.9922 338.732C73.5083 339.263 72.7421 339.834 71.6936 340.446C71.0081 340.854 70.1814 341.303 69.2136 341.792L66.1892 343.078L63.3462 344.302C60.5637 345.526 58.487 346.811 57.1159 348.157C55.7851 349.463 54.8375 351.177 54.2729 353.298C55.5633 351.544 57.257 350.218 59.354 349.32C61.4509 348.382 63.568 347.913 65.7053 347.913C69.7378 347.913 73.0647 349.259 75.6859 351.952C78.3474 354.604 79.6781 358.011 79.6781 362.173C79.6781 366.294 78.2667 369.721 75.4439 372.455C72.6614 375.148 69.1329 376.494 64.8584 376.494ZM56.9949 369.456C59.0918 371.455 61.713 372.455 64.8584 372.455C68.0038 372.455 70.5847 371.496 72.601 369.578C74.6576 367.62 75.6859 365.151 75.6859 362.173C75.6859 359.153 74.7181 356.685 72.7824 354.767C70.8871 352.809 68.3466 351.83 65.1609 351.83C62.2977 351.83 59.6967 352.748 57.3578 354.584C55.019 356.338 53.8495 358.745 53.8495 361.805C53.8495 364.906 54.898 367.456 56.9949 369.456Z" fill="white"/>
<path d="M89.7424 356.787H98.0293C100.812 356.787 103.191 357.685 105.167 359.48C107.143 361.234 108.131 363.499 108.131 366.273C108.131 369.089 107.143 371.373 105.167 373.128C103.272 374.882 100.892 375.76 98.0293 375.76H85.7501V345.158H89.7424V356.787ZM112.365 375.76V345.158H116.357V375.76H112.365ZM89.7424 371.843H98.0293C99.7633 371.843 101.215 371.333 102.384 370.313C103.554 369.252 104.139 367.905 104.139 366.273C104.139 364.641 103.554 363.315 102.384 362.295C101.215 361.234 99.7633 360.704 98.0293 360.704H89.7424V371.843Z" fill="white"/>
<path d="M144.453 360.398V345.158H148.446V375.76H144.453V364.131C142.114 365.355 139.231 365.967 135.803 365.967C131.811 365.967 128.787 365.049 126.73 363.213C124.674 361.336 123.645 358.582 123.645 354.951V345.158H127.637V354.951C127.637 357.481 128.283 359.317 129.573 360.459C130.904 361.601 132.94 362.173 135.682 362.173C138.747 362.173 141.671 361.581 144.453 360.398Z" fill="white"/>
<path d="M178.343 358.501V345.158H182.336V375.76H178.343V362.417H160.923V375.76H156.93V345.158H160.923V358.501H178.343Z" fill="white"/>
<path d="M194.77 356.787H203.057C205.84 356.787 208.219 357.685 210.195 359.48C212.171 361.234 213.159 363.499 213.159 366.273C213.159 369.089 212.171 371.373 210.195 373.128C208.3 374.882 205.92 375.76 203.057 375.76H190.778V345.158H194.77V356.787ZM217.393 375.76V345.158H221.385V375.76H217.393ZM194.77 371.843H203.057C204.791 371.843 206.243 371.333 207.412 370.313C208.582 369.252 209.167 367.905 209.167 366.273C209.167 364.641 208.582 363.315 207.412 362.295C206.243 361.234 204.791 360.704 203.057 360.704H194.77V371.843Z" fill="white"/>
<path d="M250.449 340.262H234.722V336.713H250.449V340.262ZM233.875 368.721L251.901 345.158H255.288V375.76H251.296V352.197L233.27 375.76H229.883V345.158H233.875V368.721Z" fill="white"/>
<path d="M275.223 345.158H300.629V349.075H289.922V375.76H285.93V349.075H275.223V345.158Z" fill="white"/>
<path d="M318.285 344.424C322.802 344.424 326.411 346.036 329.113 349.259C331.895 352.442 333.286 356.216 333.286 360.581C333.286 360.785 333.246 361.418 333.165 362.479H306.611C307.014 365.539 308.304 367.987 310.482 369.823C312.66 371.659 315.382 372.577 318.648 372.577C323.245 372.577 326.491 370.843 328.387 367.375L331.895 369.456C330.564 371.659 328.729 373.393 326.391 374.658C324.092 375.882 321.491 376.494 318.588 376.494C313.829 376.494 309.958 374.984 306.974 371.965C303.99 368.946 302.498 365.11 302.498 360.459C302.498 355.848 303.969 352.034 306.913 349.014C309.857 345.954 313.648 344.424 318.285 344.424ZM318.285 348.341C315.14 348.341 312.498 349.279 310.361 351.156C308.264 353.033 307.014 355.502 306.611 358.562H329.173C328.729 355.298 327.5 352.788 325.483 351.034C323.386 349.239 320.987 348.341 318.285 348.341Z" fill="white"/>
<path d="M347.863 359.847L364.074 375.76H358.751L343.629 361.01V375.76H339.637V345.158H343.629V358.684L358.025 345.158H363.469L347.863 359.847Z" fill="white"/>
<path d="M380.608 376.494C376.051 376.494 372.26 374.964 369.236 371.904C366.211 368.762 364.699 364.947 364.699 360.459C364.699 355.93 366.211 352.136 369.236 349.075C372.26 345.974 376.051 344.424 380.608 344.424C383.592 344.424 386.273 345.158 388.653 346.627C391.032 348.055 392.766 349.993 393.855 352.442L390.588 354.339C389.782 352.503 388.471 351.054 386.657 349.993C384.882 348.892 382.866 348.341 380.608 348.341C377.261 348.341 374.438 349.524 372.139 351.891C369.841 354.216 368.691 357.072 368.691 360.459C368.691 363.805 369.841 366.681 372.139 369.089C374.438 371.414 377.261 372.577 380.608 372.577C382.826 372.577 384.822 372.047 386.596 370.986C388.411 369.925 389.822 368.456 390.83 366.579L394.157 368.538C392.907 370.986 391.072 372.924 388.653 374.352C386.233 375.78 383.551 376.494 380.608 376.494Z" fill="white"/>
<path d="M395.669 345.158H421.074V349.075H410.368V375.76H406.375V349.075H395.669V345.158Z" fill="white"/>
<path d="M471.91 358.807H441.666V354.89H471.91V358.807Z" fill="white"/>
<path d="M519.706 336.957L509.846 350.728C513.193 351.136 515.976 352.462 518.194 354.706C520.412 356.828 521.521 359.704 521.521 363.336C521.521 367.375 520.129 370.598 517.347 373.005C514.645 375.331 511.298 376.494 507.306 376.494C504.12 376.494 501.297 375.76 498.837 374.291C496.377 372.781 494.664 370.68 493.696 367.987L497.204 365.906C497.89 367.987 499.099 369.578 500.833 370.68C502.608 371.781 504.765 372.332 507.306 372.332C510.29 372.332 512.689 371.537 514.504 369.945C516.359 368.313 517.286 366.11 517.286 363.336C517.286 360.561 516.359 358.378 514.504 356.787C512.689 355.155 510.29 354.339 507.306 354.339V354.278L507.245 354.339H506.096L504.281 351.523L514.806 336.957H494.906V332.918H519.706V336.957Z" fill="white"/>
<path d="M539.986 348.219C544.099 348.219 547.507 349.545 550.209 352.197C552.87 354.849 554.201 358.235 554.201 362.356C554.201 366.559 552.87 369.966 550.209 372.577C547.587 375.188 544.18 376.494 539.986 376.494C535.792 376.494 532.385 375.188 529.763 372.577C527.102 369.966 525.771 366.559 525.771 362.356C525.771 359.133 526.638 356.277 528.372 353.788L542.224 332.918H547.003L536.599 348.586C537.687 348.341 538.817 348.219 539.986 348.219ZM532.727 369.578C534.623 371.414 537.042 372.332 539.986 372.332C542.97 372.332 545.37 371.414 547.184 369.578C549.039 367.742 549.967 365.335 549.967 362.356C549.967 359.378 549.039 356.97 547.184 355.134C545.37 353.298 542.97 352.38 539.986 352.38C537.042 352.38 534.623 353.298 532.727 355.134C530.913 356.97 530.005 359.378 530.005 362.356C530.005 365.335 530.913 367.742 532.727 369.578Z" fill="white"/>
<path d="M576.477 344.424C580.792 344.424 584.462 345.974 587.486 349.075C590.551 352.176 592.083 355.971 592.083 360.459C592.083 364.947 590.551 368.742 587.486 371.843C584.462 374.944 580.792 376.494 576.477 376.494C571.114 376.494 567.041 374.25 564.258 369.762V388H560.266V345.158H564.258V351.156C567.041 346.668 571.114 344.424 576.477 344.424ZM567.706 369.089C570.005 371.414 572.828 372.577 576.175 372.577C579.522 372.577 582.345 371.414 584.643 369.089C586.942 366.681 588.091 363.805 588.091 360.459C588.091 357.072 586.942 354.216 584.643 351.891C582.345 349.524 579.522 348.341 576.175 348.341C572.828 348.341 570.005 349.524 567.706 351.891C565.408 354.216 564.258 357.072 564.258 360.459C564.258 363.805 565.408 366.681 567.706 369.089Z" fill="white"/>
<path d="M610.205 359.908L622 375.76H617.221L607.785 363.152L598.349 375.76H593.57L605.426 359.908L594.357 345.158H599.135L607.785 356.726L616.435 345.158H621.214L610.205 359.908Z" fill="white"/>
<path d="M5 706.991H53.1567V767.441H45.0828V714.064H13.033V767.441H5V706.991Z" fill="white"/>
<path d="M93.7701 745.358C93.7701 742.918 93.4968 740.684 92.9504 738.655C92.4039 736.599 91.5842 734.831 90.4913 733.35C89.3984 731.87 88.0459 730.719 86.4338 729.896C84.8491 729.046 83.0048 728.621 80.9009 728.621C78.7971 728.621 76.9528 729.046 75.368 729.896C73.7833 730.719 72.4445 731.87 71.3516 733.35C70.2586 734.831 69.4389 736.599 68.8925 738.655C68.346 740.684 68.0728 742.918 68.0728 745.358C68.0728 747.825 68.346 750.101 68.8925 752.184C69.4389 754.241 70.2586 756.009 71.3516 757.489C72.4445 758.97 73.7833 760.135 75.368 760.985C76.9528 761.807 78.7971 762.218 80.9009 762.218C83.0048 762.218 84.8491 761.807 86.4338 760.985C88.0459 760.135 89.3984 758.97 90.4913 757.489C91.5842 756.009 92.4039 754.241 92.9504 752.184C93.4968 750.101 93.7701 747.825 93.7701 745.358ZM101.311 745.358C101.311 748.977 100.847 752.239 99.9177 755.145C98.9887 758.024 97.6499 760.477 95.9013 762.506C94.1526 764.535 92.0077 766.097 89.4667 767.194C86.953 768.263 84.0977 768.798 80.9009 768.798C77.7041 768.798 74.8489 768.263 72.3352 767.194C69.8215 766.097 67.6903 764.535 65.9416 762.506C64.1929 760.477 62.8541 758.024 61.9251 755.145C60.9961 752.239 60.5317 748.977 60.5317 745.358C60.5317 741.794 60.9961 738.573 61.9251 735.694C62.8541 732.816 64.1929 730.362 65.9416 728.334C67.6903 726.305 69.8215 724.756 72.3352 723.687C74.8489 722.59 77.7041 722.042 80.9009 722.042C84.0977 722.042 86.953 722.59 89.4667 723.687C92.0077 724.756 94.1526 726.305 95.9013 728.334C97.6499 730.362 98.9887 732.816 99.9177 735.694C100.847 738.573 101.311 741.794 101.311 745.358Z" fill="white"/>
<path d="M144.589 767.441H110.653V778.215H103.604V760.861H109.383C110.585 757.9 111.541 754.885 112.252 751.814C112.962 748.716 113.509 745.605 113.891 742.48C114.274 739.327 114.52 736.16 114.629 732.98C114.738 729.8 114.793 726.606 114.793 723.399H145.449V760.861H151.638V778.215H144.589V767.441ZM137.908 760.861V729.978H122.006C121.815 732.473 121.61 735.036 121.391 737.668C121.2 740.3 120.927 742.946 120.572 745.605C120.244 748.237 119.793 750.841 119.219 753.418C118.673 755.995 117.949 758.476 117.047 760.861H137.908Z" fill="white"/>
<path d="M168.398 741.986H172.21C173.221 741.986 174.273 741.863 175.366 741.616C176.458 741.369 177.456 740.985 178.357 740.465C179.259 739.916 179.997 739.217 180.571 738.367C181.172 737.517 181.472 736.489 181.472 735.283C181.472 734.406 181.281 733.57 180.898 732.775C180.543 731.952 179.997 731.239 179.259 730.636C178.549 730.006 177.647 729.512 176.554 729.156C175.461 728.8 174.191 728.621 172.743 728.621C171.977 728.621 171.076 728.731 170.038 728.95C168.999 729.17 167.975 729.581 166.964 730.184C165.98 730.76 165.092 731.596 164.3 732.692C163.535 733.762 163.043 735.16 162.824 736.887H155.775C155.966 734.913 156.362 733.186 156.964 731.706C157.565 730.198 158.316 728.896 159.218 727.799C160.119 726.702 161.13 725.784 162.251 725.044C163.398 724.304 164.573 723.714 165.775 723.275C167.005 722.837 168.234 722.522 169.464 722.33C170.693 722.138 171.868 722.042 172.988 722.042C174.956 722.042 176.896 722.302 178.808 722.823C180.721 723.317 182.429 724.084 183.931 725.126C185.461 726.14 186.691 727.429 187.62 728.991C188.549 730.554 189.013 732.377 189.013 734.461C189.013 735.804 188.822 736.997 188.44 738.038C188.057 739.053 187.552 739.944 186.923 740.711C186.322 741.479 185.639 742.137 184.874 742.685C184.109 743.206 183.358 743.645 182.62 744.001V744.207C183.385 744.344 184.232 744.632 185.161 745.07C186.09 745.481 186.95 746.085 187.743 746.88C188.535 747.647 189.191 748.648 189.71 749.882C190.257 751.088 190.53 752.568 190.53 754.323C190.53 756.79 189.997 758.928 188.931 760.738C187.893 762.547 186.527 764.055 184.833 765.261C183.139 766.44 181.226 767.317 179.095 767.893C176.964 768.496 174.819 768.798 172.661 768.798C169.874 768.798 167.346 768.441 165.078 767.729C162.838 767.016 160.898 766.002 159.259 764.686C157.619 763.37 156.308 761.793 155.324 759.957C154.368 758.12 153.794 756.091 153.603 753.87H161.185C161.376 755.488 161.841 756.831 162.578 757.9C163.316 758.97 164.204 759.819 165.242 760.45C166.281 761.081 167.428 761.533 168.685 761.807C169.969 762.081 171.267 762.218 172.579 762.218C176.049 762.218 178.644 761.519 180.366 760.121C182.114 758.723 182.989 756.845 182.989 754.487C182.989 753.473 182.825 752.568 182.497 751.773C182.196 750.978 181.677 750.307 180.939 749.758C180.202 749.182 179.218 748.758 177.989 748.483C176.786 748.182 175.284 748.031 173.48 748.031C173.125 748.031 172.715 748.045 172.251 748.072C171.814 748.072 171.363 748.086 170.898 748.113C170.461 748.141 170.024 748.182 169.587 748.237C169.15 748.264 168.753 748.292 168.398 748.319V741.986Z" fill="white"/>
<path d="M197.085 736.599C197.167 733.912 197.672 731.651 198.601 729.814C199.53 727.95 200.787 726.442 202.372 725.29C203.957 724.139 205.828 723.317 207.987 722.823C210.173 722.302 212.55 722.042 215.118 722.042C217.249 722.042 219.312 722.261 221.307 722.7C223.329 723.138 225.118 723.851 226.676 724.838C228.233 725.798 229.476 727.059 230.405 728.621C231.362 730.157 231.84 732.035 231.84 734.255V759.874C231.84 760.587 232.031 761.204 232.414 761.725C232.796 762.218 233.411 762.465 234.258 762.465C234.64 762.465 235.037 762.438 235.446 762.383C235.856 762.301 236.28 762.218 236.717 762.136V767.359C236.089 767.523 235.46 767.674 234.832 767.811C234.231 767.948 233.507 768.017 232.66 768.017C231.348 768.017 230.214 767.907 229.258 767.688C228.329 767.468 227.536 767.112 226.881 766.618C226.252 766.097 225.76 765.44 225.405 764.644C225.05 763.822 224.818 762.821 224.709 761.643C223.78 762.657 222.796 763.603 221.758 764.48C220.719 765.33 219.558 766.084 218.274 766.742C216.99 767.372 215.555 767.866 213.971 768.222C212.386 768.606 210.596 768.798 208.602 768.798C206.908 768.798 205.255 768.524 203.643 767.975C202.058 767.427 200.623 766.618 199.339 765.549C198.082 764.48 197.071 763.164 196.306 761.601C195.541 760.011 195.159 758.175 195.159 756.091C195.159 753.816 195.541 751.855 196.306 750.211C197.071 748.538 198.069 747.154 199.298 746.057C200.528 744.933 201.935 744.07 203.52 743.467C205.104 742.863 206.716 742.466 208.356 742.274L220.692 740.752C221.867 740.615 222.782 740.163 223.438 739.395C224.121 738.6 224.463 737.339 224.463 735.612C224.463 732.953 223.588 731.048 221.84 729.896C220.118 728.717 217.632 728.128 214.38 728.128C211.047 728.128 208.561 728.841 206.921 730.266C205.282 731.664 204.353 733.775 204.134 736.599H197.085ZM224.299 745.029C223.698 745.468 222.946 745.838 222.045 746.139C221.17 746.414 220.2 746.647 219.135 746.839C218.069 747.03 216.935 747.209 215.733 747.373C214.531 747.51 213.329 747.661 212.126 747.825C210.76 748.017 209.503 748.292 208.356 748.648C207.208 749.004 206.211 749.47 205.364 750.046C204.517 750.622 203.861 751.321 203.397 752.143C202.932 752.938 202.7 753.884 202.7 754.981C202.7 756.242 202.891 757.352 203.274 758.312C203.684 759.271 204.23 760.08 204.913 760.738C205.623 761.396 206.47 761.889 207.454 762.218C208.438 762.547 209.517 762.712 210.692 762.712C211.43 762.712 212.277 762.629 213.233 762.465C214.189 762.273 215.173 761.999 216.184 761.643C217.195 761.286 218.178 760.834 219.135 760.286C220.118 759.71 220.993 759.024 221.758 758.229C222.523 757.434 223.137 756.53 223.602 755.515C224.066 754.501 224.299 753.363 224.299 752.102V745.029Z" fill="white"/>
<path d="M242.043 723.399H269.297V729.978H249.584V767.441H242.043V723.399Z" fill="white"/>
<path d="M304.706 745.358C304.706 742.918 304.432 740.684 303.886 738.655C303.339 736.599 302.52 734.831 301.427 733.35C300.334 731.87 298.981 730.719 297.369 729.896C295.785 729.046 293.94 728.621 291.836 728.621C289.733 728.621 287.888 729.046 286.304 729.896C284.719 730.719 283.38 731.87 282.287 733.35C281.194 734.831 280.375 736.599 279.828 738.655C279.282 740.684 279.008 742.918 279.008 745.358C279.008 747.825 279.282 750.101 279.828 752.184C280.375 754.241 281.194 756.009 282.287 757.489C283.38 758.97 284.719 760.135 286.304 760.985C287.888 761.807 289.733 762.218 291.836 762.218C293.94 762.218 295.785 761.807 297.369 760.985C298.981 760.135 300.334 758.97 301.427 757.489C302.52 756.009 303.339 754.241 303.886 752.184C304.432 750.101 304.706 747.825 304.706 745.358ZM312.247 745.358C312.247 748.977 311.782 752.239 310.853 755.145C309.924 758.024 308.585 760.477 306.837 762.506C305.088 764.535 302.943 766.097 300.402 767.194C297.889 768.263 295.033 768.798 291.836 768.798C288.64 768.798 285.784 768.263 283.271 767.194C280.757 766.097 278.626 764.535 276.877 762.506C275.128 760.477 273.79 758.024 272.861 755.145C271.932 752.239 271.467 748.977 271.467 745.358C271.467 741.794 271.932 738.573 272.861 735.694C273.79 732.816 275.128 730.362 276.877 728.334C278.626 726.305 280.757 724.756 283.271 723.687C285.784 722.59 288.64 722.042 291.836 722.042C295.033 722.042 297.889 722.59 300.402 723.687C302.943 724.756 305.088 726.305 306.837 728.334C308.585 730.362 309.924 732.816 310.853 735.694C311.782 738.573 312.247 741.794 312.247 745.358Z" fill="white"/>
<path d="M348.475 729.978H331.671L331.343 740.547C331.179 745.893 330.769 750.361 330.114 753.953C329.458 757.517 328.556 760.381 327.409 762.547C326.288 764.713 324.922 766.248 323.31 767.153C321.698 768.058 319.854 768.51 317.777 768.51C317.012 768.51 316.343 768.387 315.769 768.14C315.223 767.921 314.799 767.688 314.499 767.441V760.779C315.564 761.19 316.507 761.396 317.327 761.396C317.9 761.396 318.447 761.3 318.966 761.108C319.512 760.916 320.018 760.546 320.482 759.998C320.974 759.449 321.425 758.682 321.835 757.695C322.245 756.68 322.6 755.365 322.9 753.747C323.228 752.13 323.488 750.169 323.679 747.867C323.898 745.564 324.048 742.822 324.13 739.642L324.499 723.399H356.016V767.441H348.475V729.978Z" fill="white"/>
<path d="M395.932 745.358C395.932 742.918 395.659 740.684 395.113 738.655C394.566 736.599 393.747 734.831 392.654 733.35C391.561 731.87 390.208 730.719 388.596 729.896C387.011 729.046 385.167 728.621 383.063 728.621C380.959 728.621 379.115 729.046 377.53 729.896C375.946 730.719 374.607 731.87 373.514 733.35C372.421 734.831 371.601 736.599 371.055 738.655C370.508 740.684 370.235 742.918 370.235 745.358C370.235 747.825 370.508 750.101 371.055 752.184C371.601 754.241 372.421 756.009 373.514 757.489C374.607 758.97 375.946 760.135 377.53 760.985C379.115 761.807 380.959 762.218 383.063 762.218C385.167 762.218 387.011 761.807 388.596 760.985C390.208 760.135 391.561 758.97 392.654 757.489C393.747 756.009 394.566 754.241 395.113 752.184C395.659 750.101 395.932 747.825 395.932 745.358ZM403.474 745.358C403.474 748.977 403.009 752.239 402.08 755.145C401.151 758.024 399.812 760.477 398.064 762.506C396.315 764.535 394.17 766.097 391.629 767.194C389.115 768.263 386.26 768.798 383.063 768.798C379.867 768.798 377.011 768.263 374.498 767.194C371.984 766.097 369.853 764.535 368.104 762.506C366.355 760.477 365.016 758.024 364.088 755.145C363.159 752.239 362.694 748.977 362.694 745.358C362.694 741.794 363.159 738.573 364.088 735.694C365.016 732.816 366.355 730.362 368.104 728.334C369.853 726.305 371.984 724.756 374.498 723.687C377.011 722.59 379.867 722.042 383.063 722.042C386.26 722.042 389.115 722.59 391.629 723.687C394.17 724.756 396.315 726.305 398.064 728.334C399.812 730.362 401.151 732.816 402.08 735.694C403.009 738.573 403.474 741.794 403.474 745.358Z" fill="white"/>
<path d="M410.152 723.399H428.841C434.196 723.399 438.199 724.399 440.849 726.401C443.527 728.402 444.866 731.308 444.866 735.119C444.866 737.147 444.374 738.861 443.39 740.259C442.407 741.657 441.109 742.891 439.497 743.96C441.819 744.837 443.663 746.098 445.03 747.743C446.396 749.388 447.079 751.513 447.079 754.117C447.079 756.173 446.737 758.024 446.054 759.669C445.371 761.314 444.333 762.712 442.939 763.863C441.546 765.015 439.77 765.906 437.611 766.536C435.48 767.139 432.953 767.441 430.029 767.441H410.152V723.399ZM417.693 761.396H429.169C431.163 761.396 432.816 761.245 434.128 760.943C435.467 760.614 436.532 760.148 437.324 759.545C438.117 758.942 438.677 758.216 439.005 757.366C439.333 756.516 439.497 755.556 439.497 754.487C439.497 753.418 439.333 752.459 439.005 751.609C438.677 750.731 438.117 750.005 437.324 749.429C436.532 748.826 435.467 748.374 434.128 748.072C432.816 747.743 431.163 747.579 429.169 747.579H417.693V761.396ZM417.693 742.027H429.087C431.628 742.027 433.636 741.52 435.111 740.506C436.587 739.491 437.324 737.915 437.324 735.777C437.324 734.57 437.12 733.57 436.71 732.775C436.3 731.952 435.753 731.294 435.07 730.801C434.387 730.307 433.609 729.965 432.734 729.773C431.887 729.553 431.013 729.444 430.111 729.444H417.693V742.027Z" fill="white"/>
<path d="M484.946 745.358C484.946 742.918 484.673 740.684 484.126 738.655C483.58 736.599 482.76 734.831 481.667 733.35C480.574 731.87 479.222 730.719 477.61 729.896C476.025 729.046 474.181 728.621 472.077 728.621C469.973 728.621 468.129 729.046 466.544 729.896C464.959 730.719 463.621 731.87 462.528 733.35C461.435 734.831 460.615 736.599 460.069 738.655C459.522 740.684 459.249 742.918 459.249 745.358C459.249 747.825 459.522 750.101 460.069 752.184C460.615 754.241 461.435 756.009 462.528 757.489C463.621 758.97 464.959 760.135 466.544 760.985C468.129 761.807 469.973 762.218 472.077 762.218C474.181 762.218 476.025 761.807 477.61 760.985C479.222 760.135 480.574 758.97 481.667 757.489C482.76 756.009 483.58 754.241 484.126 752.184C484.673 750.101 484.946 747.825 484.946 745.358ZM492.487 745.358C492.487 748.977 492.023 752.239 491.094 755.145C490.165 758.024 488.826 760.477 487.077 762.506C485.329 764.535 483.184 766.097 480.643 767.194C478.129 768.263 475.274 768.798 472.077 768.798C468.88 768.798 466.025 768.263 463.511 767.194C460.998 766.097 458.866 764.535 457.118 762.506C455.369 760.477 454.03 758.024 453.101 755.145C452.172 752.239 451.708 748.977 451.708 745.358C451.708 741.794 452.172 738.573 453.101 735.694C454.03 732.816 455.369 730.362 457.118 728.334C458.866 726.305 460.998 724.756 463.511 723.687C466.025 722.59 468.88 722.042 472.077 722.042C475.274 722.042 478.129 722.59 480.643 723.687C483.184 724.756 485.329 726.305 487.077 728.334C488.826 730.362 490.165 732.816 491.094 735.694C492.023 738.573 492.487 741.794 492.487 745.358Z" fill="white"/>
<path d="M499.165 723.399H506.707V744.7L528.879 723.399H538.756L518.141 742.85L539.084 767.441H529.371L512.239 747.455L506.707 752.102V767.441H499.165V723.399Z" fill="white"/>
<path d="M559.08 741.123H606.089V747.168H559.08V741.123Z" fill="white"/>
<path d="M636.044 752.431C636.536 756.653 638.49 759.573 641.905 761.19C643.654 762.013 645.676 762.424 647.971 762.424C652.343 762.424 655.58 761.026 657.684 758.229C659.788 755.433 660.84 752.335 660.84 748.936C660.84 744.824 659.583 741.643 657.069 739.395C654.583 737.147 651.591 736.023 648.094 736.023C645.553 736.023 643.367 736.517 641.536 737.504C639.733 738.491 638.189 739.861 636.905 741.616L630.511 741.246L634.979 709.541H665.471V716.696H640.512L638.012 733.063C639.378 732.021 640.676 731.239 641.905 730.719C644.091 729.814 646.618 729.362 649.487 729.362C654.87 729.362 659.433 731.102 663.176 734.584C666.919 738.066 668.791 742.48 668.791 747.825C668.791 753.391 667.07 758.298 663.627 762.547C660.212 766.797 654.747 768.921 647.233 768.921C642.452 768.921 638.217 767.578 634.528 764.891C630.867 762.177 628.817 758.024 628.38 752.431H636.044Z" fill="white"/>
<path d="M693.256 708.554C700.852 708.554 706.344 711.693 709.732 717.971C712.355 722.823 713.667 729.471 713.667 737.915C713.667 745.92 712.478 752.541 710.101 757.777C706.658 765.289 701.03 769.045 693.215 769.045C686.166 769.045 680.92 765.974 677.477 759.833C674.608 754.707 673.174 747.825 673.174 739.19C673.174 732.501 674.035 726.757 675.756 721.96C678.98 713.022 684.814 708.554 693.256 708.554ZM693.174 762.301C697 762.301 700.046 760.601 702.314 757.201C704.582 753.802 705.716 747.469 705.716 738.203C705.716 731.514 704.896 726.017 703.257 721.713C701.617 717.381 698.434 715.215 693.707 715.215C689.363 715.215 686.18 717.272 684.158 721.384C682.163 725.469 681.166 731.5 681.166 739.478C681.166 745.481 681.808 750.307 683.092 753.953C685.059 759.518 688.42 762.301 693.174 762.301Z" fill="white"/>
<path d="M739.362 762.465C742.804 762.465 745.66 761.026 747.927 758.147C750.222 755.241 751.37 750.91 751.37 745.153C751.37 741.643 750.865 738.628 749.854 736.106C747.941 731.253 744.444 728.827 739.362 728.827C734.252 728.827 730.755 731.39 728.87 736.517C727.859 739.258 727.353 742.74 727.353 746.962C727.353 750.361 727.859 753.254 728.87 755.639C730.782 760.19 734.28 762.465 739.362 762.465ZM720.263 723.604H727.435V729.444C728.911 727.443 730.523 725.894 732.271 724.797C734.758 723.152 737.681 722.33 741.042 722.33C746.015 722.33 750.236 724.249 753.706 728.087C757.176 731.897 758.911 737.353 758.911 744.453C758.911 754.049 756.411 760.902 751.411 765.015C748.242 767.619 744.553 768.921 740.345 768.921C737.039 768.921 734.266 768.195 732.025 766.742C730.714 765.919 729.252 764.507 727.64 762.506V785H720.263V723.604Z" fill="white"/>
<path d="M761.532 723.399H771.081L781.163 738.902L791.369 723.399L800.344 723.604L785.549 744.865L801 767.441H791.574L780.672 750.91L770.098 767.441H760.753L776.204 744.865L761.532 723.399Z" fill="white"/>
<path d="M6.7443 557H17.0265V625.322H58.0503V557H68.3849V625.322H76.3064V650.956H66.6538V634.376H6.7443V557Z" fill="white"/>
<path d="M84.5426 578.002H94.1953V621.217H94.4052L121.999 578.002H133.068V634.376H123.363V591.161H123.153L95.6117 634.376H84.5426V578.002Z" fill="white"/>
<path d="M162.236 586.424H142.878V578.002H191.247V586.424H171.889V634.376H162.236V586.424Z" fill="white"/>
<path d="M200.899 594.898C201.004 591.459 201.651 588.564 202.84 586.213C204.029 583.827 205.638 581.897 207.667 580.423C209.695 578.949 212.091 577.897 214.854 577.265C217.651 576.598 220.694 576.265 223.982 576.265C226.71 576.265 229.35 576.546 231.903 577.107C234.491 577.669 236.782 578.581 238.775 579.844C240.769 581.072 242.36 582.687 243.549 584.687C244.773 586.652 245.385 589.056 245.385 591.898V624.691C245.385 625.603 245.63 626.392 246.12 627.059C246.609 627.691 247.396 628.007 248.481 628.007C248.97 628.007 249.477 627.972 250.002 627.901C250.526 627.796 251.069 627.691 251.628 627.586V634.27C250.824 634.481 250.019 634.674 249.215 634.849C248.446 635.025 247.519 635.113 246.435 635.113C244.756 635.113 243.304 634.972 242.08 634.691C240.891 634.411 239.877 633.955 239.038 633.323C238.233 632.656 237.604 631.814 237.149 630.796C236.694 629.744 236.397 628.463 236.257 626.954C235.068 628.252 233.809 629.463 232.48 630.586C231.151 631.674 229.665 632.639 228.021 633.481C226.377 634.288 224.541 634.92 222.513 635.376C220.484 635.867 218.194 636.113 215.64 636.113C213.472 636.113 211.356 635.762 209.293 635.06C207.264 634.358 205.428 633.323 203.784 631.954C202.176 630.586 200.882 628.901 199.902 626.901C198.923 624.866 198.434 622.515 198.434 619.848C198.434 616.935 198.923 614.426 199.902 612.321C200.882 610.18 202.158 608.408 203.732 607.005C205.306 605.566 207.107 604.461 209.135 603.689C211.164 602.917 213.227 602.408 215.326 602.162L231.116 600.215C232.62 600.039 233.792 599.46 234.631 598.478C235.505 597.46 235.943 595.846 235.943 593.635C235.943 590.231 234.823 587.792 232.585 586.319C230.382 584.81 227.199 584.055 223.037 584.055C218.771 584.055 215.588 584.968 213.49 586.792C211.391 588.582 210.202 591.284 209.922 594.898H200.899ZM235.733 605.689C234.963 606.25 234.002 606.724 232.847 607.11C231.728 607.461 230.487 607.759 229.123 608.005C227.759 608.25 226.307 608.479 224.769 608.689C223.23 608.865 221.691 609.058 220.152 609.268C218.403 609.514 216.795 609.865 215.326 610.321C213.857 610.777 212.58 611.374 211.496 612.11C210.412 612.847 209.573 613.742 208.978 614.795C208.383 615.813 208.086 617.023 208.086 618.427C208.086 620.041 208.331 621.462 208.821 622.69C209.345 623.919 210.045 624.954 210.919 625.796C211.828 626.638 212.913 627.27 214.172 627.691C215.431 628.112 216.812 628.322 218.316 628.322C219.26 628.322 220.344 628.217 221.568 628.007C222.793 627.761 224.052 627.41 225.346 626.954C226.64 626.498 227.899 625.919 229.123 625.217C230.382 624.48 231.501 623.603 232.48 622.585C233.459 621.567 234.246 620.409 234.841 619.111C235.435 617.813 235.733 616.356 235.733 614.742V605.689Z" fill="white"/>
<path d="M275.76 586.424H256.402V578.002H304.77V586.424H285.412V634.376H275.76V586.424Z" fill="white"/>
<path d="M314.423 594.898C314.528 591.459 315.175 588.564 316.364 586.213C317.553 583.827 319.162 581.897 321.19 580.423C323.219 578.949 325.614 577.897 328.377 577.265C331.175 576.598 334.218 576.265 337.505 576.265C340.233 576.265 342.874 576.546 345.427 577.107C348.015 577.669 350.306 578.581 352.299 579.844C354.293 581.072 355.884 582.687 357.073 584.687C358.297 586.652 358.909 589.056 358.909 591.898V624.691C358.909 625.603 359.154 626.392 359.643 627.059C360.133 627.691 360.92 628.007 362.004 628.007C362.494 628.007 363.001 627.972 363.526 627.901C364.05 627.796 364.592 627.691 365.152 627.586V634.27C364.347 634.481 363.543 634.674 362.739 634.849C361.969 635.025 361.042 635.113 359.958 635.113C358.28 635.113 356.828 634.972 355.604 634.691C354.415 634.411 353.401 633.955 352.561 633.323C351.757 632.656 351.127 631.814 350.673 630.796C350.218 629.744 349.921 628.463 349.781 626.954C348.592 628.252 347.333 629.463 346.004 630.586C344.675 631.674 343.189 632.639 341.545 633.481C339.901 634.288 338.065 634.92 336.036 635.376C334.008 635.867 331.717 636.113 329.164 636.113C326.996 636.113 324.88 635.762 322.816 635.06C320.788 634.358 318.952 633.323 317.308 631.954C315.699 630.586 314.405 628.901 313.426 626.901C312.447 624.866 311.957 622.515 311.957 619.848C311.957 616.935 312.447 614.426 313.426 612.321C314.405 610.18 315.682 608.408 317.256 607.005C318.83 605.566 320.631 604.461 322.659 603.689C324.688 602.917 326.751 602.408 328.849 602.162L344.64 600.215C346.144 600.039 347.315 599.46 348.155 598.478C349.029 597.46 349.466 595.846 349.466 593.635C349.466 590.231 348.347 587.792 346.109 586.319C343.905 584.81 340.723 584.055 336.561 584.055C332.294 584.055 329.112 584.968 327.013 586.792C324.915 588.582 323.726 591.284 323.446 594.898H314.423ZM349.256 605.689C348.487 606.25 347.525 606.724 346.371 607.11C345.252 607.461 344.01 607.759 342.646 608.005C341.282 608.25 339.831 608.479 338.292 608.689C336.753 608.865 335.215 609.058 333.676 609.268C331.927 609.514 330.318 609.865 328.849 610.321C327.381 610.777 326.104 611.374 325.02 612.11C323.936 612.847 323.096 613.742 322.502 614.795C321.907 615.813 321.61 617.023 321.61 618.427C321.61 620.041 321.855 621.462 322.344 622.69C322.869 623.919 323.568 624.954 324.443 625.796C325.352 626.638 326.436 627.27 327.695 627.691C328.954 628.112 330.336 628.322 331.84 628.322C332.784 628.322 333.868 628.217 335.092 628.007C336.316 627.761 337.575 627.41 338.869 626.954C340.163 626.498 341.422 625.919 342.646 625.217C343.905 624.48 345.025 623.603 346.004 622.585C346.983 621.567 347.77 620.409 348.365 619.111C348.959 617.813 349.256 616.356 349.256 614.742V605.689Z" fill="white"/>
<path d="M396.89 600.688H457.062V608.426H396.89V600.688Z" fill="white"/>
<path d="M518.283 558.684C526.677 558.684 532.517 560.878 535.805 565.264C539.127 569.615 540.788 574.107 540.788 578.739H531.45C530.891 575.756 529.999 573.423 528.775 571.738C526.502 568.58 523.057 567.001 518.44 567.001C513.159 567.001 508.962 569.457 505.85 574.37C502.737 579.248 501.006 586.248 500.656 595.372C502.825 592.179 505.553 589.793 508.84 588.213C511.848 586.81 515.205 586.108 518.912 586.108C525.208 586.108 530.698 588.126 535.385 592.161C540.071 596.197 542.415 602.215 542.415 610.216C542.415 617.058 540.194 623.129 535.752 628.428C531.31 633.691 524.98 636.323 516.762 636.323C509.732 636.323 503.664 633.656 498.558 628.322C493.452 622.954 490.899 613.935 490.899 601.267C490.899 591.898 492.035 583.95 494.309 577.423C498.68 564.931 506.672 558.684 518.283 558.684ZM517.601 627.901C522.567 627.901 526.274 626.235 528.722 622.901C531.206 619.532 532.447 615.567 532.447 611.005C532.447 607.145 531.345 603.478 529.142 600.004C526.939 596.495 522.934 594.74 517.129 594.74C513.072 594.74 509.505 596.091 506.427 598.793C503.384 601.495 501.863 605.566 501.863 611.005C501.863 615.777 503.244 619.795 506.007 623.059C508.805 626.287 512.67 627.901 517.601 627.901Z" fill="white"/>
<path d="M582.179 607.689V573.528L558.1 607.689H582.179ZM582.337 634.376V615.953H549.392V606.689L583.806 558.79H591.78V607.689H602.849V615.953H591.78V634.376H582.337Z" fill="white"/>
<path d="M637.105 628.007C641.512 628.007 645.166 626.164 648.069 622.48C651.007 618.76 652.476 613.216 652.476 605.847C652.476 601.355 651.829 597.495 650.535 594.267C648.087 588.056 643.61 584.95 637.105 584.95C630.565 584.95 626.088 588.231 623.675 594.793C622.381 598.302 621.734 602.759 621.734 608.163C621.734 612.514 622.381 616.216 623.675 619.269C626.123 625.094 630.6 628.007 637.105 628.007ZM612.659 578.265H621.839V585.74C623.728 583.178 625.791 581.195 628.029 579.792C631.212 577.686 634.954 576.633 639.256 576.633C645.621 576.633 651.024 579.09 655.466 584.003C659.908 588.88 662.129 595.863 662.129 604.952C662.129 617.234 658.928 626.006 652.528 631.27C648.471 634.604 643.75 636.271 638.364 636.271C634.132 636.271 630.583 635.341 627.715 633.481C626.036 632.428 624.165 630.621 622.101 628.059V656.851H612.659V578.265Z" fill="white"/>
<path d="M667.847 578.002H680.07L692.975 597.846L706.038 578.002L717.526 578.265L698.588 605.478L718.366 634.376H706.3L692.346 613.216L678.811 634.376H666.85L686.627 605.478L667.847 578.002Z" fill="white"/>
</svg>
