<svg width="246" height="155" viewBox="0 0 246 155" fill="none" xmlns="http://www.w3.org/2000/svg">
<rect y="0.733398" width="246" height="154" fill="#9780C8"/>
<path d="M26.776 34.0854V40.1334H24.664V34.0854C22.1253 33.8507 20.0987 32.9654 18.584 31.4294C17.048 29.8507 16.28 27.9521 16.28 25.7334C16.28 23.5147 17.048 21.6161 18.584 20.0374C20.0987 18.5014 22.1253 17.6161 24.664 17.3814V11.3334H26.776V17.3814C29.3147 17.6161 31.3413 18.5014 32.856 20.0374C34.392 21.6161 35.16 23.5147 35.16 25.7334C35.16 27.9521 34.392 29.8507 32.856 31.4294C31.3413 32.9654 29.3147 33.8507 26.776 34.0854ZM24.664 32.0054V19.4614C22.7653 19.6534 21.24 20.3254 20.088 21.4774C18.9573 22.6294 18.392 24.0481 18.392 25.7334C18.392 27.4187 18.9573 28.8374 20.088 29.9894C21.24 31.1414 22.7653 31.8134 24.664 32.0054ZM26.776 19.4614V32.0054C28.6747 31.8134 30.1893 31.1414 31.32 29.9894C32.472 28.8374 33.048 27.4187 33.048 25.7334C33.048 24.0481 32.472 22.6294 31.32 21.4774C30.1893 20.3254 28.6747 19.6534 26.776 19.4614ZM52.0855 31.7174C50.4428 33.3174 48.4588 34.1174 46.1335 34.1174C43.7655 34.1174 41.7708 33.3174 40.1495 31.7174C38.5282 30.0961 37.7175 28.1014 37.7175 25.7334C37.7175 23.3654 38.5282 21.3814 40.1495 19.7814C41.7708 18.1601 43.7655 17.3494 46.1335 17.3494C48.4802 17.3494 50.4642 18.1601 52.0855 19.7814C53.7282 21.3814 54.5495 23.3654 54.5495 25.7334C54.5495 28.0801 53.7282 30.0747 52.0855 31.7174ZM41.6535 30.2454C42.8695 31.4614 44.3628 32.0694 46.1335 32.0694C47.9042 32.0694 49.3975 31.4614 50.6135 30.2454C51.8295 28.9867 52.4375 27.4827 52.4375 25.7334C52.4375 23.9627 51.8295 22.4694 50.6135 21.2534C49.3975 20.0161 47.9042 19.3974 46.1335 19.3974C44.3628 19.3974 42.8695 20.0161 41.6535 21.2534C40.4375 22.4694 39.8295 23.9627 39.8295 25.7334C39.8295 27.4827 40.4375 28.9867 41.6535 30.2454ZM66.6598 17.3494C68.9424 17.3494 70.8838 18.1601 72.4838 19.7814C74.1051 21.4027 74.9158 23.3867 74.9158 25.7334C74.9158 28.0801 74.1051 30.0641 72.4838 31.6854C70.8838 33.3067 68.9424 34.1174 66.6598 34.1174C63.8224 34.1174 61.6678 32.9441 60.1958 30.5974V40.1334H58.0838V17.7334H60.1958V20.8694C61.6678 18.5227 63.8224 17.3494 66.6598 17.3494ZM62.0198 30.2454C63.2358 31.4614 64.7291 32.0694 66.4998 32.0694C68.2704 32.0694 69.7638 31.4614 70.9798 30.2454C72.1958 28.9867 72.8038 27.4827 72.8038 25.7334C72.8038 23.9627 72.1958 22.4694 70.9798 21.2534C69.7638 20.0161 68.2704 19.3974 66.4998 19.3974C64.7291 19.3974 63.2358 20.0161 62.0198 21.2534C60.8038 22.4694 60.1958 23.9627 60.1958 25.7334C60.1958 27.4827 60.8038 28.9867 62.0198 30.2454ZM91.6755 17.7334H94.1075V33.7334H91.9955V20.9654L86.3955 30.0534H86.1395L80.5395 20.9654V33.7334H78.4275V17.7334H80.8595L86.2675 26.5014L91.6755 17.7334ZM112.344 20.8694V17.7334H114.456V33.7334H112.344V30.5974C110.872 32.9441 108.717 34.1174 105.88 34.1174C103.597 34.1174 101.645 33.3067 100.024 31.6854C98.4238 30.0641 97.6238 28.0801 97.6238 25.7334C97.6238 23.3867 98.4238 21.4027 100.024 19.7814C101.645 18.1601 103.597 17.3494 105.88 17.3494C108.717 17.3494 110.872 18.5227 112.344 20.8694ZM101.56 30.2454C102.776 31.4614 104.269 32.0694 106.04 32.0694C107.81 32.0694 109.304 31.4614 110.52 30.2454C111.736 28.9867 112.344 27.4827 112.344 25.7334C112.344 23.9627 111.736 22.4694 110.52 21.2534C109.304 20.0161 107.81 19.3974 106.04 19.3974C104.269 19.3974 102.776 20.0161 101.56 21.2534C100.344 22.4694 99.7358 23.9627 99.7358 25.7334C99.7358 27.4827 100.344 28.9867 101.56 30.2454ZM27.416 57.5094C29.1653 58.1494 30.04 59.3974 30.04 61.2534C30.04 62.5761 29.592 63.6534 28.696 64.4854C27.8213 65.3174 26.5947 65.7334 25.016 65.7334H17.24V49.7334H24.376C25.912 49.7334 27.1067 50.1281 27.96 50.9174C28.8347 51.7067 29.272 52.7414 29.272 54.0214C29.272 55.6214 28.6533 56.7841 27.416 57.5094ZM24.376 51.7814H19.352V56.6454H24.376C26.232 56.6454 27.16 55.8134 27.16 54.1494C27.16 53.4027 26.9147 52.8267 26.424 52.4214C25.9547 51.9947 25.272 51.7814 24.376 51.7814ZM19.352 63.6854H25.016C25.9547 63.6854 26.6693 63.4614 27.16 63.0134C27.672 62.5654 27.928 61.9361 27.928 61.1254C27.928 60.3574 27.672 59.7601 27.16 59.3334C26.6693 58.9067 25.9547 58.6934 25.016 58.6934H19.352V63.6854ZM44.632 49.7334H53.272V65.7334H51.16V51.7814H44.632V65.7334H42.52V51.7814H39.8V49.7334H42.52V49.0934C42.52 44.9974 44.76 42.9494 49.24 42.9494C50.136 42.9494 51.16 43.0774 52.312 43.3334V45.2534C51.2453 45.0827 50.2213 44.9974 49.24 44.9974C47.6187 44.9974 46.4453 45.3174 45.72 45.9574C44.9947 46.5761 44.632 47.6214 44.632 49.0934V49.7334ZM71.5 52.8694V49.7334H73.612V65.0934C73.612 67.3974 72.8227 69.2107 71.244 70.5334C69.6653 71.8561 67.7773 72.5174 65.58 72.5174C61.8467 72.5174 59.3187 71.2161 57.996 68.6134L59.852 67.5574C60.812 69.4987 62.7213 70.4694 65.58 70.4694C67.4147 70.4694 68.8547 69.9894 69.9 69.0294C70.9667 68.0694 71.5 66.7574 71.5 65.0934V62.5974C70.028 64.9441 67.8733 66.1174 65.036 66.1174C62.7533 66.1174 60.8013 65.3067 59.18 63.6854C57.58 62.0641 56.78 60.0801 56.78 57.7334C56.78 55.3867 57.58 53.4027 59.18 51.7814C60.8013 50.1601 62.7533 49.3494 65.036 49.3494C67.8733 49.3494 70.028 50.5227 71.5 52.8694ZM60.716 62.2454C61.932 63.4614 63.4253 64.0694 65.196 64.0694C66.9667 64.0694 68.46 63.4614 69.676 62.2454C70.892 60.9867 71.5 59.4827 71.5 57.7334C71.5 55.9627 70.892 54.4694 69.676 53.2534C68.46 52.0161 66.9667 51.3974 65.196 51.3974C63.4253 51.3974 61.932 52.0161 60.716 53.2534C59.5 54.4694 58.892 55.9627 58.892 57.7334C58.892 59.4827 59.5 60.9867 60.716 62.2454ZM95.1398 49.3494C96.9531 49.3494 98.4038 49.9254 99.4918 51.0774C100.58 52.2294 101.124 53.7867 101.124 55.7494V65.7334H99.0118V55.7494C99.0118 54.3841 98.6598 53.3174 97.9558 52.5494C97.2518 51.7814 96.3024 51.3974 95.1078 51.3974C93.7211 51.3974 92.6331 51.8561 91.8438 52.7734C91.0544 53.6907 90.6598 55.0561 90.6598 56.8694V65.7334H88.5478V55.7494C88.5478 54.3627 88.2171 53.2961 87.5558 52.5494C86.8944 51.7814 85.9771 51.3974 84.8038 51.3974C83.4598 51.3974 82.3504 51.8667 81.4758 52.8054C80.6224 53.7441 80.1958 55.0987 80.1958 56.8694V65.7334H78.0838V49.7334H80.1958V52.0694C81.3478 50.2561 82.9798 49.3494 85.0918 49.3494C87.4171 49.3494 89.0384 50.3201 89.9558 52.2614C91.1078 50.3201 92.8358 49.3494 95.1398 49.3494ZM118.969 52.8694V49.7334H121.081V65.7334H118.969V62.5974C117.497 64.9441 115.342 66.1174 112.505 66.1174C110.222 66.1174 108.27 65.3067 106.649 63.6854C105.049 62.0641 104.249 60.0801 104.249 57.7334C104.249 55.3867 105.049 53.4027 106.649 51.7814C108.27 50.1601 110.222 49.3494 112.505 49.3494C115.342 49.3494 117.497 50.5227 118.969 52.8694ZM108.185 62.2454C109.401 63.4614 110.894 64.0694 112.665 64.0694C114.435 64.0694 115.929 63.4614 117.145 62.2454C118.361 60.9867 118.969 59.4827 118.969 57.7334C118.969 55.9627 118.361 54.4694 117.145 53.2534C115.929 52.0161 114.435 51.3974 112.665 51.3974C110.894 51.3974 109.401 52.0161 108.185 53.2534C106.969 54.4694 106.361 55.9627 106.361 57.7334C106.361 59.4827 106.969 60.9867 108.185 62.2454ZM126.513 63.0134H129.073L127.153 70.2134H125.233L126.513 63.0134ZM154.648 63.7174C153.005 65.3174 151.021 66.1174 148.696 66.1174C146.328 66.1174 144.333 65.3174 142.712 63.7174C141.091 62.0961 140.28 60.1014 140.28 57.7334C140.28 55.3654 141.091 53.3814 142.712 51.7814C144.333 50.1601 146.328 49.3494 148.696 49.3494C151.043 49.3494 153.027 50.1601 154.648 51.7814C156.291 53.3814 157.112 55.3654 157.112 57.7334C157.112 60.0801 156.291 62.0747 154.648 63.7174ZM144.216 62.2454C145.432 63.4614 146.925 64.0694 148.696 64.0694C150.467 64.0694 151.96 63.4614 153.176 62.2454C154.392 60.9867 155 59.4827 155 57.7334C155 55.9627 154.392 54.4694 153.176 53.2534C151.96 52.0161 150.467 51.3974 148.696 51.3974C146.925 51.3974 145.432 52.0161 144.216 53.2534C143 54.4694 142.392 55.9627 142.392 57.7334C142.392 59.4827 143 60.9867 144.216 62.2454ZM167.75 66.1174C165.468 66.1174 163.548 65.3601 161.99 63.8454C160.454 62.3094 159.686 60.3254 159.686 57.8934C159.686 55.1627 160.092 53.0721 160.902 51.6214C161.713 50.1494 163.356 48.8161 165.83 47.6214C166.62 47.2587 167.238 46.9814 167.686 46.7894C168.433 46.4907 169.02 46.2347 169.446 46.0214C171.302 45.1681 172.241 44.1121 172.262 42.8534L173.926 43.8134C173.82 44.3467 173.649 44.8267 173.414 45.2534C173.137 45.7227 172.86 46.0961 172.582 46.3734C172.326 46.6507 171.921 46.9494 171.366 47.2694C171.004 47.4827 170.566 47.7174 170.054 47.9734L168.454 48.6454L166.95 49.2854C165.478 49.9254 164.38 50.5974 163.654 51.3014C162.95 51.9841 162.449 52.8801 162.15 53.9894C162.833 53.0721 163.729 52.3787 164.838 51.9094C165.948 51.4187 167.068 51.1734 168.198 51.1734C170.332 51.1734 172.092 51.8774 173.478 53.2854C174.886 54.6721 175.59 56.4534 175.59 58.6294C175.59 60.7841 174.844 62.5761 173.35 64.0054C171.878 65.4134 170.012 66.1174 167.75 66.1174ZM163.59 62.4374C164.7 63.4827 166.086 64.0054 167.75 64.0054C169.414 64.0054 170.78 63.5041 171.846 62.5014C172.934 61.4774 173.478 60.1867 173.478 58.6294C173.478 57.0507 172.966 55.7601 171.942 54.7574C170.94 53.7334 169.596 53.2214 167.91 53.2214C166.396 53.2214 165.02 53.7014 163.782 54.6614C162.545 55.5787 161.926 56.8374 161.926 58.4374C161.926 60.0587 162.481 61.3921 163.59 62.4374ZM182.53 55.8134H186.914C188.386 55.8134 189.644 56.2827 190.69 57.2214C191.735 58.1387 192.258 59.3227 192.258 60.7734C192.258 62.2454 191.735 63.4401 190.69 64.3574C189.687 65.2747 188.428 65.7334 186.914 65.7334H180.418V51.7814H175.938V49.7334H182.53V55.8134ZM182.53 63.6854H186.914C187.831 63.6854 188.599 63.4187 189.218 62.8854C189.836 62.3307 190.146 61.6267 190.146 60.7734C190.146 59.9201 189.836 59.2267 189.218 58.6934C188.599 58.1387 187.831 57.8614 186.914 57.8614H182.53V63.6854ZM200.903 45.8934C200.903 46.2987 200.764 46.6401 200.487 46.9174C200.209 47.1947 199.868 47.3334 199.463 47.3334C199.057 47.3334 198.716 47.1947 198.439 46.9174C198.161 46.6401 198.023 46.2987 198.023 45.8934C198.023 45.4881 198.161 45.1467 198.439 44.8694C198.716 44.5921 199.057 44.4534 199.463 44.4534C199.868 44.4534 200.209 44.5921 200.487 44.8694C200.764 45.1467 200.903 45.4881 200.903 45.8934ZM206.983 45.8934C206.983 46.2987 206.844 46.6401 206.567 46.9174C206.289 47.1947 205.948 47.3334 205.543 47.3334C205.137 47.3334 204.796 47.1947 204.519 46.9174C204.241 46.6401 204.103 46.2987 204.103 45.8934C204.103 45.4881 204.241 45.1467 204.519 44.8694C204.796 44.5921 205.137 44.4534 205.543 44.4534C205.948 44.4534 206.289 44.5921 206.567 44.8694C206.844 45.1467 206.983 45.4881 206.983 45.8934ZM202.695 49.3494C205.084 49.3494 206.993 50.1921 208.423 51.8774C209.895 53.5414 210.631 55.5147 210.631 57.7974C210.631 57.9041 210.609 58.2347 210.567 58.7894H196.519C196.732 60.3894 197.415 61.6694 198.567 62.6294C199.719 63.5894 201.159 64.0694 202.887 64.0694C205.319 64.0694 207.036 63.1627 208.039 61.3494L209.895 62.4374C209.191 63.5894 208.22 64.4961 206.983 65.1574C205.767 65.7974 204.391 66.1174 202.855 66.1174C200.337 66.1174 198.289 65.3281 196.711 63.7494C195.132 62.1707 194.343 60.1654 194.343 57.7334C194.343 55.3227 195.121 53.3281 196.679 51.7494C198.236 50.1494 200.241 49.3494 202.695 49.3494ZM202.695 51.3974C201.031 51.3974 199.633 51.8881 198.503 52.8694C197.393 53.8507 196.732 55.1414 196.519 56.7414H208.455C208.22 55.0347 207.569 53.7227 206.503 52.8054C205.393 51.8667 204.124 51.3974 202.695 51.3974ZM227.238 49.7334H229.67V65.7334H227.558V52.9654L221.958 62.0534H221.702L216.102 52.9654V65.7334H213.99V49.7334H216.422L221.83 58.5014L227.238 49.7334ZM27.416 89.5094C29.1653 90.1494 30.04 91.3974 30.04 93.2534C30.04 94.5761 29.592 95.6534 28.696 96.4854C27.8213 97.3174 26.5947 97.7334 25.016 97.7334H17.24V81.7334H24.376C25.912 81.7334 27.1067 82.1281 27.96 82.9174C28.8347 83.7067 29.272 84.7414 29.272 86.0214C29.272 87.6214 28.6533 88.7841 27.416 89.5094ZM24.376 83.7814H19.352V88.6454H24.376C26.232 88.6454 27.16 87.8134 27.16 86.1494C27.16 85.4027 26.9147 84.8267 26.424 84.4214C25.9547 83.9947 25.272 83.7814 24.376 83.7814ZM19.352 95.6854H25.016C25.9547 95.6854 26.6693 95.4614 27.16 95.0134C27.672 94.5654 27.928 93.9361 27.928 93.1254C27.928 92.3574 27.672 91.7601 27.16 91.3334C26.6693 90.9067 25.9547 90.6934 25.016 90.6934H19.352V95.6854ZM48.696 98.1174C46.2853 98.1174 44.28 97.3174 42.68 95.7174C41.08 94.0747 40.28 92.0801 40.28 89.7334C40.28 87.3654 41.08 85.3814 42.68 83.7814C44.28 82.1601 46.2853 81.3494 48.696 81.3494C50.2747 81.3494 51.6933 81.7334 52.952 82.5014C54.2107 83.2481 55.128 84.2614 55.704 85.5414L53.976 86.5334C53.5493 85.5734 52.856 84.8161 51.896 84.2614C50.9573 83.6854 49.8907 83.3974 48.696 83.3974C46.9253 83.3974 45.432 84.0161 44.216 85.2534C43 86.4694 42.392 87.9627 42.392 89.7334C42.392 91.4827 43 92.9867 44.216 94.2454C45.432 95.4614 46.9253 96.0694 48.696 96.0694C49.8693 96.0694 50.9253 95.7921 51.864 95.2374C52.824 94.6827 53.5707 93.9147 54.104 92.9334L55.864 93.9574C55.2027 95.2374 54.232 96.2507 52.952 96.9974C51.672 97.7441 50.2533 98.1174 48.696 98.1174ZM61.4883 76.8054C61.4883 77.2321 61.3389 77.5947 61.0403 77.8934C60.7416 78.1921 60.3789 78.3414 59.9523 78.3414C59.5256 78.3414 59.1629 78.1921 58.8643 77.8934C58.5656 77.5947 58.4163 77.2321 58.4163 76.8054C58.4163 76.3787 58.5656 76.0161 58.8643 75.7174C59.1629 75.4187 59.5256 75.2694 59.9523 75.2694C60.3789 75.2694 60.7416 75.4187 61.0403 75.7174C61.3389 76.0161 61.4883 76.3787 61.4883 76.8054ZM61.0083 97.7334H58.8963V81.7334H61.0083V97.7334ZM72.978 81.3494C74.898 81.3494 76.4233 81.9467 77.554 83.1414C78.6847 84.3147 79.25 85.9041 79.25 87.9094V97.7334H77.138V87.9094C77.138 86.4801 76.754 85.3707 75.986 84.5814C75.2393 83.7921 74.1727 83.3974 72.786 83.3974C71.186 83.3974 69.9167 83.8987 68.978 84.9014C68.0607 85.9041 67.602 87.3867 67.602 89.3494V97.7334H65.49V81.7334H67.602V84.2294C68.7967 82.3094 70.5887 81.3494 72.978 81.3494ZM90.7258 81.3494C93.1151 81.3494 95.0244 82.1921 96.4538 83.8774C97.9258 85.5414 98.6618 87.5147 98.6618 89.7974C98.6618 89.9041 98.6404 90.2347 98.5978 90.7894H84.5498C84.7631 92.3894 85.4458 93.6694 86.5978 94.6294C87.7498 95.5894 89.1898 96.0694 90.9178 96.0694C93.3498 96.0694 95.0671 95.1627 96.0698 93.3494L97.9258 94.4374C97.2218 95.5894 96.2511 96.4961 95.0138 97.1574C93.7978 97.7974 92.4218 98.1174 90.8858 98.1174C88.3684 98.1174 86.3204 97.3281 84.7418 95.7494C83.1631 94.1707 82.3738 92.1654 82.3738 89.7334C82.3738 87.3227 83.1524 85.3281 84.7098 83.7494C86.2671 82.1494 88.2724 81.3494 90.7258 81.3494ZM90.7258 83.3974C89.0618 83.3974 87.6644 83.8881 86.5338 84.8694C85.4244 85.8507 84.7631 87.1414 84.5498 88.7414H96.4858C96.2511 87.0347 95.6004 85.7227 94.5338 84.8054C93.4244 83.8667 92.1551 83.3974 90.7258 83.3974ZM119.077 81.3494C120.891 81.3494 122.341 81.9254 123.429 83.0774C124.517 84.2294 125.061 85.7867 125.061 87.7494V97.7334H122.949V87.7494C122.949 86.3841 122.597 85.3174 121.893 84.5494C121.189 83.7814 120.24 83.3974 119.045 83.3974C117.659 83.3974 116.571 83.8561 115.781 84.7734C114.992 85.6907 114.597 87.0561 114.597 88.8694V97.7334H112.485V87.7494C112.485 86.3627 112.155 85.2961 111.493 84.5494C110.832 83.7814 109.915 83.3974 108.741 83.3974C107.397 83.3974 106.288 83.8667 105.413 84.8054C104.56 85.7441 104.133 87.0987 104.133 88.8694V97.7334H102.021V81.7334H104.133V84.0694C105.285 82.2561 106.917 81.3494 109.029 81.3494C111.355 81.3494 112.976 82.3201 113.893 84.2614C115.045 82.3201 116.773 81.3494 119.077 81.3494ZM142.906 84.8694V81.7334H145.018V97.7334H142.906V94.5974C141.434 96.9441 139.28 98.1174 136.442 98.1174C134.16 98.1174 132.208 97.3067 130.586 95.6854C128.986 94.0641 128.186 92.0801 128.186 89.7334C128.186 87.3867 128.986 85.4027 130.586 83.7814C132.208 82.1601 134.16 81.3494 136.442 81.3494C139.28 81.3494 141.434 82.5227 142.906 84.8694ZM132.122 94.2454C133.338 95.4614 134.832 96.0694 136.602 96.0694C138.373 96.0694 139.866 95.4614 141.082 94.2454C142.298 92.9867 142.906 91.4827 142.906 89.7334C142.906 87.9627 142.298 86.4694 141.082 85.2534C139.866 84.0161 138.373 83.3974 136.602 83.3974C134.832 83.3974 133.338 84.0161 132.122 85.2534C130.906 86.4694 130.298 87.9627 130.298 89.7334C130.298 91.4827 130.906 92.9867 132.122 94.2454ZM170.13 91.1414H173.01V93.2534H170.13V97.7334H167.89V93.2534H156.05V91.1414L164.37 75.3334H166.834L158.514 91.1414H167.89V84.2934H170.13V91.1414ZM189.812 84.8694V75.3334H191.925V97.7334H189.812V94.5974C188.341 96.9441 186.186 98.1174 183.349 98.1174C181.066 98.1174 179.114 97.3067 177.493 95.6854C175.893 94.0641 175.093 92.0801 175.093 89.7334C175.093 87.3867 175.893 85.4027 177.493 83.7814C179.114 82.1601 181.066 81.3494 183.349 81.3494C186.186 81.3494 188.341 82.5227 189.812 84.8694ZM179.029 94.2454C180.245 95.4614 181.738 96.0694 183.509 96.0694C185.279 96.0694 186.773 95.4614 187.989 94.2454C189.205 92.9867 189.812 91.4827 189.812 89.7334C189.812 87.9627 189.205 86.4694 187.989 85.2534C186.773 84.0161 185.279 83.3974 183.509 83.3974C181.738 83.3974 180.245 84.0161 179.029 85.2534C177.813 86.4694 177.205 87.9627 177.205 89.7334C177.205 91.4827 177.813 92.9867 179.029 94.2454Z" fill="#F4F4F4"/>
<path d="M229.709 131.876C230.099 131.486 230.099 130.852 229.709 130.462L223.345 124.098C222.954 123.707 222.321 123.707 221.931 124.098C221.54 124.488 221.54 125.122 221.931 125.512L227.588 131.169L221.931 136.826C221.54 137.216 221.54 137.849 221.931 138.24C222.321 138.631 222.954 138.631 223.345 138.24L229.709 131.876ZM179.223 132.169L229.002 132.169L229.002 130.169L179.223 130.169L179.223 132.169Z" fill="#F4F4F4"/>
</svg>
