<svg width="246" height="155" viewBox="0 0 246 155" fill="none" xmlns="http://www.w3.org/2000/svg">
<rect y="0.733398" width="246" height="154" fill="#9780C8"/>
<path d="M31 20.8694V17.7334H33.112V33.7334H31V30.5974C29.528 32.9441 27.3733 34.1174 24.536 34.1174C22.2533 34.1174 20.3013 33.3067 18.68 31.6854C17.08 30.0641 16.28 28.0801 16.28 25.7334C16.28 23.3867 17.08 21.4027 18.68 19.7814C20.3013 18.1601 22.2533 17.3494 24.536 17.3494C27.3733 17.3494 29.528 18.5227 31 20.8694ZM20.216 30.2454C21.432 31.4614 22.9253 32.0694 24.696 32.0694C26.4667 32.0694 27.96 31.4614 29.176 30.2454C30.392 28.9867 31 27.4827 31 25.7334C31 23.9627 30.392 22.4694 29.176 21.2534C27.96 20.0161 26.4667 19.3974 24.696 19.3974C22.9253 19.3974 21.432 20.0161 20.216 21.2534C19 22.4694 18.392 23.9627 18.392 25.7334C18.392 27.4827 19 28.9867 20.216 30.2454ZM48.9118 24.7094V17.7334H51.0238V33.7334H48.9118V26.7574H39.6958V33.7334H37.5838V17.7334H39.6958V24.7094H48.9118ZM57.602 30.0534L67.138 17.7334H68.93V33.7334H66.818V21.4134L57.282 33.7334H55.49V17.7334H57.602V30.0534ZM86.6443 17.7334H89.0763V33.7334H86.9643V20.9654L81.3643 30.0534H81.1083L75.5083 20.9654V33.7334H73.3963V17.7334H75.8283L81.2363 26.5014L86.6443 17.7334ZM107.312 20.8694V17.7334H109.425V33.7334H107.312V30.5974C105.841 32.9441 103.686 34.1174 100.849 34.1174C98.5658 34.1174 96.6138 33.3067 94.9925 31.6854C93.3925 30.0641 92.5925 28.0801 92.5925 25.7334C92.5925 23.3867 93.3925 21.4027 94.9925 19.7814C96.6138 18.1601 98.5658 17.3494 100.849 17.3494C103.686 17.3494 105.841 18.5227 107.312 20.8694ZM96.5285 30.2454C97.7445 31.4614 99.2378 32.0694 101.009 32.0694C102.779 32.0694 104.273 31.4614 105.489 30.2454C106.705 28.9867 107.312 27.4827 107.312 25.7334C107.312 23.9627 106.705 22.4694 105.489 21.2534C104.273 20.0161 102.779 19.3974 101.009 19.3974C99.2378 19.3974 97.7445 20.0161 96.5285 21.2534C95.3125 22.4694 94.7045 23.9627 94.7045 25.7334C94.7045 27.4827 95.3125 28.9867 96.5285 30.2454ZM127.016 17.7334V31.6854H129.576V38.0214H127.464V33.7334H113.896V17.7334H116.008V31.6854H124.904V17.7334H127.016ZM134.883 30.0534L144.419 17.7334H146.211V33.7334H144.099V21.4134L134.563 33.7334H132.771V17.7334H134.883V30.0534ZM155.702 17.7334H162.198V33.7334H160.086V27.5894H157.334L152.406 33.7334H149.718L154.774 27.5254C153.472 27.3334 152.406 26.8001 151.574 25.9254C150.763 25.0294 150.358 23.9521 150.358 22.6934C150.358 21.2641 150.87 20.0801 151.894 19.1414C152.96 18.2027 154.23 17.7334 155.702 17.7334ZM155.702 25.6054H160.086V19.7814H155.702C154.784 19.7814 154.016 20.0587 153.398 20.6134C152.779 21.1467 152.47 21.8401 152.47 22.6934C152.47 23.5467 152.779 24.2507 153.398 24.8054C154.016 25.3387 154.784 25.6054 155.702 25.6054ZM27.416 57.5094C29.1653 58.1494 30.04 59.3974 30.04 61.2534C30.04 62.5761 29.592 63.6534 28.696 64.4854C27.8213 65.3174 26.5947 65.7334 25.016 65.7334H17.24V49.7334H24.376C25.912 49.7334 27.1067 50.1281 27.96 50.9174C28.8347 51.7067 29.272 52.7414 29.272 54.0214C29.272 55.6214 28.6533 56.7841 27.416 57.5094ZM24.376 51.7814H19.352V56.6454H24.376C26.232 56.6454 27.16 55.8134 27.16 54.1494C27.16 53.4027 26.9147 52.8267 26.424 52.4214C25.9547 51.9947 25.272 51.7814 24.376 51.7814ZM19.352 63.6854H25.016C25.9547 63.6854 26.6693 63.4614 27.16 63.0134C27.672 62.5654 27.928 61.9361 27.928 61.1254C27.928 60.3574 27.672 59.7601 27.16 59.3334C26.6693 58.9067 25.9547 58.6934 25.016 58.6934H19.352V63.6854ZM48.696 66.1174C46.2853 66.1174 44.28 65.3174 42.68 63.7174C41.08 62.0747 40.28 60.0801 40.28 57.7334C40.28 55.3654 41.08 53.3814 42.68 51.7814C44.28 50.1601 46.2853 49.3494 48.696 49.3494C50.2747 49.3494 51.6933 49.7334 52.952 50.5014C54.2107 51.2481 55.128 52.2614 55.704 53.5414L53.976 54.5334C53.5493 53.5734 52.856 52.8161 51.896 52.2614C50.9573 51.6854 49.8907 51.3974 48.696 51.3974C46.9253 51.3974 45.432 52.0161 44.216 53.2534C43 54.4694 42.392 55.9627 42.392 57.7334C42.392 59.4827 43 60.9867 44.216 62.2454C45.432 63.4614 46.9253 64.0694 48.696 64.0694C49.8693 64.0694 50.9253 63.7921 51.864 63.2374C52.824 62.6827 53.5707 61.9147 54.104 60.9334L55.864 61.9574C55.2027 63.2374 54.232 64.2507 52.952 64.9974C51.672 65.7441 50.2533 66.1174 48.696 66.1174ZM61.4883 44.8054C61.4883 45.2321 61.3389 45.5947 61.0403 45.8934C60.7416 46.1921 60.3789 46.3414 59.9523 46.3414C59.5256 46.3414 59.1629 46.1921 58.8643 45.8934C58.5656 45.5947 58.4163 45.2321 58.4163 44.8054C58.4163 44.3787 58.5656 44.0161 58.8643 43.7174C59.1629 43.4187 59.5256 43.2694 59.9523 43.2694C60.3789 43.2694 60.7416 43.4187 61.0403 43.7174C61.3389 44.0161 61.4883 44.3787 61.4883 44.8054ZM61.0083 65.7334H58.8963V49.7334H61.0083V65.7334ZM72.978 49.3494C74.898 49.3494 76.4233 49.9467 77.554 51.1414C78.6847 52.3147 79.25 53.9041 79.25 55.9094V65.7334H77.138V55.9094C77.138 54.4801 76.754 53.3707 75.986 52.5814C75.2393 51.7921 74.1727 51.3974 72.786 51.3974C71.186 51.3974 69.9167 51.8987 68.978 52.9014C68.0607 53.9041 67.602 55.3867 67.602 57.3494V65.7334H65.49V49.7334H67.602V52.2294C68.7967 50.3094 70.5887 49.3494 72.978 49.3494ZM90.7258 49.3494C93.1151 49.3494 95.0244 50.1921 96.4538 51.8774C97.9258 53.5414 98.6618 55.5147 98.6618 57.7974C98.6618 57.9041 98.6404 58.2347 98.5978 58.7894H84.5498C84.7631 60.3894 85.4458 61.6694 86.5978 62.6294C87.7498 63.5894 89.1898 64.0694 90.9178 64.0694C93.3498 64.0694 95.0671 63.1627 96.0698 61.3494L97.9258 62.4374C97.2218 63.5894 96.2511 64.4961 95.0138 65.1574C93.7978 65.7974 92.4218 66.1174 90.8858 66.1174C88.3684 66.1174 86.3204 65.3281 84.7418 63.7494C83.1631 62.1707 82.3738 60.1654 82.3738 57.7334C82.3738 55.3227 83.1524 53.3281 84.7098 51.7494C86.2671 50.1494 88.2724 49.3494 90.7258 49.3494ZM90.7258 51.3974C89.0618 51.3974 87.6644 51.8881 86.5338 52.8694C85.4244 53.8507 84.7631 55.1414 84.5498 56.7414H96.4858C96.2511 55.0347 95.6004 53.7227 94.5338 52.8054C93.4244 51.8667 92.1551 51.3974 90.7258 51.3974ZM119.077 49.3494C120.891 49.3494 122.341 49.9254 123.429 51.0774C124.517 52.2294 125.061 53.7867 125.061 55.7494V65.7334H122.949V55.7494C122.949 54.3841 122.597 53.3174 121.893 52.5494C121.189 51.7814 120.24 51.3974 119.045 51.3974C117.659 51.3974 116.571 51.8561 115.781 52.7734C114.992 53.6907 114.597 55.0561 114.597 56.8694V65.7334H112.485V55.7494C112.485 54.3627 112.155 53.2961 111.493 52.5494C110.832 51.7814 109.915 51.3974 108.741 51.3974C107.397 51.3974 106.288 51.8667 105.413 52.8054C104.56 53.7441 104.133 55.0987 104.133 56.8694V65.7334H102.021V49.7334H104.133V52.0694C105.285 50.2561 106.917 49.3494 109.029 49.3494C111.355 49.3494 112.976 50.3201 113.893 52.2614C115.045 50.3201 116.773 49.3494 119.077 49.3494ZM142.906 52.8694V49.7334H145.018V65.7334H142.906V62.5974C141.434 64.9441 139.28 66.1174 136.442 66.1174C134.16 66.1174 132.208 65.3067 130.586 63.6854C128.986 62.0641 128.186 60.0801 128.186 57.7334C128.186 55.3867 128.986 53.4027 130.586 51.7814C132.208 50.1601 134.16 49.3494 136.442 49.3494C139.28 49.3494 141.434 50.5227 142.906 52.8694ZM132.122 62.2454C133.338 63.4614 134.832 64.0694 136.602 64.0694C138.373 64.0694 139.866 63.4614 141.082 62.2454C142.298 60.9867 142.906 59.4827 142.906 57.7334C142.906 55.9627 142.298 54.4694 141.082 53.2534C139.866 52.0161 138.373 51.3974 136.602 51.3974C134.832 51.3974 133.338 52.0161 132.122 53.2534C130.906 54.4694 130.298 55.9627 130.298 57.7334C130.298 59.4827 130.906 60.9867 132.122 62.2454ZM170.13 59.1414H173.01V61.2534H170.13V65.7334H167.89V61.2534H156.05V59.1414L164.37 43.3334H166.834L158.514 59.1414H167.89V52.2934H170.13V59.1414ZM189.812 52.8694V43.3334H191.925V65.7334H189.812V62.5974C188.341 64.9441 186.186 66.1174 183.349 66.1174C181.066 66.1174 179.114 65.3067 177.493 63.6854C175.893 62.0641 175.093 60.0801 175.093 57.7334C175.093 55.3867 175.893 53.4027 177.493 51.7814C179.114 50.1601 181.066 49.3494 183.349 49.3494C186.186 49.3494 188.341 50.5227 189.812 52.8694ZM179.029 62.2454C180.245 63.4614 181.738 64.0694 183.509 64.0694C185.279 64.0694 186.773 63.4614 187.989 62.2454C189.205 60.9867 189.812 59.4827 189.812 57.7334C189.812 55.9627 189.205 54.4694 187.989 53.2534C186.773 52.0161 185.279 51.3974 183.509 51.3974C181.738 51.3974 180.245 52.0161 179.029 53.2534C177.813 54.4694 177.205 55.9627 177.205 57.7334C177.205 59.4827 177.813 60.9867 179.029 62.2454ZM200.076 51.1734C200.076 51.6641 199.906 52.0801 199.564 52.4214C199.223 52.7627 198.807 52.9334 198.316 52.9334C197.826 52.9334 197.41 52.7627 197.068 52.4214C196.727 52.0801 196.556 51.6641 196.556 51.1734C196.556 50.6827 196.727 50.2667 197.068 49.9254C197.41 49.5841 197.826 49.4134 198.316 49.4134C198.807 49.4134 199.223 49.5841 199.564 49.9254C199.906 50.2667 200.076 50.6827 200.076 51.1734ZM197.356 63.0134H199.916L197.996 70.2134H196.076L197.356 63.0134ZM21.592 89.4134L30.168 97.7334H27.352L19.352 90.0214V97.7334H17.24V81.7334H19.352V88.8054L26.968 81.7334H29.848L21.592 89.4134ZM34.7165 81.7334H46.1725V97.7334H44.0605V83.7814H36.8285V90.9174C36.8285 93.5841 36.3165 95.4187 35.2925 96.4214C34.2898 97.4241 32.9032 97.8614 31.1325 97.7334V95.7494C32.3698 95.8774 33.2765 95.5787 33.8525 94.8534C34.4285 94.1281 34.7165 92.8161 34.7165 90.9174V81.7334ZM64.3103 81.3494C66.6569 81.3494 68.6409 82.1601 70.2623 83.7814C71.9049 85.3814 72.7263 87.3654 72.7263 89.7334C72.7263 92.0801 71.9049 94.0747 70.2623 95.7174C68.6196 97.3174 66.6356 98.1174 64.3103 98.1174C62.1769 98.1174 60.3209 97.4241 58.7423 96.0374C57.1849 94.6081 56.2996 92.8481 56.0863 90.7574H52.7583V97.7334H50.6463V81.7334H52.7583V88.7094H56.0863C56.3209 86.5974 57.2063 84.8481 58.7423 83.4614C60.2996 82.0534 62.1556 81.3494 64.3103 81.3494ZM59.8303 94.2454C61.0463 95.4614 62.5396 96.0694 64.3103 96.0694C66.0809 96.0694 67.5743 95.4614 68.7903 94.2454C70.0063 92.9867 70.6143 91.4827 70.6143 89.7334C70.6143 87.9627 70.0063 86.4694 68.7903 85.2534C67.5743 84.0161 66.0809 83.3974 64.3103 83.3974C62.5396 83.3974 61.0463 84.0161 59.8303 85.2534C58.6143 86.4694 58.0063 87.9627 58.0063 89.7334C58.0063 91.4827 58.6143 92.9867 59.8303 94.2454ZM86.2955 89.7014V81.7334H88.4075V97.7334H86.2955V91.6534C85.0582 92.2934 83.5328 92.6134 81.7195 92.6134C79.6075 92.6134 78.0075 92.1334 76.9195 91.1734C75.8315 90.1921 75.2875 88.7521 75.2875 86.8534V81.7334H77.3995V86.8534C77.3995 88.1761 77.7408 89.1361 78.4235 89.7334C79.1275 90.3307 80.2048 90.6294 81.6555 90.6294C83.2768 90.6294 84.8235 90.3201 86.2955 89.7014ZM95.0083 94.0534L104.544 81.7334H106.336V97.7334H104.224V85.4134L94.6883 97.7334H92.8963V81.7334H95.0083V94.0534Z" fill="#F4F4F4"/>
<path d="M229.709 131.876C230.099 131.486 230.099 130.852 229.709 130.462L223.345 124.098C222.954 123.707 222.321 123.707 221.931 124.098C221.54 124.488 221.54 125.122 221.931 125.512L227.588 131.169L221.931 136.826C221.54 137.216 221.54 137.849 221.931 138.24C222.321 138.631 222.954 138.631 223.345 138.24L229.709 131.876ZM179.223 132.169L229.002 132.169L229.002 130.169L179.223 130.169L179.223 132.169Z" fill="#F4F4F4"/>
</svg>
