<svg width="989" height="52" viewBox="0 0 989 52" fill="none" xmlns="http://www.w3.org/2000/svg">
<path d="M795.5 0.5H982C985.59 0.5 988.5 3.41015 988.5 7V45C988.5 48.5899 985.59 51.5 982 51.5H795.5V0.5Z" fill="#F4F4F4" stroke="#F4F4F4"/>
<path d="M825.64 35H814.96V33.488L821.008 27.392C822.736 25.664 823.6 24.184 823.6 22.952C823.6 21.912 823.272 21.088 822.616 20.48C821.976 19.856 821.176 19.544 820.216 19.544C818.504 19.544 817.248 20.336 816.448 21.92L815.032 21.08C815.544 20.056 816.256 19.272 817.168 18.728C818.08 18.184 819.096 17.912 820.216 17.912C821.56 17.912 822.736 18.368 823.744 19.28C824.768 20.16 825.28 21.384 825.28 22.952C825.28 23.88 825.024 24.792 824.512 25.688C824 26.568 823.216 27.536 822.16 28.592L817.36 33.368H825.64V35ZM838.615 32.936C837.511 34.504 835.951 35.288 833.935 35.288C831.935 35.288 830.367 34.504 829.231 32.936C828.127 31.352 827.575 29.24 827.575 26.6C827.575 23.944 828.127 21.84 829.231 20.288C830.367 18.704 831.935 17.912 833.935 17.912C835.951 17.912 837.511 18.704 838.615 20.288C839.735 21.84 840.295 23.944 840.295 26.6C840.295 29.256 839.735 31.368 838.615 32.936ZM830.479 31.808C831.327 33.04 832.479 33.656 833.935 33.656C835.407 33.656 836.551 33.04 837.367 31.808C838.199 30.592 838.615 28.856 838.615 26.6C838.615 24.344 838.199 22.608 837.367 21.392C836.551 20.16 835.407 19.544 833.935 19.544C832.479 19.544 831.327 20.16 830.479 21.392C829.663 22.624 829.255 24.36 829.255 26.6C829.255 28.84 829.663 30.576 830.479 31.808ZM846.135 25.112C845.079 25.112 844.207 24.768 843.519 24.08C842.815 23.376 842.463 22.52 842.463 21.512C842.463 20.52 842.815 19.672 843.519 18.968C844.223 18.264 845.095 17.912 846.135 17.912C847.175 17.912 848.047 18.264 848.751 18.968C849.455 19.672 849.807 20.52 849.807 21.512C849.807 22.536 849.463 23.392 848.775 24.08C848.087 24.768 847.207 25.112 846.135 25.112ZM843.999 21.512C843.999 22.12 844.199 22.632 844.599 23.048C844.999 23.464 845.511 23.672 846.135 23.672C846.759 23.672 847.271 23.464 847.671 23.048C848.071 22.632 848.271 22.12 848.271 21.512C848.271 20.904 848.071 20.392 847.671 19.976C847.271 19.56 846.759 19.352 846.135 19.352C845.511 19.352 844.999 19.56 844.599 19.976C844.199 20.392 843.999 20.904 843.999 21.512ZM844.311 33.296L843.303 32.72L854.559 20.072L855.591 20.648L844.311 33.296ZM855.543 34.256C854.855 34.944 853.983 35.288 852.927 35.288C851.871 35.288 850.999 34.944 850.311 34.256C849.607 33.552 849.255 32.696 849.255 31.688C849.255 30.696 849.607 29.848 850.311 29.144C851.015 28.44 851.887 28.088 852.927 28.088C853.967 28.088 854.839 28.44 855.543 29.144C856.247 29.848 856.599 30.696 856.599 31.688C856.599 32.696 856.247 33.552 855.543 34.256ZM850.791 31.688C850.791 32.296 850.991 32.808 851.391 33.224C851.791 33.64 852.303 33.848 852.927 33.848C853.551 33.848 854.063 33.64 854.463 33.224C854.863 32.808 855.063 32.296 855.063 31.688C855.063 31.08 854.863 30.568 854.463 30.152C854.063 29.736 853.551 29.528 852.927 29.528C852.303 29.528 851.791 29.736 851.391 30.152C850.991 30.568 850.791 31.08 850.791 31.688Z" fill="#101010"/>
<rect x="0.5" y="0.5" width="988" height="51" rx="6.5" stroke="white"/>
<rect x="495.5" y="0.5" width="300" height="51" fill="#9780C8" stroke="#F4F4F4"/>
<path d="M21.528 24.968H24.36C25.944 24.968 27.272 25.432 28.344 26.36C29.448 27.272 30 28.528 30 30.128C30 31.712 29.448 32.976 28.344 33.92C27.272 34.832 25.944 35.288 24.36 35.288C23.064 35.288 21.92 34.976 20.928 34.352C19.952 33.712 19.296 32.832 18.96 31.712L20.376 30.896C20.616 31.776 21.088 32.456 21.792 32.936C22.496 33.416 23.352 33.656 24.36 33.656C25.544 33.656 26.496 33.344 27.216 32.72C27.952 32.08 28.32 31.216 28.32 30.128C28.32 29.04 27.952 28.184 27.216 27.56C26.496 26.92 25.544 26.6 24.36 26.6H19.8L20.4 18.2H29.4V19.784H21.888L21.528 24.968ZM42.7322 32.936C41.6282 34.504 40.0682 35.288 38.0522 35.288C36.0522 35.288 34.4842 34.504 33.3482 32.936C32.2442 31.352 31.6922 29.24 31.6922 26.6C31.6922 23.944 32.2442 21.84 33.3482 20.288C34.4842 18.704 36.0522 17.912 38.0522 17.912C40.0682 17.912 41.6282 18.704 42.7322 20.288C43.8522 21.84 44.4122 23.944 44.4122 26.6C44.4122 29.256 43.8522 31.368 42.7322 32.936ZM34.5962 31.808C35.4442 33.04 36.5962 33.656 38.0522 33.656C39.5242 33.656 40.6682 33.04 41.4842 31.808C42.3162 30.592 42.7322 28.856 42.7322 26.6C42.7322 24.344 42.3162 22.608 41.4842 21.392C40.6682 20.16 39.5242 19.544 38.0522 19.544C36.5962 19.544 35.4442 20.16 34.5962 21.392C33.7802 22.624 33.3722 24.36 33.3722 26.6C33.3722 28.84 33.7802 30.576 34.5962 31.808ZM50.2526 25.112C49.1966 25.112 48.3246 24.768 47.6366 24.08C46.9326 23.376 46.5806 22.52 46.5806 21.512C46.5806 20.52 46.9326 19.672 47.6366 18.968C48.3406 18.264 49.2126 17.912 50.2526 17.912C51.2926 17.912 52.1646 18.264 52.8686 18.968C53.5726 19.672 53.9246 20.52 53.9246 21.512C53.9246 22.536 53.5806 23.392 52.8926 24.08C52.2046 24.768 51.3246 25.112 50.2526 25.112ZM48.1166 21.512C48.1166 22.12 48.3166 22.632 48.7166 23.048C49.1166 23.464 49.6286 23.672 50.2526 23.672C50.8766 23.672 51.3886 23.464 51.7886 23.048C52.1886 22.632 52.3886 22.12 52.3886 21.512C52.3886 20.904 52.1886 20.392 51.7886 19.976C51.3886 19.56 50.8766 19.352 50.2526 19.352C49.6286 19.352 49.1166 19.56 48.7166 19.976C48.3166 20.392 48.1166 20.904 48.1166 21.512ZM48.4286 33.296L47.4206 32.72L58.6766 20.072L59.7086 20.648L48.4286 33.296ZM59.6606 34.256C58.9726 34.944 58.1006 35.288 57.0446 35.288C55.9886 35.288 55.1166 34.944 54.4286 34.256C53.7246 33.552 53.3726 32.696 53.3726 31.688C53.3726 30.696 53.7246 29.848 54.4286 29.144C55.1326 28.44 56.0046 28.088 57.0446 28.088C58.0846 28.088 58.9566 28.44 59.6606 29.144C60.3646 29.848 60.7166 30.696 60.7166 31.688C60.7166 32.696 60.3646 33.552 59.6606 34.256ZM54.9086 31.688C54.9086 32.296 55.1086 32.808 55.5086 33.224C55.9086 33.64 56.4206 33.848 57.0446 33.848C57.6686 33.848 58.1806 33.64 58.5806 33.224C58.9806 32.808 59.1806 32.296 59.1806 31.688C59.1806 31.08 58.9806 30.568 58.5806 30.152C58.1806 29.736 57.6686 29.528 57.0446 29.528C56.4206 29.528 55.9086 29.736 55.5086 30.152C55.1086 30.568 54.9086 31.08 54.9086 31.688Z" fill="#F4F4F4"/>
<path d="M519.04 19.784L515.128 25.184C516.456 25.344 517.56 25.864 518.44 26.744C519.32 27.576 519.76 28.704 519.76 30.128C519.76 31.712 519.208 32.976 518.104 33.92C517.032 34.832 515.704 35.288 514.12 35.288C512.856 35.288 511.736 35 510.76 34.424C509.784 33.832 509.104 33.008 508.72 31.952L510.112 31.136C510.384 31.952 510.864 32.576 511.552 33.008C512.256 33.44 513.112 33.656 514.12 33.656C515.304 33.656 516.256 33.344 516.976 32.72C517.712 32.08 518.08 31.216 518.08 30.128C518.08 29.04 517.712 28.184 516.976 27.56C516.256 26.92 515.304 26.6 514.12 26.6V26.576L514.096 26.6H513.64L512.92 25.496L517.096 19.784H509.2V18.2H519.04V19.784ZM532.967 32.936C531.863 34.504 530.303 35.288 528.287 35.288C526.287 35.288 524.719 34.504 523.583 32.936C522.479 31.352 521.927 29.24 521.927 26.6C521.927 23.944 522.479 21.84 523.583 20.288C524.719 18.704 526.287 17.912 528.287 17.912C530.303 17.912 531.863 18.704 532.967 20.288C534.087 21.84 534.647 23.944 534.647 26.6C534.647 29.256 534.087 31.368 532.967 32.936ZM524.831 31.808C525.679 33.04 526.831 33.656 528.287 33.656C529.759 33.656 530.903 33.04 531.719 31.808C532.551 30.592 532.967 28.856 532.967 26.6C532.967 24.344 532.551 22.608 531.719 21.392C530.903 20.16 529.759 19.544 528.287 19.544C526.831 19.544 525.679 20.16 524.831 21.392C524.015 22.624 523.607 24.36 523.607 26.6C523.607 28.84 524.015 30.576 524.831 31.808ZM540.487 25.112C539.431 25.112 538.559 24.768 537.871 24.08C537.167 23.376 536.815 22.52 536.815 21.512C536.815 20.52 537.167 19.672 537.871 18.968C538.575 18.264 539.447 17.912 540.487 17.912C541.527 17.912 542.399 18.264 543.103 18.968C543.807 19.672 544.159 20.52 544.159 21.512C544.159 22.536 543.815 23.392 543.127 24.08C542.439 24.768 541.559 25.112 540.487 25.112ZM538.351 21.512C538.351 22.12 538.551 22.632 538.951 23.048C539.351 23.464 539.863 23.672 540.487 23.672C541.111 23.672 541.623 23.464 542.023 23.048C542.423 22.632 542.623 22.12 542.623 21.512C542.623 20.904 542.423 20.392 542.023 19.976C541.623 19.56 541.111 19.352 540.487 19.352C539.863 19.352 539.351 19.56 538.951 19.976C538.551 20.392 538.351 20.904 538.351 21.512ZM538.663 33.296L537.655 32.72L548.911 20.072L549.943 20.648L538.663 33.296ZM549.895 34.256C549.207 34.944 548.335 35.288 547.279 35.288C546.223 35.288 545.351 34.944 544.663 34.256C543.959 33.552 543.607 32.696 543.607 31.688C543.607 30.696 543.959 29.848 544.663 29.144C545.367 28.44 546.239 28.088 547.279 28.088C548.319 28.088 549.191 28.44 549.895 29.144C550.599 29.848 550.951 30.696 550.951 31.688C550.951 32.696 550.599 33.552 549.895 34.256ZM545.143 31.688C545.143 32.296 545.343 32.808 545.743 33.224C546.143 33.64 546.655 33.848 547.279 33.848C547.903 33.848 548.415 33.64 548.815 33.224C549.215 32.808 549.415 32.296 549.415 31.688C549.415 31.08 549.215 30.568 548.815 30.152C548.415 29.736 547.903 29.528 547.279 29.528C546.655 29.528 546.143 29.736 545.743 30.152C545.343 30.568 545.143 31.08 545.143 31.688Z" fill="#F4F4F4"/>
</svg>
