<svg width="246" height="155" viewBox="0 0 246 155" fill="none" xmlns="http://www.w3.org/2000/svg">
<rect y="0.733398" width="246" height="154" fill="#9780C8"/>
<path d="M24.344 34.1174C22.0613 34.1174 20.1413 33.3601 18.584 31.8454C17.048 30.3094 16.28 28.3254 16.28 25.8934C16.28 23.1627 16.6853 21.0721 17.496 19.6214C18.3067 18.1494 19.9493 16.8161 22.424 15.6214C23.2133 15.2587 23.832 14.9814 24.28 14.7894C25.0267 14.4907 25.6133 14.2347 26.04 14.0214C27.896 13.1681 28.8347 12.1121 28.856 10.8534L30.52 11.8134C30.4133 12.3467 30.2427 12.8267 30.008 13.2534C29.7307 13.7227 29.4533 14.0961 29.176 14.3734C28.92 14.6507 28.5147 14.9494 27.96 15.2694C27.5973 15.4827 27.16 15.7174 26.648 15.9734L25.048 16.6454L23.544 17.2854C22.072 17.9254 20.9733 18.5974 20.248 19.3014C19.544 19.9841 19.0427 20.8801 18.744 21.9894C19.4267 21.0721 20.3227 20.3787 21.432 19.9094C22.5413 19.4187 23.6613 19.1734 24.792 19.1734C26.9253 19.1734 28.6853 19.8774 30.072 21.2854C31.48 22.6721 32.184 24.4534 32.184 26.6294C32.184 28.7841 31.4373 30.5761 29.944 32.0054C28.472 33.4134 26.6053 34.1174 24.344 34.1174ZM20.184 30.4374C21.2933 31.4827 22.68 32.0054 24.344 32.0054C26.008 32.0054 27.3733 31.5041 28.44 30.5014C29.528 29.4774 30.072 28.1867 30.072 26.6294C30.072 25.0507 29.56 23.7601 28.536 22.7574C27.5333 21.7334 26.1893 21.2214 24.504 21.2214C22.9893 21.2214 21.6133 21.7014 20.376 22.6614C19.1387 23.5787 18.52 24.8374 18.52 26.4374C18.52 28.0587 19.0747 29.3921 20.184 30.4374ZM49.1562 20.8694V17.7334H51.2683V33.7334H49.1562V30.5974C47.6843 32.9441 45.5296 34.1174 42.6923 34.1174C40.4096 34.1174 38.4576 33.3067 36.8363 31.6854C35.2363 30.0641 34.4363 28.0801 34.4363 25.7334C34.4363 23.3867 35.2363 21.4027 36.8363 19.7814C38.4576 18.1601 40.4096 17.3494 42.6923 17.3494C45.5296 17.3494 47.6843 18.5227 49.1562 20.8694ZM38.3723 30.2454C39.5883 31.4614 41.0816 32.0694 42.8523 32.0694C44.6229 32.0694 46.1163 31.4614 47.3323 30.2454C48.5483 28.9867 49.1562 27.4827 49.1562 25.7334C49.1562 23.9627 48.5483 22.4694 47.3323 21.2534C46.1163 20.0161 44.6229 19.3974 42.8523 19.3974C41.0816 19.3974 39.5883 20.0161 38.3723 21.2534C37.1563 22.4694 36.5483 23.9627 36.5483 25.7334C36.5483 27.4827 37.1563 28.9867 38.3723 30.2454ZM63.996 25.5094C65.852 26.2134 66.78 27.4934 66.78 29.3494C66.78 30.6934 66.2573 31.8241 65.212 32.7414C64.2093 33.6587 62.7373 34.1174 60.796 34.1174C57.5533 34.1174 55.4413 32.8374 54.46 30.2774L56.252 29.2214C56.9347 31.1201 58.4493 32.0694 60.796 32.0694C62.012 32.0694 62.9613 31.8134 63.644 31.3014C64.3267 30.7681 64.668 30.0747 64.668 29.2214C64.668 28.4534 64.3907 27.8454 63.836 27.3974C63.2813 26.9281 62.5347 26.6934 61.596 26.6934H59.26V24.6454H60.956C61.8733 24.6454 62.588 24.4214 63.1 23.9734C63.6333 23.5041 63.9 22.8641 63.9 22.0534C63.9 21.2854 63.58 20.6561 62.94 20.1654C62.3213 19.6534 61.5 19.3974 60.476 19.3974C58.492 19.3974 57.1587 20.1974 56.476 21.7974L54.716 20.7734C55.7827 18.4907 57.7027 17.3494 60.476 17.3494C62.1827 17.3494 63.5267 17.7974 64.508 18.6934C65.5107 19.5681 66.012 20.6454 66.012 21.9254C66.012 23.5681 65.34 24.7627 63.996 25.5094ZM83.398 31.7174C81.7553 33.3174 79.7713 34.1174 77.446 34.1174C75.078 34.1174 73.0833 33.3174 71.462 31.7174C69.8407 30.0961 69.03 28.1014 69.03 25.7334C69.03 23.3654 69.8407 21.3814 71.462 19.7814C73.0833 18.1601 75.078 17.3494 77.446 17.3494C79.7927 17.3494 81.7767 18.1601 83.398 19.7814C85.0407 21.3814 85.862 23.3654 85.862 25.7334C85.862 28.0801 85.0407 30.0747 83.398 31.7174ZM72.966 30.2454C74.182 31.4614 75.6753 32.0694 77.446 32.0694C79.2167 32.0694 80.71 31.4614 81.926 30.2454C83.142 28.9867 83.75 27.4827 83.75 25.7334C83.75 23.9627 83.142 22.4694 81.926 21.2534C80.71 20.0161 79.2167 19.3974 77.446 19.3974C75.6753 19.3974 74.182 20.0161 72.966 21.2534C71.75 22.4694 71.142 23.9627 71.142 25.7334C71.142 27.4827 71.75 28.9867 72.966 30.2454ZM99.5723 25.5094C101.322 26.1494 102.196 27.3974 102.196 29.2534C102.196 30.5761 101.748 31.6534 100.852 32.4854C99.9776 33.3174 98.7509 33.7334 97.1723 33.7334H89.3963V17.7334H96.5323C98.0683 17.7334 99.2629 18.1281 100.116 18.9174C100.991 19.7067 101.428 20.7414 101.428 22.0214C101.428 23.6214 100.81 24.7841 99.5723 25.5094ZM96.5323 19.7814H91.5083V24.6454H96.5323C98.3883 24.6454 99.3163 23.8134 99.3163 22.1494C99.3163 21.4027 99.0709 20.8267 98.5803 20.4214C98.1109 19.9947 97.4283 19.7814 96.5323 19.7814ZM91.5083 31.6854H97.1723C98.1109 31.6854 98.8256 31.4614 99.3163 31.0134C99.8283 30.5654 100.084 29.9361 100.084 29.1254C100.084 28.3574 99.8283 27.7601 99.3163 27.3334C98.8256 26.9067 98.1109 26.6934 97.1723 26.6934H91.5083V31.6854ZM107.508 23.8134H111.892C113.364 23.8134 114.623 24.2827 115.668 25.2214C116.714 26.1387 117.236 27.3227 117.236 28.7734C117.236 30.2454 116.714 31.4401 115.668 32.3574C114.666 33.2747 113.407 33.7334 111.892 33.7334H105.396V17.7334H107.508V23.8134ZM119.476 33.7334V17.7334H121.588V33.7334H119.476ZM107.508 31.6854H111.892C112.81 31.6854 113.578 31.4187 114.196 30.8854C114.815 30.3307 115.124 29.6267 115.124 28.7734C115.124 27.9201 114.815 27.2267 114.196 26.6934C113.578 26.1387 112.81 25.8614 111.892 25.8614H107.508V31.6854ZM133.476 17.3494C135.865 17.3494 137.774 18.1921 139.204 19.8774C140.676 21.5414 141.412 23.5147 141.412 25.7974C141.412 25.9041 141.39 26.2347 141.348 26.7894H127.3C127.513 28.3894 128.196 29.6694 129.348 30.6294C130.5 31.5894 131.94 32.0694 133.668 32.0694C136.1 32.0694 137.817 31.1627 138.82 29.3494L140.676 30.4374C139.972 31.5894 139.001 32.4961 137.764 33.1574C136.548 33.7974 135.172 34.1174 133.636 34.1174C131.118 34.1174 129.07 33.3281 127.492 31.7494C125.913 30.1707 125.124 28.1654 125.124 25.7334C125.124 23.3227 125.902 21.3281 127.46 19.7494C129.017 18.1494 131.022 17.3494 133.476 17.3494ZM133.476 19.3974C131.812 19.3974 130.414 19.8881 129.284 20.8694C128.174 21.8507 127.513 23.1414 127.3 24.7414H139.236C139.001 23.0347 138.35 21.7227 137.284 20.8054C136.174 19.8667 134.905 19.3974 133.476 19.3974ZM36.568 63.6854V49.7334H38.68V65.7334H17.24V49.7334H19.352V63.6854H26.904V49.7334H29.016V63.6854H36.568ZM50.5383 49.3494C52.9276 49.3494 54.8369 50.1921 56.2663 51.8774C57.7383 53.5414 58.4743 55.5147 58.4743 57.7974C58.4743 57.9041 58.4529 58.2347 58.4103 58.7894H44.3623C44.5756 60.3894 45.2583 61.6694 46.4103 62.6294C47.5623 63.5894 49.0023 64.0694 50.7303 64.0694C53.1623 64.0694 54.8796 63.1627 55.8823 61.3494L57.7383 62.4374C57.0343 63.5894 56.0636 64.4961 54.8263 65.1574C53.6103 65.7974 52.2343 66.1174 50.6983 66.1174C48.1809 66.1174 46.1329 65.3281 44.5543 63.7494C42.9756 62.1707 42.1863 60.1654 42.1863 57.7334C42.1863 55.3227 42.9649 53.3281 44.5223 51.7494C46.0796 50.1494 48.0849 49.3494 50.5383 49.3494ZM50.5383 51.3974C48.8743 51.3974 47.4769 51.8881 46.3463 52.8694C45.2369 53.8507 44.5756 55.1414 44.3623 56.7414H56.2983C56.0636 55.0347 55.4129 53.7227 54.3463 52.8054C53.2369 51.8667 51.9676 51.3974 50.5383 51.3974ZM72.7138 47.1734H64.3938V45.3174H72.7138V47.1734ZM63.9458 62.0534L73.4818 49.7334H75.2738V65.7334H73.1618V53.4134L63.6258 65.7334H61.8338V49.7334H63.9458V62.0534ZM79.74 49.7334H93.18V65.7334H91.068V51.7814H81.852V65.7334H79.74V49.7334ZM99.7583 55.8134H104.142C105.614 55.8134 106.873 56.2827 107.918 57.2214C108.964 58.1387 109.486 59.3227 109.486 60.7734C109.486 62.2454 108.964 63.4401 107.918 64.3574C106.916 65.2747 105.657 65.7334 104.142 65.7334H97.6463V49.7334H99.7583V55.8134ZM111.726 65.7334V49.7334H113.838V65.7334H111.726ZM99.7583 63.6854H104.142C105.06 63.6854 105.828 63.4187 106.446 62.8854C107.065 62.3307 107.374 61.6267 107.374 60.7734C107.374 59.9201 107.065 59.2267 106.446 58.6934C105.828 58.1387 105.06 57.8614 104.142 57.8614H99.7583V63.6854Z" fill="#F4F4F4"/>
<path d="M229.709 131.876C230.099 131.486 230.099 130.852 229.709 130.462L223.345 124.098C222.954 123.707 222.321 123.707 221.931 124.098C221.54 124.488 221.54 125.122 221.931 125.512L227.588 131.169L221.931 136.826C221.54 137.216 221.54 137.849 221.931 138.24C222.321 138.631 222.954 138.631 223.345 138.24L229.709 131.876ZM179.223 132.169L229.002 132.169L229.002 130.169L179.223 130.169L179.223 132.169Z" fill="#F4F4F4"/>
</svg>
