<svg width="246" height="155" viewBox="0 0 246 155" fill="none" xmlns="http://www.w3.org/2000/svg">
<rect y="0.733398" width="246" height="154" fill="#9780C8"/>
<path d="M24.344 34.1174C22.0613 34.1174 20.1413 33.3601 18.584 31.8454C17.048 30.3094 16.28 28.3254 16.28 25.8934C16.28 23.1627 16.6853 21.0721 17.496 19.6214C18.3067 18.1494 19.9493 16.8161 22.424 15.6214C23.2133 15.2587 23.832 14.9814 24.28 14.7894C25.0267 14.4907 25.6133 14.2347 26.04 14.0214C27.896 13.1681 28.8347 12.1121 28.856 10.8534L30.52 11.8134C30.4133 12.3467 30.2427 12.8267 30.008 13.2534C29.7307 13.7227 29.4533 14.0961 29.176 14.3734C28.92 14.6507 28.5147 14.9494 27.96 15.2694C27.5973 15.4827 27.16 15.7174 26.648 15.9734L25.048 16.6454L23.544 17.2854C22.072 17.9254 20.9733 18.5974 20.248 19.3014C19.544 19.9841 19.0427 20.8801 18.744 21.9894C19.4267 21.0721 20.3227 20.3787 21.432 19.9094C22.5413 19.4187 23.6613 19.1734 24.792 19.1734C26.9253 19.1734 28.6853 19.8774 30.072 21.2854C31.48 22.6721 32.184 24.4534 32.184 26.6294C32.184 28.7841 31.4373 30.5761 29.944 32.0054C28.472 33.4134 26.6053 34.1174 24.344 34.1174ZM20.184 30.4374C21.2933 31.4827 22.68 32.0054 24.344 32.0054C26.008 32.0054 27.3733 31.5041 28.44 30.5014C29.528 29.4774 30.072 28.1867 30.072 26.6294C30.072 25.0507 29.56 23.7601 28.536 22.7574C27.5333 21.7334 26.1893 21.2214 24.504 21.2214C22.9893 21.2214 21.6133 21.7014 20.376 22.6614C19.1387 23.5787 18.52 24.8374 18.52 26.4374C18.52 28.0587 19.0747 29.3921 20.184 30.4374ZM37.5083 23.8134H41.8923C43.3643 23.8134 44.6229 24.2827 45.6683 25.2214C46.7136 26.1387 47.2363 27.3227 47.2363 28.7734C47.2363 30.2454 46.7136 31.4401 45.6683 32.3574C44.6656 33.2747 43.4069 33.7334 41.8923 33.7334H35.3963V17.7334H37.5083V23.8134ZM49.4763 33.7334V17.7334H51.5883V33.7334H49.4763ZM37.5083 31.6854H41.8923C42.8096 31.6854 43.5776 31.4187 44.1963 30.8854C44.8149 30.3307 45.1243 29.6267 45.1243 28.7734C45.1243 27.9201 44.8149 27.2267 44.1963 26.6934C43.5776 26.1387 42.8096 25.8614 41.8923 25.8614H37.5083V31.6854ZM63.5398 34.1174C61.1291 34.1174 59.1238 33.3174 57.5238 31.7174C55.9238 30.0747 55.1238 28.0801 55.1238 25.7334C55.1238 23.3654 55.9238 21.3814 57.5238 19.7814C59.1238 18.1601 61.1291 17.3494 63.5398 17.3494C65.1184 17.3494 66.5371 17.7334 67.7958 18.5014C69.0544 19.2481 69.9718 20.2614 70.5478 21.5414L68.8198 22.5334C68.3931 21.5734 67.6998 20.8161 66.7398 20.2614C65.8011 19.6854 64.7344 19.3974 63.5398 19.3974C61.7691 19.3974 60.2758 20.0161 59.0598 21.2534C57.8438 22.4694 57.2358 23.9627 57.2358 25.7334C57.2358 27.4827 57.8438 28.9867 59.0598 30.2454C60.2758 31.4614 61.7691 32.0694 63.5398 32.0694C64.7131 32.0694 65.7691 31.7921 66.7078 31.2374C67.6678 30.6827 68.4144 29.9147 68.9478 28.9334L70.7078 29.9574C70.0464 31.2374 69.0758 32.2507 67.7958 32.9974C66.5158 33.7441 65.0971 34.1174 63.5398 34.1174ZM71.5075 17.7334H84.9475V19.7814H79.2835V33.7334H77.1715V19.7814H71.5075V17.7334ZM96.0973 17.3494C98.3799 17.3494 100.321 18.1601 101.921 19.7814C103.543 21.4027 104.353 23.3867 104.353 25.7334C104.353 28.0801 103.543 30.0641 101.921 31.6854C100.321 33.3067 98.3799 34.1174 96.0973 34.1174C93.2599 34.1174 91.1053 32.9441 89.6333 30.5974V40.1334H87.5213V17.7334H89.6333V20.8694C91.1053 18.5227 93.2599 17.3494 96.0973 17.3494ZM91.4573 30.2454C92.6733 31.4614 94.1666 32.0694 95.9373 32.0694C97.7079 32.0694 99.2013 31.4614 100.417 30.2454C101.633 28.9867 102.241 27.4827 102.241 25.7334C102.241 23.9627 101.633 22.4694 100.417 21.2534C99.2013 20.0161 97.7079 19.3974 95.9373 19.3974C94.1666 19.3974 92.6733 20.0161 91.4573 21.2534C90.2413 22.4694 89.6333 23.9627 89.6333 25.7334C89.6333 27.4827 90.2413 28.9867 91.4573 30.2454ZM109.977 23.8134H114.361C115.833 23.8134 117.092 24.2827 118.137 25.2214C119.182 26.1387 119.705 27.3227 119.705 28.7734C119.705 30.2454 119.182 31.4401 118.137 32.3574C117.134 33.2747 115.876 33.7334 114.361 33.7334H107.865V17.7334H109.977V23.8134ZM121.945 33.7334V17.7334H124.057V33.7334H121.945ZM109.977 31.6854H114.361C115.278 31.6854 116.046 31.4187 116.665 30.8854C117.284 30.3307 117.593 29.6267 117.593 28.7734C117.593 27.9201 117.284 27.2267 116.665 26.6934C116.046 26.1387 115.278 25.8614 114.361 25.8614H109.977V31.6854ZM135.945 17.3494C138.334 17.3494 140.243 18.1921 141.673 19.8774C143.145 21.5414 143.881 23.5147 143.881 25.7974C143.881 25.9041 143.859 26.2347 143.817 26.7894H129.769C129.982 28.3894 130.665 29.6694 131.817 30.6294C132.969 31.5894 134.409 32.0694 136.137 32.0694C138.569 32.0694 140.286 31.1627 141.289 29.3494L143.145 30.4374C142.441 31.5894 141.47 32.4961 140.233 33.1574C139.017 33.7974 137.641 34.1174 136.105 34.1174C133.587 34.1174 131.539 33.3281 129.961 31.7494C128.382 30.1707 127.593 28.1654 127.593 25.7334C127.593 23.3227 128.371 21.3281 129.929 19.7494C131.486 18.1494 133.491 17.3494 135.945 17.3494ZM135.945 19.3974C134.281 19.3974 132.883 19.8881 131.753 20.8694C130.643 21.8507 129.982 23.1414 129.769 24.7414H141.705C141.47 23.0347 140.819 21.7227 139.753 20.8054C138.643 19.8667 137.374 19.3974 135.945 19.3974ZM21.592 57.4134L30.168 65.7334H27.352L19.352 58.0214V65.7334H17.24V49.7334H19.352V56.8054L26.968 49.7334H29.848L21.592 57.4134ZM34.7165 49.7334H46.1725V65.7334H44.0605V51.7814H36.8285V58.9174C36.8285 61.5841 36.3165 63.4187 35.2925 64.4214C34.2898 65.4241 32.9032 65.8614 31.1325 65.7334V63.7494C32.3698 63.8774 33.2765 63.5787 33.8525 62.8534C34.4285 62.1281 34.7165 60.8161 34.7165 58.9174V49.7334ZM64.4062 52.8694V49.7334H66.5183V65.7334H64.4062V62.5974C62.9343 64.9441 60.7796 66.1174 57.9423 66.1174C55.6596 66.1174 53.7076 65.3067 52.0863 63.6854C50.4863 62.0641 49.6863 60.0801 49.6863 57.7334C49.6863 55.3867 50.4863 53.4027 52.0863 51.7814C53.7076 50.1601 55.6596 49.3494 57.9423 49.3494C60.7796 49.3494 62.9343 50.5227 64.4062 52.8694ZM53.6223 62.2454C54.8383 63.4614 56.3316 64.0694 58.1023 64.0694C59.8729 64.0694 61.3663 63.4614 62.5823 62.2454C63.7983 60.9867 64.4062 59.4827 64.4062 57.7334C64.4062 55.9627 63.7983 54.4694 62.5823 53.2534C61.3663 52.0161 59.8729 51.3974 58.1023 51.3974C56.3316 51.3974 54.8383 52.0161 53.6223 53.2534C52.4063 54.4694 51.7983 55.9627 51.7983 57.7334C51.7983 59.4827 52.4063 60.9867 53.6223 62.2454ZM81.166 57.5094C82.9153 58.1494 83.79 59.3974 83.79 61.2534C83.79 62.5761 83.342 63.6534 82.446 64.4854C81.5713 65.3174 80.3447 65.7334 78.766 65.7334H70.99V49.7334H78.126C79.662 49.7334 80.8567 50.1281 81.71 50.9174C82.5847 51.7067 83.022 52.7414 83.022 54.0214C83.022 55.6214 82.4033 56.7841 81.166 57.5094ZM78.126 51.7814H73.102V56.6454H78.126C79.982 56.6454 80.91 55.8134 80.91 54.1494C80.91 53.4027 80.6647 52.8267 80.174 52.4214C79.7047 51.9947 79.022 51.7814 78.126 51.7814ZM73.102 63.6854H78.766C79.7047 63.6854 80.4193 63.4614 80.91 63.0134C81.422 62.5654 81.678 61.9361 81.678 61.1254C81.678 60.3574 81.422 59.7601 80.91 59.3334C80.4193 58.9067 79.7047 58.6934 78.766 58.6934H73.102V63.6854ZM89.102 62.0534L98.638 49.7334H100.43V65.7334H98.318V53.4134L88.782 65.7334H86.99V49.7334H89.102V62.0534ZM124.224 63.6854V49.7334H126.336V65.7334H104.896V49.7334H107.008V63.6854H114.56V49.7334H116.672V63.6854H124.224ZM132.915 62.0534L142.451 49.7334H144.243V65.7334H142.131V53.4134L132.595 65.7334H130.803V49.7334H132.915V62.0534Z" fill="#F4F4F4"/>
<path d="M229.709 131.876C230.099 131.486 230.099 130.852 229.709 130.462L223.345 124.098C222.954 123.707 222.321 123.707 221.931 124.098C221.54 124.488 221.54 125.122 221.931 125.512L227.588 131.169L221.931 136.826C221.54 137.216 221.54 137.849 221.931 138.24C222.321 138.631 222.954 138.631 223.345 138.24L229.709 131.876ZM179.223 132.169L229.002 132.169L229.002 130.169L179.223 130.169L179.223 132.169Z" fill="#F4F4F4"/>
</svg>
