<svg width="621" height="143" viewBox="0 0 621 143" fill="none" xmlns="http://www.w3.org/2000/svg">
<path d="M56.576 68.72C59.8187 68.72 62.8907 68.3787 65.792 67.696C68.7787 67.0133 71.424 65.9467 73.728 64.496C76.1173 62.96 78.1227 61.04 79.744 58.736C81.4507 56.432 82.6453 53.6587 83.328 50.416C84.096 47.0027 84.096 44.1867 83.328 41.968C82.56 39.7493 81.28 38 79.488 36.72C77.696 35.44 75.4773 34.544 72.832 34.032C70.272 33.52 67.5413 33.264 64.64 33.264H36.992L29.44 68.72H56.576ZM27.904 76.144L18.944 118H10.24L29.824 25.84H65.92C76.0747 25.84 83.4133 27.76 87.936 31.6C92.544 35.3547 93.952 41.4987 92.16 50.032C90.9653 55.8347 88.7893 60.4427 85.632 63.856C82.56 67.2693 78.1227 70.1707 72.32 72.56C74.88 73.4987 76.7147 74.864 77.824 76.656C79.0187 78.448 79.744 80.496 80 82.8C80.3413 85.104 80.3413 87.536 80 90.096C79.6587 92.656 79.2747 95.1307 78.848 97.52C78.1653 101.019 77.6533 103.92 77.312 106.224C77.056 108.528 76.928 110.405 76.928 111.856C76.928 113.307 77.056 114.459 77.312 115.312C77.568 116.08 77.952 116.677 78.464 117.104L78.336 118H68.736C68.1387 116.379 67.9253 114.245 68.096 111.6C68.2667 108.869 68.5653 106.011 68.992 103.024C69.4187 100.037 69.888 97.136 70.4 94.32C70.912 91.4187 71.168 89.1147 71.168 87.408C71.168 84.9333 70.7413 82.9707 69.888 81.52C69.0347 79.984 67.8827 78.832 66.432 78.064C65.0667 77.296 63.4027 76.784 61.44 76.528C59.4773 76.272 57.4293 76.144 55.296 76.144H27.904ZM95.743 118L115.327 25.84H176.639L175.103 33.264H122.495L115.327 66.544H162.815L161.279 73.968H113.791L105.983 110.576H159.871L158.335 118H95.743ZM222.173 104.688C226.714 104.688 230.402 104.188 233.235 103.188C238.61 101.271 241.298 97.7083 241.298 92.5C241.298 89.4583 239.964 87.1042 237.298 85.4375C234.631 83.8125 230.443 82.375 224.735 81.125L214.985 78.9375C205.402 76.7708 198.777 74.4167 195.11 71.875C188.902 67.625 185.798 60.9792 185.798 51.9375C185.798 43.6875 188.798 36.8333 194.798 31.375C200.798 25.9167 209.61 23.1875 221.235 23.1875C230.943 23.1875 239.214 25.7708 246.048 30.9375C252.923 36.0625 256.527 43.5208 256.86 53.3125H238.36C238.027 47.7708 235.61 43.8333 231.11 41.5C228.11 39.9583 224.381 39.1875 219.923 39.1875C214.964 39.1875 211.006 40.1875 208.048 42.1875C205.089 44.1875 203.61 46.9792 203.61 50.5625C203.61 53.8542 205.068 56.3125 207.985 57.9375C209.86 59.0208 213.86 60.2917 219.985 61.75L235.86 65.5625C242.818 67.2292 248.068 69.4583 251.61 72.25C257.11 76.5833 259.86 82.8542 259.86 91.0625C259.86 99.4792 256.631 106.479 250.173 112.062C243.756 117.604 234.673 120.375 222.923 120.375C210.923 120.375 201.485 117.646 194.61 112.188C187.735 106.688 184.298 99.1458 184.298 89.5625H202.673C203.256 93.7708 204.402 96.9167 206.11 99C209.235 102.792 214.589 104.688 222.173 104.688ZM329.047 118V76.875H293.047V118H273.985V25.875H293.047V61H329.047V25.875H348.172V118H329.047ZM420.547 99.0625H386.61L380.235 118H360.11L392.985 25.875H414.735L447.36 118H426.485L420.547 99.0625ZM415.172 83.1875L403.672 46.9375L391.797 83.1875H415.172ZM498.235 84.875H478.672V118H459.547V25.875H499.672C508.922 25.875 516.297 28.25 521.797 33C527.297 37.75 530.047 45.1042 530.047 55.0625C530.047 65.9375 527.297 73.625 521.797 78.125C516.297 82.625 508.443 84.875 498.235 84.875ZM507.235 65.6875C509.735 63.4792 510.985 59.9792 510.985 55.1875C510.985 50.3958 509.714 46.9792 507.172 44.9375C504.672 42.8958 501.152 41.875 496.61 41.875H478.672V69H496.61C501.152 69 504.693 67.8958 507.235 65.6875ZM608.61 77.75H563.86V101.438H614.86V118H545.047V25.875H612.61V42.1875H563.86V61.75H608.61V77.75Z" fill="#F4F4F4"/>
<path d="M6 137H176" stroke="#9780C8"/>
<path d="M6 130L6 143" stroke="#9780C8"/>
<path d="M176 130L176 143" stroke="#9780C8"/>
<path d="M184 130L184 143" stroke="#9780C8"/>
<path d="M615 130L615 143" stroke="#9780C8"/>
<path d="M184 137L615 137" stroke="#9780C8"/>
</svg>
