<svg width="315" height="87" viewBox="0 0 315 87" fill="none" xmlns="http://www.w3.org/2000/svg">
<path d="M19.3789 22.5059H33.5469C38.0117 22.5059 41 22.9277 42.4766 23.7715C43.9531 24.6152 44.6914 26.0918 44.6914 28.2012C44.6914 30.3809 43.918 31.9277 42.3359 32.877C40.7539 33.8262 38.0117 34.3184 34.1094 34.3184H19.3789V22.5059ZM19.3789 64.1309V44.9707H34.1094H34.4258C38.0117 44.9707 40.4375 45.709 41.668 47.1855C42.8984 48.6621 43.4961 51.791 43.4961 56.5723V60.0879C43.4961 61.6348 43.8477 63.0059 44.5508 64.1309H59.1758C57.6289 62.3379 56.7148 58.2246 56.4336 51.791C56.3984 51.1934 56.3984 50.7012 56.3633 50.3496C56.1875 46.7637 55.6602 44.2676 54.7461 42.8262C53.7969 41.4199 52.1797 40.2246 49.8945 39.2754C52.6016 38.2559 54.7109 36.5684 56.2578 34.2129C57.7695 31.8574 58.543 29.1855 58.543 26.127C58.543 16.5645 52.1797 12.1348 38.293 12.1348H6.33594V64.1309H19.3789ZM114.16 64.1309V53.1973H81.043V42.0176H110.539V31.4355H81.043V22.6465H114.16V12.1348H68V64.1309H114.16ZM120.383 45.3223C120.277 46.7285 120.242 47.748 120.242 48.3457C120.242 59.877 125.516 65.4316 136.379 65.4316C146.82 65.4316 152.656 59.877 152.656 50.0332C152.656 46.4121 151.953 43.459 150.547 41.1035C149.141 38.7832 146.469 36.3223 142.496 33.6855L136.941 29.9238L136.836 29.8535C132.688 27.0762 130.613 24.5801 130.613 22.2949C130.613 18.9199 132.582 16.916 135.816 16.916C140.211 16.916 142.004 19.2363 142.004 25.1074V26.5488H151.566C151.602 26.127 151.637 25.6348 151.637 24.6152C151.637 14.3496 146.117 8.68945 136.098 8.68945C131.352 8.68945 127.66 9.99023 124.953 12.5566C122.246 15.123 120.91 18.709 120.91 23.2441C120.91 26.3027 121.508 28.834 122.738 30.8379C123.934 32.8418 126.746 35.4082 131.211 38.502L136.379 42.1582C138.945 43.9863 140.633 45.4629 141.406 46.623C142.18 47.7832 142.566 49.1895 142.566 50.8066C142.566 55.0254 140.281 57.2051 136.027 57.2051C133.988 57.2051 132.547 56.6074 131.738 55.377C130.895 54.1816 130.473 51.9316 130.473 48.5918V45.1113H120.383V45.3223ZM170.867 64.1309V39.5918H184.684V64.1309H194.703V9.99023H184.684V31.2246H170.867V9.99023H160.848V64.1309H170.867ZM218.715 19.6934L223.039 42.4043H214.461L218.715 19.6934ZM210.277 64.1309L212.879 50.5254H224.48L227.152 64.1309H238.016L225.711 9.99023H212.176L199.977 64.1309H210.277ZM253.062 17.5488H257.422C260.691 17.5488 262.906 18.1113 264.066 19.2715C265.227 20.4316 265.789 22.541 265.789 25.5293C265.789 28.5176 265.156 30.5918 263.891 31.8223C262.625 33.0527 260.41 33.6855 257.281 33.6855H253.062V17.5488ZM253.344 64.1309V41.1738H260.691C270.957 41.1738 275.879 36.0059 275.879 25.3184C275.879 19.8691 274.719 15.9668 272.363 13.5762C270.008 11.1855 266.176 9.99023 260.832 9.99023H243.324V64.1309H253.344ZM310.789 64.1309V54.9902H292.578V40.084H309.137V31.5059H292.578V18.9902H310.367V9.99023H282.559V64.1309H310.789Z" fill="#F4F4F4"/>
</svg>
