<svg width="847" height="173" viewBox="0 0 847 173" fill="none" xmlns="http://www.w3.org/2000/svg">
<path d="M116.271 85.0763C119.161 85.0763 121.898 84.7716 124.484 84.1623C127.146 83.553 129.503 82.601 131.557 81.3062C133.686 79.9353 135.473 78.2216 136.918 76.1652C138.439 74.1088 139.504 71.6335 140.112 68.7393C140.796 65.6928 140.796 63.1794 140.112 61.1992C139.428 59.2189 138.287 57.6576 136.69 56.5152C135.093 55.3727 133.116 54.573 130.758 54.116C128.477 53.659 126.043 53.4306 123.457 53.4306H98.8177L92.0874 85.0763H116.271ZM90.7186 91.7025L82.7335 129.06H74.9766L92.4297 46.8044H124.598C133.648 46.8044 140.188 48.518 144.219 51.9454C148.325 55.2965 149.58 60.7803 147.983 68.3966C146.918 73.5757 144.979 77.6885 142.165 80.735C139.428 83.7815 135.473 86.3711 130.302 88.5036C132.583 89.3414 134.218 90.56 135.207 92.1594C136.272 93.7589 136.918 95.5868 137.146 97.6432C137.45 99.6996 137.45 101.87 137.146 104.155C136.842 106.44 136.5 108.649 136.119 110.781C135.511 113.904 135.055 116.494 134.751 118.55C134.522 120.606 134.408 122.282 134.408 123.577C134.408 124.871 134.522 125.9 134.751 126.661C134.979 127.347 135.321 127.88 135.777 128.261V129.36H131.331H127.015C126.482 127.913 126.385 125.709 126.537 123.348C126.689 120.911 126.956 118.36 127.336 115.694C127.716 113.028 128.134 110.439 128.591 107.925C129.047 105.336 129.275 103.279 129.275 101.756C129.275 99.5473 128.895 97.7955 128.134 96.5007C127.374 95.1298 126.347 94.1016 125.054 93.4161C123.838 92.7307 122.355 92.2737 120.606 92.0452C118.856 91.8167 117.031 91.7025 115.13 91.7025H90.7186Z" fill="#F4F4F4"/>
<path d="M150.393 129.085L167.846 46.4798H222.486L221.117 53.106H174.234L167.846 82.8096H210.166L208.798 89.4358H166.477L159.518 122.11H207.543L206.174 129.085H150.393Z" fill="#F4F4F4"/>
<path d="M263.065 116.854C267.113 116.854 270.399 116.408 272.924 115.515C277.714 113.804 280.109 110.625 280.109 105.976C280.109 103.261 278.921 101.16 276.545 99.6727C274.168 98.2223 270.436 96.9393 265.349 95.8236L256.66 93.8712C248.119 91.9374 242.215 89.8362 238.948 87.5677C233.415 83.7744 230.648 77.8428 230.648 69.7728C230.648 62.4093 233.322 56.2918 238.669 51.42C244.016 46.5482 251.87 44.1124 262.23 44.1124C270.882 44.1124 278.253 46.4181 284.343 51.0295C290.47 55.6038 293.682 62.2606 293.979 71H277.492C277.195 66.0539 275.041 62.5395 271.03 60.4569C268.357 59.0809 265.033 58.3929 261.06 58.3929C256.641 58.3929 253.114 59.2855 250.477 61.0705C247.841 62.8556 246.523 65.3473 246.523 68.5455C246.523 71.4834 247.822 73.6776 250.422 75.128C252.093 76.0949 255.657 77.2291 261.116 78.5308L275.264 81.9335C281.465 83.4211 286.144 85.4107 289.3 87.9024C294.201 91.77 296.652 97.367 296.652 104.693C296.652 112.205 293.774 118.453 288.019 123.436C282.3 128.383 274.205 130.856 263.734 130.856C253.039 130.856 244.629 128.42 238.502 123.548C232.375 118.639 229.312 111.908 229.312 103.354H245.687C246.207 107.11 247.228 109.918 248.751 111.778C251.536 115.162 256.307 116.854 263.065 116.854Z" fill="#F4F4F4"/>
<path d="M358.312 129.285V92.0303H326.229V129.085H309.24V46.5111H326.229V77.8614H358.312V46.5111H375.356V129.285H358.312Z" fill="#F4F4F4"/>
<path d="M439.856 111.833H409.611L403.93 129.085H385.994L415.292 46.5111H434.676L463.751 129.085H445.147L439.856 111.833ZM435.066 97.6645L424.817 65.3101L414.234 97.6645H435.066Z" fill="#F4F4F4"/>
<path d="M509.09 99.1706H491.656V129.085H474.612V46.5111H510.371C518.615 46.5111 525.187 48.6308 530.089 52.8704C534.99 57.1099 537.441 63.6738 537.441 72.5619C537.441 82.2682 534.99 89.1296 530.089 93.146C525.187 97.1624 518.188 99.1706 509.09 99.1706ZM517.111 82.0451C519.339 80.0741 520.453 76.9502 520.453 72.6735C520.453 68.3968 519.32 65.3473 517.055 63.525C514.827 61.7027 511.689 60.7916 507.642 60.7916H491.656V85.0016H507.642C511.689 85.0016 514.846 84.0161 517.111 82.0451Z" fill="#F4F4F4"/>
<path d="M607.456 92.8113H567.575V113.953H612.944V129.176H550.809V46.5111H611.02V61.0705H567.575V78.5308H607.456V92.8113Z" fill="#F4F4F4"/>
<rect x="74.5137" y="46.5001" width="538" height="83" stroke="#9780C8"/>
<rect x="0.513672" y="0.500061" width="687" height="172" stroke="#9780C8"/>
<line x1="74.498" y1="46.5001" x2="0.529129" y2="46.5001" stroke="#9780C8"/>
<line x1="74.4766" y1="46.0006" x2="74.4256" y2="0.877581" stroke="#9780C8"/>
<line x1="612.5" y1="46.0001" x2="612.5" y2="7.65014e-06" stroke="#9780C8"/>
<line x1="612.514" y1="172.983" x2="612.514" y2="129.511" stroke="#9780C8"/>
<line x1="74.4766" y1="172.999" x2="74.4766" y2="129.527" stroke="#9780C8"/>
<line x1="687.1" y1="46.5088" x2="612.922" y2="46.5" stroke="#9780C8"/>
<line x1="74.1562" y1="129.522" x2="0.00169305" y2="129.509" stroke="#9780C8"/>
<line x1="686.982" y1="129.516" x2="613.013" y2="129.516" stroke="#9780C8"/>
<path d="M36.425 22.115L39.35 26H38.165L35.825 22.91L33.485 26H32.3L35.24 22.115L32.495 18.5H33.68L35.825 21.335L37.97 18.5H39.155L36.425 22.115Z" fill="#F4F4F4"/>
<path d="M37.02 89.785L39.45 83.5H40.5L37.29 91.69C36.99 92.45 36.57 93.035 36.03 93.445C35.5 93.865 34.91 94.05 34.26 94V93.07C35.16 93.18 35.845 92.66 36.315 91.51L36.51 91.045L33.15 83.5H34.2L37.02 89.785Z" fill="#F4F4F4"/>
<path d="M774.425 18.115L777.35 22H776.165L773.825 18.91L771.485 22H770.3L773.24 18.115L770.495 14.5H771.68L773.825 17.335L775.97 14.5H777.155L774.425 18.115Z" fill="#F4F4F4"/>
<path d="M841.474 89.5756L843.904 83.2906H844.954L841.744 91.4806C841.444 92.2406 841.024 92.8256 840.484 93.2356C839.954 93.6556 839.364 93.8406 838.714 93.7906V92.8606C839.614 92.9706 840.299 92.4506 840.769 91.3006L840.964 90.8356L837.604 83.2906H838.654L841.474 89.5756Z" fill="#F4F4F4"/>
<mask id="path-16-inside-1_611_2683" fill="white">
<path d="M811 39L737 39L737 28L811 28L811 39Z"/>
</mask>
<path d="M737 28L737 27L736 27L736 28L737 28ZM811 28L812 28L812 27L811 27L811 28ZM738 39L738 28L736 28L736 39L738 39ZM737 29L811 29L811 27L737 27L737 29ZM810 28L810 39L812 39L812 28L810 28Z" fill="#9780C8" mask="url(#path-16-inside-1_611_2683)"/>
<mask id="path-18-inside-2_611_2683" fill="white">
<path d="M818.205 128.791L818.205 46.5652L829.97 46.5652L829.97 128.791L818.205 128.791Z"/>
</mask>
<path d="M829.97 46.5652L830.97 46.5652L830.97 45.5652L829.97 45.5652L829.97 46.5652ZM829.97 128.791L829.97 129.791L830.97 129.791L830.97 128.791L829.97 128.791ZM818.205 47.5652L829.97 47.5652L829.97 45.5652L818.205 45.5652L818.205 47.5652ZM828.97 46.5652L828.97 128.791L830.97 128.791L830.97 46.5652L828.97 46.5652ZM829.97 127.791L818.205 127.791L818.205 129.791L829.97 129.791L829.97 127.791Z" fill="#9780C8" mask="url(#path-18-inside-2_611_2683)"/>
<path d="M778.261 84.8228C781.154 84.8228 783.895 84.5183 786.483 83.9092C789.148 83.3001 791.508 82.3484 793.564 81.0542C795.696 79.6837 797.485 77.9707 798.931 75.9151C800.454 73.8594 801.52 71.3851 802.129 68.492C802.814 65.4466 802.814 62.9342 802.129 60.9547C801.444 58.9752 800.302 57.4144 798.703 56.2724C797.104 55.1304 795.125 54.331 792.765 53.8742C790.481 53.4173 788.044 53.1889 785.456 53.1889H760.788L754.05 84.8228H778.261ZM752.68 91.4465L744.686 128.79H736.92L754.393 46.5652H786.598C795.658 46.5652 802.205 48.2783 806.24 51.7043C810.352 55.0542 811.608 60.5359 810.009 68.1494C808.943 73.3265 807.002 77.4378 804.185 80.4831C801.444 83.5285 797.485 86.1171 792.308 88.2489C794.592 89.0863 796.229 90.3045 797.218 91.9033C798.284 93.5021 798.931 95.3294 799.16 97.385C799.464 99.4406 799.464 101.61 799.16 103.894C798.855 106.179 798.513 108.386 798.132 110.518C797.523 113.64 797.066 116.228 796.762 118.284C796.533 120.34 796.419 122.014 796.419 123.309C796.419 124.603 796.533 125.631 796.762 126.392C796.99 127.077 797.333 127.61 797.789 127.991L797.675 128.79H789.11C788.577 127.344 788.387 125.441 788.539 123.08C788.691 120.644 788.958 118.094 789.338 115.429C789.719 112.764 790.138 110.176 790.595 107.663C791.052 105.075 791.28 103.019 791.28 101.496C791.28 99.2883 790.899 97.5373 790.138 96.243C789.377 94.8726 788.349 93.8447 787.054 93.1595C785.836 92.4743 784.352 92.0175 782.601 91.7891C780.849 91.5607 779.022 91.4465 777.119 91.4465H752.68Z" fill="#F4F4F4"/>
</svg>
